<?xml version="1.0" encoding="UTF-8" standalone="no"?>
<svg
   xmlns:dc="http://purl.org/dc/elements/1.1/"
   xmlns:cc="http://creativecommons.org/ns#"
   xmlns:rdf="http://www.w3.org/1999/02/22-rdf-syntax-ns#"
   xmlns:svg="http://www.w3.org/2000/svg"
   xmlns="http://www.w3.org/2000/svg"
   viewBox="0 0 1565.1467 593.93335"
   height="593.93335"
   width="1565.1467"
   xml:space="preserve"
   id="svg2"
   version="1.1"><metadata
     id="metadata8"><rdf:RDF><cc:Work
         rdf:about=""><dc:format>image/svg+xml</dc:format><dc:type
           rdf:resource="http://purl.org/dc/dcmitype/StillImage" /></cc:Work></rdf:RDF></metadata><defs
     id="defs6" /><g
     transform="matrix(1.3333333,0,0,-1.3333333,0,593.93333)"
     id="g10"><g
       transform="scale(0.1)"
       id="g12"><path
         id="path14"
         style="fill:#231f20;fill-opacity:1;fill-rule:nonzero;stroke:none"
         d="m 149.656,2031.96 66.168,-8.15 5589.686,-693.44 1393.81,350.75 c -38.88,185.09 -56.96,713.04 -57.2,1167.05 0.24,454.07 18.32,982.02 57.2,1167.08 L 5805.51,4366 149.656,3664.41 C 110.91,3524.19 87.2305,3217.49 87.2305,2848.2 c 0,-369.32 23.6795,-676.02 62.4255,-816.24 z m 5661.354,-790.14 -8.11,0.99 -5718.9156,709.4 -8.875,25.7 C 28.082,2114.02 0,2439.37 0,2848.2 0,3257 28.082,3582.34 75.1094,3718.45 l 8.875,25.7 5727.0256,710.4 1501.93,-377.97 -19.5,-46.72 c -31.27,-74.91 -63.79,-537.4 -64.09,-1181.69 0.3,-644.23 32.82,-1106.71 64.09,-1181.66 l 19.5,-46.73 -1501.93,-377.96" /><path
         id="path16"
         style="fill:#231f20;fill-opacity:1;fill-rule:nonzero;stroke:none"
         d="m 5832.14,4374.27 c -35.7,-251.22 -59.35,-853.66 -59.35,-1526.07 0,-672.41 23.65,-1274.88 59.35,-1526.11 l 1421.13,356.71 16.79,-0.07 c 28.84,127.04 46.49,566.47 46.49,1169.47 0,613.79 -16.72,1043.85 -45.07,1169.63 l -21.66,-0.29 -3.71,0.92 z m -47.36,-3124.08 -5.2,31.1 c -38.84,232.22 -64.94,861.91 -64.94,1566.91 0,704.96 26.1,1334.66 64.94,1566.87 l 5.2,31.1 1471.8,-370.42 57.65,0.87 6.83,-19.97 c 46.66,-136.78 53.65,-815.85 53.65,-1208.45 0,-314.78 -5.37,-1062.57 -55.01,-1207.98 l -6.76,-19.71 -56.16,0.13 -1472,-370.45" /><path
         id="path18"
         style="fill:#000000;fill-opacity:1;fill-rule:evenodd;stroke:none"
         d="m 3346.38,3669.04 c -5.73,-558.82 -3.11,-1095.35 -3.11,-1662.78 0,-73.29 12.82,-191.95 -21.92,-221.92 -40.51,-35.01 -156.65,-9.9 -181.22,25 -26.73,37.82 -12.55,175.66 -12.55,250.04 0,523.55 0,1043.69 0,1575.28 0,80.52 -9.24,208.94 21.89,240.67 28.41,28.94 132.9,30.43 190.65,37.49 60.77,7.45 159.73,30.66 200.03,6.26 43.78,-26.46 59.38,-171.32 75.01,-237.59 138.89,-587.43 285.34,-1161.82 421.95,-1753.39 5.69,562.1 3.11,1216.89 3.11,1809.72 0,85.71 -11.52,197.12 18.81,237.49 25,33.38 136.94,61.1 178.14,18.78 33.91,-34.88 18.74,-201.79 18.74,-278.22 0,-600.28 0.03,-1175.2 0,-1781.51 0,-94.81 18.09,-246.19 -37.52,-271.92 -43.98,-20.4 -130.61,5.19 -193.77,12.48 -67.42,7.88 -156.87,9.9 -184.43,34.41 -19.7,17.55 -30.14,74.08 -40.6,115.61 -158.1,627.6 -295.08,1209.9 -453.21,1844.1" /><path
         id="path20"
         style="fill:#000000;fill-opacity:1;fill-rule:evenodd;stroke:none"
         d="m 2089.88,3540.91 c -49.84,-6.06 -115.41,-7.12 -137.5,-34.41 -19.21,-23.78 -15.6,-90.47 -15.6,-153.17 0,-367.33 0,-664.19 0,-1031.4 0,-58.42 -4.3,-131.7 15.6,-156.28 21.96,-27.09 103.62,-31.3 153.17,-37.52 128.59,-16.13 217.44,-25.1 340.67,-40.63 51,-6.4 132.64,-24.94 162.51,3.14 24.11,22.59 18.78,102.63 18.78,168.8 0,392.61 0,736.03 0,1128.27 0,51.03 9.5,150.98 -9.37,181.32 -16.56,26.52 -48.33,25.73 -65.68,24.97 -166.58,-7.19 -300.93,-33.52 -462.58,-53.09 z m 647.01,296.9 c 15.34,1.29 66.1,6.39 87.53,-15.64 28.68,-29.5 18.75,-143.43 18.75,-234.4 0,-83.02 0,-173.33 0,-253.15 0,-370.21 0,-634.42 0,-1009.57 0,-77.37 0,-162.84 0,-253.18 0,-82.3 9.43,-196.53 -24.97,-225 -45.77,-37.86 -196.55,0.62 -268.85,9.34 -242.82,29.27 -438.31,54.97 -687.61,84.41 -50.04,5.93 -102.7,8.74 -121.91,31.26 -27.39,32.03 -18.71,134.56 -18.71,203.18 0,449.33 0,874.72 0,1322.07 0,72.5 -6.89,170.02 18.71,200.03 33.22,38.91 166.81,37.82 237.59,46.89 259.47,33.25 497.52,71.31 759.47,93.76" /><path
         id="path22"
         style="fill:#000000;fill-opacity:1;fill-rule:evenodd;stroke:none"
         d="m 1339.78,3665.89 c 31.76,2.72 64.67,4.51 84.45,-12.48 34.83,-30.07 43.18,-132.17 15.56,-168.8 -32.52,-43.12 -163.66,-44.11 -209.4,-50.01 -151.31,-19.53 -300.773,-39.87 -459.468,-59.34 -68.852,-8.48 -188.902,-5.96 -218.77,-37.52 -34.675,-36.67 -18.75,-168.83 -18.75,-240.7 0,-188.3 0,-328.85 0,-515.7 0,-76.1 -12.347,-203.17 15.633,-240.7 29.508,-39.47 140.387,-37.72 215.664,-46.82 172.438,-20.9 301.501,-36.76 462.581,-56.27 68.85,-8.31 184.19,-11.49 212.51,-46.89 29.67,-36.96 17.22,-152.68 -25,-178.14 -28.02,-16.96 -92.2,-5.43 -134.39,0 -268.12,34.31 -530.939,63.65 -812.634,99.94 -44.543,5.8 -110.645,7.19 -131.274,28.16 -43.914,44.8 -21.859,241.29 -21.859,334.45 0,310.3 0,580.97 0,890.78 0,60.74 -4.305,132.37 18.746,159.4 33.016,38.71 169.195,38.15 240.664,46.89 88.918,10.86 175.285,21.46 253.145,31.26 176.382,22.19 347.002,48.32 512.592,62.49" /><path
         id="path24"
         style="fill:#000000;fill-opacity:1;fill-rule:evenodd;stroke:none"
         d="m 5562.35,4184.74 c 31.66,2.72 60.01,3.65 81.31,-12.52 32.85,-24.97 53.78,-132.93 18.71,-174.99 -29.74,-35.76 -157.05,-36.3 -218.78,-43.78 -151.11,-18.38 -305.64,-40.7 -462.58,-59.38 -70.8,-8.44 -186.94,-7.85 -215.66,-43.78 -27.05,-33.91 -15.63,-149.42 -15.63,-215.63 0,-165.18 0,-294.94 0,-462.58 0,-68.55 -12.08,-177.51 21.93,-209.43 27.35,-25.67 122.5,-15.63 178.13,-15.63 124.29,0 258.15,0 384.4,0 63.32,0 141.87,5.83 168.83,-21.86 48.45,-49.87 14.2,-169.56 -12.49,-187.54 -31.19,-20.97 -111.74,-9.34 -178.17,-9.34 -132.53,0 -252.15,0 -371.94,0 -70.51,0 -142.97,8.91 -171.91,-21.92 -25.34,-27.03 -18.78,-149.69 -18.78,-209.4 0,-182.32 0,-285.28 0,-456.32 0,-63.43 -14.9,-170.49 12.55,-212.55 23.88,-36.73 149.89,-41.96 215.63,-50.01 154.13,-18.81 298.42,-39.04 465.69,-59.38 75.91,-9.24 187.88,-6.99 218.78,-43.78 36.43,-43.25 12.05,-158.9 -21.86,-181.28 -27.06,-17.85 -96.37,-4.87 -137.5,0 -278.05,33.21 -554.19,67.66 -828.26,100.01 -47.06,5.6 -101.94,11.16 -121.91,31.3 -37.92,38.18 -21.86,198.14 -21.89,287.55 0,627.21 0.03,1220.51 0,1850.26 0,85.31 -17.09,245.23 21.89,284.48 34.97,35.2 180.42,36.06 243.78,43.75 88.19,10.69 175.85,21.82 253.15,31.26 178.13,21.56 342,47.89 512.58,62.49" /><g
         transform="scale(10)"
         id="g26"><text
           id="text38"
           style="font-variant:normal;font-weight:normal;font-size:23.5951004px;font-family:Square721Demi;-inkscape-font-specification:Square721Demi-Normal;writing-mode:lr-tb;fill:#000000;fill-opacity:1;fill-rule:nonzero;stroke:none"
           transform="matrix(0.999987,0,0,-1,979.764,20.757)"><tspan
             id="tspan28"
             y="0"
             x="0 6.2794137 14.58614 29.188902 40.985886 55.093502 69.016495 83.03231 96.171989 106.22401 114.53073 130.43527 140.48807 154.50291 162.99426 171.20242 179.50914 185.78856">- Exhaust Stuff - </tspan><tspan
             id="tspan30"
             y="-97.412903"
             x="-18.141199 -4.6908746 7.1071825 21.214703 35.137787 49.153606 62.293282 72.345207 80.651932 93.791702 103.84363 117.85847 126.34983">exhaust stuff</tspan><tspan
             id="tspan32"
             y="-69.098099"
             x="-40.169601 -25.566837 -9.2121019 8.9560938 25.68482 43.473129 59.377663 73.249924 81.555672 97.461281 111.33257 129.12088 142.85446">EXHAUST STUFF</tspan><tspan
             id="tspan34"
             y="-360.50009"
             x="-91.686302 -73.516182 -57.000393 -38.173084 -19.531281 -0.79665345 17.061935 31.832657 44.858189 62.717838 77.488464 96.22319 109.43336">exhaust stuff</tspan><tspan
             id="tspan36"
             y="-332.18561"
             x="-113.7135 -94.391922 -73.318382 -50.430405 -28.982859 -6.475729 14.148488 32.738594 45.76413 66.388443 84.978432 107.48556 125.93797">EXHAUST STUFF</tspan></text>
<text
           id="text42"
           style="font-variant:normal;font-weight:normal;font-size:23.5951004px;font-family:Square721Demi;-inkscape-font-specification:Square721Demi-Normal;writing-mode:lr-tb;fill:#000000;fill-opacity:1;fill-rule:nonzero;stroke:none"
           transform="matrix(1,0,0,-1,886.12,324.629)"><tspan
             id="tspan40"
             y="0"
             x="0 19.322311 35.838951 54.665222 73.306862 92.041229 109.90064 124.67117 137.69751 158.3206 173.09212 191.82649 205.03658">Exhaust Stuff</tspan></text>
<text
           id="text48"
           style="font-style:italic;font-variant:normal;font-size:23.5951004px;font-family:Square721Demi;-inkscape-font-specification:Square721Demi-Italic;writing-mode:lr-tb;fill:#000000;fill-opacity:1;fill-rule:nonzero;stroke:none"
           transform="matrix(0.999987,0,0,-1,898.246,275.257)"><tspan
             id="tspan44"
             y="0"
             x="0 17.908468 35.840343 54.504635 72.813438 91.571548 109.55129 126.18534 137.4404 155.41916 172.05417 190.81128 203.93063">exhaust stuff</tspan><tspan
             id="tspan46"
             y="28.3148"
             x="-22.9464 -2.2537096 19.571758 42.718552 64.897545 87.642914 108.47717 127.84854 139.10359 159.93794 179.30931 202.05469 221.02455">EXHAUST STUFF</tspan></text>
<text
           id="text52"
           style="font-style:italic;font-variant:normal;font-size:23.5951004px;font-family:Square721Demi;-inkscape-font-specification:Square721Demi-Italic;writing-mode:lr-tb;fill:#000000;fill-opacity:1;fill-rule:nonzero;stroke:none"
           transform="matrix(1,0,0,-1,895.425,218.629)"><tspan
             id="tspan50"
             y="0"
             x="0 20.692337 38.62492 57.287983 75.597519 94.355362 112.33483 128.96872 140.22357 161.05759 177.69234 196.45018 209.5683">Exhaust Stuff</tspan></text>
</g><path
         id="path54"
         style="fill:#000000;fill-opacity:1;fill-rule:nonzero;stroke:none"
         d="m 301.754,270.941 c 0,43.118 -4.766,69.848 -14.293,80.207 -4.078,4.211 -9.527,7.571 -16.313,10.071 -6.789,2.543 -14.257,4.293 -22.347,5.312 -8.09,1.028 -15.906,1.68 -23.446,1.957 -7.574,0.274 -15.285,0.621 -23.167,0.992 -22.176,-1.062 -39.657,-2.839 -52.442,-5.281 -12.785,-2.461 -22.312,-7.371 -28.551,-14.699 -6.547,-6.918 -10.695,-16.59 -12.441,-28.961 -1.781,-12.379 -2.676,-28.93 -2.676,-49.598 z M 407.836,204.039 H 106.078 c 0,-9.527 -0.547,-17.648 -1.609,-24.34 1.062,-22.988 3.429,-41.777 7.027,-56.277 3.598,-14.531 10.453,-24.7814 20.496,-30.7736 11.309,-5.4492 21.625,-8.8789 31.02,-10.3164 9.39,-1.4414 24.676,-2.1328 45.89,-2.1328 24.098,0 41.063,0.7891 50.934,2.4414 9.836,1.6407 18.508,5.5196 26.016,11.6485 10.589,8.5699 15.902,25.0629 15.902,49.4609 H 407.836 C 407.836,90.1797 394.16,52.0586 366.844,29.3711 351.453,17.1406 331.266,9.19141 306.242,5.51953 281.223,1.85156 248.766,0 208.902,0 183.063,0 159.855,1.10156 139.258,3.26172 118.625,5.44922 99.6016,9.94141 82.1211,16.7305 64.6406,23.5508 50.3164,33.3203 39.1758,46.1016 22.5859,65.8398 11.8945,91.2109 7.12891,122.219 2.36328,153.238 0,189.398 0,230.77 c 0,86.89 14.7734,145.121 44.2813,174.628 29.6484,28.961 82.2927,43.461 157.9067,43.461 80.234,-2.839 132.058,-14.839 155.468,-35.918 14.946,-12.921 26.016,-30.57 33.145,-52.921 7.164,-22.379 11.551,-44.04 13.16,-64.981 1.644,-20.937 2.914,-51.277 3.875,-91" /><path
         id="path56"
         style="fill:#000000;fill-opacity:1;fill-rule:nonzero;stroke:none"
         d="m 620.887,443.762 h 120.371 l 76.914,-140.364 75.301,140.364 H 1015.49 L 888.363,234.852 1030.36,5.10938 H 905.914 L 818.172,164.66 730.461,5.10938 H 604.16 L 749.621,234.852 620.887,443.762" /><path
         id="path58"
         style="fill:#000000;fill-opacity:1;fill-rule:nonzero;stroke:none"
         d="M 1351.31,251.582 V 5.10938 H 1245.23 V 631.891 h 106.08 V 377.059 h 2.47 c 7.75,21.492 19.13,37.531 34.07,48.121 14.98,10.621 30.68,17.199 47.13,19.808 16.45,2.571 35.64,3.871 57.54,3.871 52.75,0 90.9,-11.41 114.45,-34.269 24.06,-22.59 36.12,-61.559 36.12,-116.91 V 5.10938 H 1536.98 V 284.211 c 0,17.68 -1.13,32.078 -3.46,43.148 -2.3,11.102 -7.54,20.121 -15.74,27.039 -11.17,8.43 -31.77,13.473 -61.86,15.082 -39.38,0 -66.12,-8.359 -80.27,-25.089 -16.21,-15.493 -24.34,-46.442 -24.34,-92.809" /><path
         id="path60"
         style="fill:#000000;fill-opacity:1;fill-rule:nonzero;stroke:none"
         d="m 2014.84,182.988 c -8.98,-10.066 -13.47,-24.879 -13.47,-44.347 0,-18.403 3.35,-33.719 10,-45.9613 5.18,-8.1914 14.09,-13.7109 26.74,-16.5508 12.65,-2.8789 30.81,-4.2891 54.46,-4.2891 26.12,0 46.03,1.4415 59.78,4.3907 13.74,2.9101 24.43,9.4883 32.04,19.7109 7.2,11.8596 10.8,26.6996 10.8,44.5466 0,25.192 -8.84,41.821 -26.53,49.844 -17.65,8.047 -40.85,12.059 -69.54,12.059 -28.18,-1.371 -47.54,-2.84 -58.17,-4.493 -10.59,-1.636 -19.29,-6.609 -26.11,-14.91 z m 185.46,-124.5778 -3.26,1.6093 c -9.39,-25.5 -25.33,-41.8906 -47.85,-49.1211 C 2126.67,3.62891 2095.76,0 2056.48,0 c -62.04,0 -104.33,12.0313 -126.92,36.1289 -21.76,20.8008 -32.63,54.4609 -32.63,100.9731 0,50.347 12.51,85.687 37.53,106.109 24.47,20.668 66.32,31.019 125.48,31.019 21.63,0 40.14,-0.851 55.59,-2.57 15.43,-1.711 30.23,-6.238 44.39,-13.672 14.12,-7.41 24.54,-18.718 31.19,-33.968 h 4.08 v 66.941 c 0,28.141 -3.05,47.668 -9.19,58.539 -4.59,8.289 -12.27,14.98 -22.93,19.98 -10.69,5.04 -30.84,7.579 -60.49,7.579 -23.27,-1.239 -38.46,-2.329 -45.62,-3.289 -7.13,-0.93 -14.77,-4.629 -22.93,-11.008 -10.08,-9.524 -15.12,-25.364 -15.12,-47.532 h -105.25 c 0,53.461 15.01,89.899 45.07,109.372 25.7,16.168 67.28,24.257 124.66,24.257 h 14.08 c 82.98,0 137.85,-11.961 164.66,-35.918 25.02,-22.55 37.53,-61.589 37.53,-117.082 V 5.10938 h -104.47 l 5.11,53.30082" /><path
         id="path62"
         style="fill:#000000;fill-opacity:1;fill-rule:nonzero;stroke:none"
         d="m 2862.21,71.8398 h -3.26 C 2840.03,23.9609 2793.25,0 2718.56,0 2621.05,0 2572.28,41.0313 2572.28,123.051 v 320.711 h 106.08 V 156.949 c 0,-15.668 0.82,-28.277 2.47,-37.879 1.64,-9.601 5.58,-17.308 11.82,-23.1716 6.55,-5.7187 13.44,-9.7695 20.7,-12.1289 7.3,-2.3984 20.47,-3.5703 39.49,-3.5703 21.49,0 38.76,1.961 51.82,5.9024 13.06,3.9375 24.75,12.2695 35.1,24.9184 12.78,16.589 19.19,42.261 19.19,76.941 v 255.801 h 104.44 V 5.10938 H 2862.21 V 71.8398" /><path
         id="path64"
         style="fill:#000000;fill-opacity:1;fill-rule:nonzero;stroke:none"
         d="m 3607.75,323.59 h -104.47 c 0,22.449 -7.4,36.949 -22.24,43.558 -14.81,6.582 -35.85,9.911 -63.03,9.911 -34.28,0 -58.85,-3.09 -73.66,-9.188 -12.78,-9.391 -19.19,-25.84 -19.19,-49.391 0,-12.101 1.81,-21.73 5.41,-28.859 3.6,-7.133 12.68,-12.269 27.25,-15.391 23.37,-3.421 47.88,-5.101 73.45,-5.101 53.85,-0.688 94.32,-5.348 121.4,-13.988 27.04,-8.641 45.45,-22.45 55.18,-41.403 9.7,-18.988 14.91,-46.789 15.6,-83.359 0,-30.328 -6.14,-54.5274 -18.37,-72.629 C 3592.84,39.6602 3576.7,26.5313 3556.65,18.3711 3536.56,10.2188 3515.41,5.10938 3493.17,3.05078 3470.93,1.03125 3444.74,0 3414.54,0 h -5.72 c -38.63,0 -70.16,1.67969 -94.56,5.01172 -24.41,3.31641 -44.18,11.43748 -59.26,24.35938 -11.86,12.2773 -20.81,26.8086 -26.84,43.668 -6.07,16.8593 -9.08,39.9299 -9.08,69.1719 h 106.08 c 0,-32.633 7.57,-53.2305 22.65,-61.8008 8.84,-4.4883 26.94,-7.9219 54.26,-10.211 5.59,1.2305 12.54,1.8125 20.84,1.8125 h 8.36 c 7.88,0 13.2,-0.582 15.9,-1.8125 24.34,1.2305 42.4,5.4492 54.16,12.6406 11.79,7.1993 17.65,22.5192 17.65,45.8982 0,24.371 -8.06,40.344 -24.16,47.953 -16.11,7.61 -38.94,11.957 -68.45,13.059 -52.1,1.09 -90.93,3.18 -116.5,6.34 -25.57,3.121 -45.59,10.789 -59.98,23.031 -20.53,17.957 -30.81,50.008 -30.81,96.109 v 13.258 c 0,30.203 5.48,53.782 16.41,70.813 10.97,17 27.8,29.367 50.49,37.121 26.12,8.297 70.13,12.437 132.03,12.437 34.96,0 63.13,-1.269 84.55,-3.769 21.42,-2.531 40.03,-8.809 55.8,-18.879 32.9,-20.531 49.39,-54.742 49.39,-102.621" /><path
         id="path66"
         style="fill:#000000;fill-opacity:1;fill-rule:nonzero;stroke:none"
         d="m 3869.95,137.102 v 225.66 h -54.29 v 81 h 54.29 v 100.386 h 105.26 V 443.762 h 168.94 v -81 H 3975.21 V 135.32 c 0,-15.121 1.13,-26.531 3.39,-34.211 2.23,-7.6793 6.55,-13.0895 12.96,-16.2106 6.37,-3.1484 16.24,-4.6992 29.58,-4.6992 35.06,0 52.61,21.6988 52.61,65.1328 v 27.547 h 92.85 c 0,-64.02 -8.64,-107.9571 -25.91,-131.8907 C 4119.88,13.6797 4080.02,0 4021.14,0 c -27.63,0 -52,1.92188 -73.15,5.73047 -21.14,3.80078 -37.46,11.67973 -48.87,23.64063 -19.47,19.4687 -29.17,55.3594 -29.17,107.7309" /><path
         id="path68"
         style="fill:#000000;fill-opacity:1;fill-rule:nonzero;stroke:none"
         d="m 5224.76,323.59 h -104.47 c 0,22.449 -7.4,36.949 -22.24,43.558 -14.81,6.582 -35.85,9.911 -63.03,9.911 -34.28,0 -58.85,-3.09 -73.66,-9.188 -12.79,-9.391 -19.19,-25.84 -19.19,-49.391 0,-12.101 1.81,-21.73 5.41,-28.859 3.6,-7.133 12.68,-12.269 27.25,-15.391 23.37,-3.421 47.88,-5.101 73.45,-5.101 53.85,-0.688 94.32,-5.348 121.4,-13.988 27.04,-8.641 45.45,-22.45 55.18,-41.403 9.7,-18.988 14.91,-46.789 15.6,-83.359 0,-30.328 -6.14,-54.5274 -18.37,-72.629 C 5209.85,39.6602 5193.71,26.5313 5173.66,18.3711 5153.57,10.2188 5132.42,5.10938 5110.18,3.05078 5087.94,1.03125 5061.75,0 5031.55,0 h -5.72 c -38.63,0 -70.16,1.67969 -94.56,5.01172 -24.41,3.31641 -44.18,11.43748 -59.26,24.35938 -11.86,12.2773 -20.81,26.8086 -26.84,43.668 -6.07,16.8593 -9.08,39.9299 -9.08,69.1719 h 106.08 c 0,-32.633 7.57,-53.2305 22.65,-61.8008 8.84,-4.4883 26.94,-7.9219 54.26,-10.211 5.58,1.2305 12.54,1.8125 20.84,1.8125 h 8.36 c 7.88,0 13.2,-0.582 15.9,-1.8125 24.34,1.2305 42.4,5.4492 54.16,12.6406 11.79,7.1993 17.65,22.5192 17.65,45.8982 0,24.371 -8.06,40.344 -24.16,47.953 -16.11,7.61 -38.94,11.957 -68.45,13.059 -52.1,1.09 -90.93,3.18 -116.5,6.34 -25.57,3.121 -45.59,10.789 -59.98,23.031 -20.53,17.957 -30.81,50.008 -30.81,96.109 v 13.258 c 0,30.203 5.48,53.782 16.41,70.813 10.97,17 27.8,29.367 50.49,37.121 26.12,8.297 70.13,12.437 132.03,12.437 34.96,0 63.13,-1.269 84.55,-3.769 21.42,-2.531 40.03,-8.809 55.8,-18.879 32.9,-20.531 49.39,-54.742 49.39,-102.621" /><path
         id="path70"
         style="fill:#000000;fill-opacity:1;fill-rule:nonzero;stroke:none"
         d="m 5486.96,137.102 v 225.66 h -54.29 v 81 h 54.29 v 100.386 h 105.26 V 443.762 h 168.94 v -81 H 5592.22 V 135.32 c 0,-15.121 1.13,-26.531 3.39,-34.211 2.23,-7.6793 6.55,-13.0895 12.96,-16.2106 6.37,-3.1484 16.24,-4.6992 29.58,-4.6992 35.06,0 52.61,21.6988 52.61,65.1328 v 27.547 h 92.85 c 0,-64.02 -8.64,-107.9571 -25.91,-131.8907 C 5736.89,13.6797 5697.03,0 5638.15,0 c -27.63,0 -52,1.92188 -73.15,5.73047 -21.14,3.80078 -37.46,11.67973 -48.87,23.64063 -19.47,19.4687 -29.17,55.3594 -29.17,107.7309" /><path
         id="path72"
         style="fill:#000000;fill-opacity:1;fill-rule:nonzero;stroke:none"
         d="m 6298.38,71.8398 h -3.26 C 6276.2,23.9609 6229.42,0 6154.73,0 6057.22,0 6008.45,41.0313 6008.45,123.051 v 320.711 h 106.08 V 156.949 c 0,-15.668 0.82,-28.277 2.47,-37.879 1.64,-9.601 5.58,-17.308 11.82,-23.1716 6.55,-5.7187 13.44,-9.7695 20.7,-12.1289 7.3,-2.3984 20.47,-3.5703 39.49,-3.5703 21.49,0 38.76,1.961 51.82,5.9024 13.06,3.9375 24.75,12.2695 35.1,24.9184 12.78,16.589 19.19,42.261 19.19,76.941 v 255.801 h 104.44 V 5.10938 H 6298.38 V 71.8398" /><path
         id="path74"
         style="fill:#000000;fill-opacity:1;fill-rule:nonzero;stroke:none"
         d="m 6903.33,631.891 v -80.2 h -30.78 c -27.35,0 -45.45,-3.05 -54.29,-9.191 -7.47,-4.629 -12.58,-11.719 -15.29,-21.32 -2.74,-9.602 -4.08,-22.828 -4.08,-39.692 v -37.726 h 107.93 v -81 H 6798.89 V 5.10938 H 6694.42 V 362.762 h -61.83 v 81 h 61.83 v 42.629 c 0,57.961 11.42,97.269 34.28,117.937 19.84,18.371 55.28,27.563 106.28,27.563 h 68.35" /><path
         id="path76"
         style="fill:#000000;fill-opacity:1;fill-rule:nonzero;stroke:none"
         d="m 7371.21,631.891 v -80.2 h -30.78 c -27.35,0 -45.45,-3.05 -54.29,-9.191 -7.47,-4.629 -12.58,-11.719 -15.29,-21.32 -2.74,-9.602 -4.07,-22.828 -4.07,-39.692 v -37.726 h 107.93 v -81 H 7266.78 V 5.10938 H 7162.31 V 362.762 h -61.84 v 81 h 61.84 v 42.629 c 0,57.961 11.41,97.269 34.27,117.937 19.85,18.371 55.29,27.563 106.29,27.563 h 68.34" /></g></g></svg>