<?xml version="1.0" encoding="UTF-8" standalone="no"?>
<svg
   xmlns:dc="http://purl.org/dc/elements/1.1/"
   xmlns:cc="http://creativecommons.org/ns#"
   xmlns:rdf="http://www.w3.org/1999/02/22-rdf-syntax-ns#"
   xmlns:svg="http://www.w3.org/2000/svg"
   xmlns="http://www.w3.org/2000/svg"
   xmlns:sodipodi="http://sodipodi.sourceforge.net/DTD/sodipodi-0.dtd"
   xmlns:inkscape="http://www.inkscape.org/namespaces/inkscape"
   viewBox="0 0 234.3311 90.979065"
   height="90.979065"
   width="234.3311"
   xml:space="preserve"
   id="svg2"
   version="1.1"
   sodipodi:docname="Mechanix_Wear2.svg"
   inkscape:version="0.92.2 (30a58d1, 2017-08-07)"><sodipodi:namedview
     pagecolor="#ffffff"
     bordercolor="#666666"
     borderopacity="1"
     objecttolerance="10"
     gridtolerance="10"
     guidetolerance="10"
     inkscape:pageopacity="0"
     inkscape:pageshadow="2"
     inkscape:window-width="1247"
     inkscape:window-height="651"
     id="namedview27"
     showgrid="false"
     fit-margin-top="0"
     fit-margin-left="0"
     fit-margin-right="0"
     fit-margin-bottom="0"
     inkscape:zoom="0.91237117"
     inkscape:cx="-68.679245"
     inkscape:cy="45.563065"
     inkscape:window-x="1254"
     inkscape:window-y="216"
     inkscape:window-maximized="0"
     inkscape:current-layer="svg2" /><metadata
     id="metadata8"><rdf:RDF><cc:Work
         rdf:about=""><dc:format>image/svg+xml</dc:format><dc:type
           rdf:resource="http://purl.org/dc/dcmitype/StillImage" /><dc:title></dc:title></cc:Work></rdf:RDF></metadata><defs
     id="defs6" /><g
     transform="matrix(1.3333333,0,0,-1.3333333,-11.684893,174.74933)"
     id="g10"><g
       transform="scale(0.1)"
       id="g12"><path
         id="path14"
         style="fill:#ffffff;fill-opacity:1;fill-rule:evenodd;stroke:none"
         d="M 87.6367,1310.62 H 1845.12 V 628.277 H 87.6367 v 682.343"
         inkscape:connector-curvature="0"
         sodipodi:nodetypes="ccccc" /><path
         id="path16"
         style="fill:#231f20;fill-opacity:1;fill-rule:evenodd;stroke:none"
         d="M 87.6367,1310.62 H 1845.12 V 628.277 H 87.6367 v 682.343"
         inkscape:connector-curvature="0" /><path
         id="path18"
         style="fill:#fff200;fill-opacity:1;fill-rule:evenodd;stroke:none"
         d="m 1784.81,1254.05 h -438.16 c 0,0 -406.998,-257.234 -409.521,-258.835 -1.156,2.75 -108.801,258.645 -108.801,258.645 H 401.629 l -22.672,-46.6 h 95.504 c 0.133,0 6.707,0.33 9.336,-3.78 0.75,-1.15 1.113,-2.59 1.113,-4.3 0,-3.16 -1.269,-7.21 -3.785,-11.98 0,0 -139.531,-251.493 -139.863,-252.087 C 327.5,911.898 308.453,911.969 308.266,911.969 H 201.289 l -21.875,-43.582 h 401.621 l 24.891,43.57 H 490.391 c -0.231,-0.008 -3.618,-0.203 -5.289,2.453 -0.567,0.922 -0.989,2.223 -0.989,4.07 0,3.747 1.68,9.739 7.141,19.325 0.008,0.011 120.195,215.335 133.434,239.045 2.035,-4.59 136.976,-308.463 136.976,-308.463 h 156.149 c 0,0 472.197,296.273 480.147,301.243 -4.31,-8.13 -126.7,-238.669 -126.7,-238.669 -12.64,-20.027 -28.3,-19.043 -28.96,-18.992 h -110.76 l -25.08,-43.539 h 485.15 l 24.35,43.539 h -113.44 c -10.98,0 -17.88,2.269 -19.94,6.554 -2.79,5.829 3.63,13.961 3.7,14.043 0.12,0.184 129.06,237.074 129.06,237.074 17.74,36.59 40.53,35.35 40.77,35.32 h 102.78 l 28.13,49.09 h -2.21"
         inkscape:connector-curvature="0" /><path
         id="path20"
         style="fill:#fff200;fill-opacity:1;fill-rule:evenodd;stroke:none"
         d="m 314.648,702.664 v 98.188 c 0.004,4.398 0.508,6.761 1.594,7.671 0.785,0.657 2.18,0.766 4.395,0.356 0.054,-0.008 8.773,-1.5 8.773,-1.5 l 0.067,1.5 v 14.527 l -42.414,8.313 -17.321,3.437 -0.304,-1.148 c -6.344,-23.52 -11.93,-46.789 -17.848,-71.43 0,0 -7.668,-31.551 -9.395,-38.648 -9.769,40.582 -18.933,81.074 -28.218,122.418 l -0.168,0.793 -0.793,0.168 c -15.993,3.488 -33.313,7.496 -56.168,12.976 l -1.575,0.379 v -1.617 -17.848 l 8.301,-1.797 c 4.848,-1.074 6.461,-3.109 6.496,-13.082 V 708.371 c -0.019,-5.789 -0.582,-8.703 -1.945,-10.055 -0.84,-0.824 -2.156,-1.175 -4.27,-1.175 0.012,0 -5.96,0.183 -5.96,0.183 l -4.129,0.106 v -19.438 l 54.828,-0.336 v 18.278 l -10.055,0.265 c -4.41,0.207 -6.226,1.293 -6.25,11.313 0,0 0,84.812 0,101.48 8.793,-39.734 18.176,-80.453 30.082,-130.445 l 0.234,-0.981 29.18,-0.164 0.238,0.973 c 10.872,43.988 21.207,83.066 30.086,116.176 0,-13.817 0,-90.774 0,-90.774 -0.007,-4.562 -0.238,-7.281 -1.421,-8.445 -0.797,-0.777 -2.27,-1.129 -4.786,-1.098 0.012,0 -3.933,0.106 -3.933,0.106 l -6.156,0.144 v -1.304 -15.86 l 65.132,-0.34 v 15.985 l -10.043,0.226 c -4.824,0.196 -6.234,1.465 -6.254,9.473"
         inkscape:connector-curvature="0" /><path
         id="path22"
         style="fill:#fff200;fill-opacity:1;fill-rule:evenodd;stroke:none"
         d="m 431.508,713.105 0.004,-1.339 v -5.461 c -0.004,-6.278 -0.598,-9.399 -2.02,-10.801 -1.043,-1.043 -2.738,-1.422 -6.25,-1.383 0,0 -36.082,0.852 -38.269,0.91 0,2.274 0,40.883 0,43.41 2.175,-0.175 10.898,-0.878 10.898,-0.878 l 6.258,-0.493 c 5.777,-0.511 6.316,-1.285 6.336,-9.175 v -6.012 l 22.23,-1.309 -0.011,1.348 v 43.476 l -22.239,2.489 0.02,-1.434 v -4.211 c -0.012,-3.457 -0.211,-5.945 -1.133,-6.801 -0.621,-0.562 -1.906,-0.707 -4.426,-0.492 0,0 -17.754,1.77 -17.933,1.781 0,2.086 0,36.606 0,39.274 2.5,-0.379 38.07,-5.656 38.07,-5.656 4.629,-0.727 6.582,-2.446 6.602,-11.2 v -7.976 l 25.035,-2.926 0.004,34.711 -1.086,0.168 c -41.543,6.359 -78.391,12.629 -115.95,19.707 l -1.515,0.297 v -1.547 -14.48 l 9.121,-1.575 0.769,-0.101 c 4.868,-0.922 6.391,-2.438 6.411,-10.117 v -93.883 c -0.012,-4.184 -0.481,-6.422 -1.586,-7.52 -0.836,-0.816 -2.254,-1.183 -4.629,-1.164 0.019,0 -1.465,0.031 -1.465,0.031 l -8.606,0.192 -0.015,-1.297 V 676.98 l 120.422,-0.55 v 35.55 l -6.688,0.309 -18.359,0.816"
         inkscape:connector-curvature="0" /><path
         id="path24"
         style="fill:#fff200;fill-opacity:1;fill-rule:evenodd;stroke:none"
         d="m 538.367,707.902 c -0.019,-7.418 -1.179,-11.722 -3.867,-14.382 -2.773,-2.731 -7.426,-3.918 -15.098,-3.844 -20.429,0.652 -29.203,14.84 -29.285,47.418 0.051,20.023 3.293,32.226 10.219,38.422 4.512,4.043 10.695,5.586 18.926,4.707 12.301,-1.637 17.355,-7.067 17.394,-18.739 v -4.785 l 25.805,-2.312 -0.016,1.39 v 28.426 l -0.765,0.344 c -13.66,6.094 -28.219,10.344 -42.117,12.297 -21.52,2.711 -37.04,-0.418 -47.458,-9.555 -10.66,-9.355 -15.894,-25.008 -16.003,-47.805 0.214,-44.929 20.32,-66.05 63.277,-66.472 16.41,0.031 32.957,2.508 44.297,6.64 l 0.836,0.305 v 3.047 c 0,9.66 -0.012,18.789 0.761,28.269 l 0.098,1.332 -27.004,1.098 v -5.801"
         inkscape:connector-curvature="0" /><path
         id="path26"
         style="fill:#fff200;fill-opacity:1;fill-rule:evenodd;stroke:none"
         d="m 690.582,762.434 c 0.785,0.718 2.391,0.941 5.031,0.699 0.051,-0.012 6.375,-0.461 6.375,-0.461 l 3.821,-0.297 v 1.379 10.137 l -1.172,0.093 c -18.535,1.442 -38.414,3.2 -62.571,5.532 l -1.39,0.132 v -12.039 l 6.715,-0.558 3.265,-0.321 c 5.18,-0.5 6.305,-1.656 6.317,-6.546 0,0 0,-22.204 0,-24.625 -2.383,0.132 -38.028,2.207 -40.164,2.32 0,2.207 0,25.867 0,25.867 0.007,2.504 0.16,4.215 0.906,4.899 0.695,0.632 2.312,0.828 5.219,0.593 0.015,0 10.152,-0.941 10.152,-0.941 l 0.023,1.391 v 10.699 l -65.125,7.148 -0.011,-1.422 v -11.32 l 6.84,-0.707 3.105,-0.359 c 5.266,-0.672 6.348,-1.891 6.359,-7.231 v -71.543 c 0,-2.754 -0.375,-4.348 -1.195,-5.176 -0.812,-0.8 -2.359,-1.156 -5.023,-1.144 0.015,0 -2.309,0.039 -2.309,0.039 l -7.777,0.094 v -1.278 -11.468 l 65.136,-0.184 v 12.098 l -10.07,0.113 c -5.996,0.133 -6.211,1.219 -6.23,6.301 0,0 0,25.203 0,27.629 2.418,-0.106 38.105,-1.743 40.164,-1.836 0,-2.227 0,-26.59 0,-26.59 -0.012,-4.836 -1.059,-5.821 -6.223,-5.832 l -10.082,0.125 0.008,-1.297 v -10.742 l 65.133,-0.153 v 11.504 l -10.071,0.094 c -5.175,0.133 -6.222,1.105 -6.23,5.797 v 64.91 c 0,2.414 0.344,3.805 1.074,4.477"
         inkscape:connector-curvature="0" /><path
         id="path28"
         style="fill:#fff200;fill-opacity:1;fill-rule:evenodd;stroke:none"
         d="m 837.152,686.246 c -2.609,0.012 -4.23,1.004 -5.461,3.297 l -38.347,78.703 -0.766,0.039 -19.211,1.094 -13.07,0.809 -0.367,-0.747 c -13.563,-26.449 -26.047,-52.277 -38.188,-78.968 -0.148,-0.196 -0.668,-0.86 -0.668,-0.86 -1.176,-1.566 -1.886,-2.508 -4.078,-2.527 l -6.883,0.062 v -1.289 -10.207 l 50.543,-0.093 v 11.171 l -3.613,0.008 -7.043,0.063 c -3.437,0.031 -5.262,0.551 -5.27,1.504 0,0.828 0.387,1.574 1.04,2.812 l 0.296,0.582 c 0.036,0.071 4.051,9.266 4.575,10.453 1.57,-0.031 40.648,-0.734 42.172,-0.777 0.464,-1.062 1.898,-4.387 1.898,-4.387 l 2.477,-5.707 c 0.804,-1.656 1.179,-2.547 1.179,-3.633 -0.004,-1.031 -3.051,-1.152 -3.976,-1.152 l -11.547,0.059 V 675.52 l 59.504,-0.082 v 10.789 h -1.965 z m -49.929,28.336 c -3.321,0.09 -27.551,0.703 -30.766,0.773 1.336,2.946 9.121,20.118 9.121,20.118 0,0 5.164,11.336 6.594,14.465 1.344,-3.18 6.676,-15.743 6.676,-15.743 0,0 7.058,-16.535 8.375,-19.613"
         inkscape:connector-curvature="0" /><path
         id="path30"
         style="fill:#fff200;fill-opacity:1;fill-rule:evenodd;stroke:none"
         d="m 928.535,762.352 v -9.286 l 11.41,-0.121 c 5.43,-0.023 6.207,-1.082 6.219,-4.968 0,-0.012 0,-36.239 0,-41.926 -16.101,21.652 -29.629,39.582 -43.449,57.621 l -0.383,0.484 -0.613,0.008 c -16.235,0.215 -33.531,0.75 -54.485,1.699 l -1.332,0.051 v -1.332 -9.449 l 5.817,-0.184 4.168,-0.164 c 5.527,-0.183 6.308,-1.301 6.316,-5.269 v -58.36 c -0.008,-3.945 -0.742,-4.937 -6.23,-4.98 l -10.071,0.043 v -10.77 l 55.961,-0.051 v 10.614 l -11.211,0.043 c -5.484,0.082 -6.214,1.07 -6.222,5 0,0 0,45.402 0,51.129 17.527,-22.508 34.164,-43.418 52.441,-66.329 l 0.387,-0.48 h 31.117 v 72.488 c 0,3.918 0,4.848 6.238,4.867 l 9.133,-0.019 0.016,10.523 -55.219,0.407 -0.008,-1.289"
         inkscape:connector-curvature="0" /><path
         id="path32"
         style="fill:#fff200;fill-opacity:1;fill-rule:evenodd;stroke:none"
         d="m 1045.12,763.805 -56.866,-0.571 -0.02,-1.265 v -9.258 l 10.11,0.039 c 5.476,-0.039 6.206,-1.012 6.226,-4.848 v -57.105 c -0.02,-3.856 -0.75,-4.824 -6.238,-4.887 0.012,0 -4.398,0 -4.398,0 h -5.7 v -10.535 l 65.146,0.012 v 10.605 l -10.1,-0.019 c -5.46,0.058 -6.19,1.031 -6.21,4.886 v 57.309 c 0.02,3.887 0.83,5 6.23,5.012 0.06,0 8.46,0.164 8.46,0.164 h 1.62 v 10.605 l -1.3,-0.019 -6.96,-0.125"
         inkscape:connector-curvature="0" /><path
         id="path34"
         style="fill:#fff200;fill-opacity:1;fill-rule:evenodd;stroke:none"
         d="m 1169.84,689.625 c -0.03,0.039 -26.54,28.613 -31.31,33.75 5.15,5.523 9.9,11.047 14.44,16.367 l 12.72,14.543 c 2.14,2.238 4.16,3.024 8.28,3.199 0.03,0 0.46,0.032 0.46,0.032 l 6.69,0.339 0.06,1.215 v 9.832 l -1.34,-0.074 -18.61,-0.961 -30.54,-1.496 -0.01,-1.215 v -9.593 l 5.57,0.214 c 3.53,0.176 4.35,-0.418 4.47,-0.543 l 0.05,-0.121 c 0,-0.39 -0.64,-1.308 -1.1,-1.984 l -0.54,-0.797 c 0.07,0.109 -6,-7.363 -6,-7.363 0,0 -6.06,-7.438 -7.58,-9.309 -4.12,5.207 -8.61,10.176 -12.92,14.778 -1.14,1.312 -2.27,2.597 -2.27,3.089 0,0.399 0.01,1.27 3.46,1.422 -0.04,0 2.96,0.102 2.96,0.102 l 4.22,0.144 0.04,1.235 v 9.547 l -5.99,-0.219 c -18.75,-0.684 -36.45,-1.34 -54.91,-1.664 l -1.26,-0.02 v -10.609 l 7.1,0.144 c 4.84,0.153 5.66,-0.379 8.77,-2.933 0,-0.024 13.75,-14.406 13.75,-14.406 0,0 11.6,-12.149 13.04,-13.641 -1.44,-1.574 -17.18,-18.961 -17.18,-18.961 l -12.4,-13.543 c -3.08,-3.102 -4.68,-4.031 -9.38,-4.113 0.02,0 -2.69,-0.012 -2.69,-0.012 l -3.99,-0.008 v -10.594 l 49.78,0.032 v 10.726 l -6.16,-0.019 c -3.2,0 -4.34,0.449 -4.35,0.847 0.01,0.809 0.58,1.485 1.22,2.262 l 0.58,0.715 8.9,10.68 c 0,0 6.97,8.394 8.63,10.386 5.51,-6.972 10.73,-13.57 17.05,-20.605 0.23,-0.34 1.07,-1.567 1.07,-1.567 0.41,-0.507 0.86,-1.093 0.86,-1.398 0,-0.719 -1.7,-1.168 -4.55,-1.187 0.01,0 -2.29,-0.012 -2.29,-0.012 l -3.65,-0.02 -0.01,-1.258 v -9.531 l 60.64,0.071 v 11.066 l -5.41,-0.031 c -4.87,-0.02 -6.2,0.468 -8.37,3.07"
         inkscape:connector-curvature="0" /><path
         id="path36"
         style="fill:#fff200;fill-opacity:1;fill-rule:evenodd;stroke:none"
         d="m 1393.74,788.527 -1.43,-0.175 -47.02,-5.348 -0.01,-1.137 v -11.199 l 9.31,0.922 c 5.41,0.551 7.02,-0.074 7.5,-0.492 0.14,-0.129 0.22,-0.274 0.22,-0.602 0,-1.023 -0.38,-3.203 -1.23,-5.758 -0.03,-0.062 -0.68,-2.465 -0.68,-2.465 -5.29,-19.554 -10.37,-38.089 -16.31,-56.972 -1.64,5.344 -7.98,26.019 -7.98,26.019 l -15.29,49.176 -1.02,-0.109 -10.74,-1.043 -17.06,-1.606 -0.27,-0.828 c 0,0 -21.73,-67.515 -23.68,-73.551 -1.77,5.922 -16.23,53.879 -16.23,53.879 -0.46,0.895 -0.54,1.547 -0.54,2.16 0,0.192 0.01,0.391 0.01,0.586 l 0.03,0.661 c 0,1.156 0.26,1.953 3.73,2.324 l 12.97,0.98 -0.04,1.18 v 10.469 l -58.56,-4.457 -0.02,-1.176 v -10.074 l 5.03,0.324 c 2.53,0.094 3.05,-0.531 3.84,-3.098 5.93,-15.996 11.21,-31.387 16.8,-47.715 l 12.02,-34.629 h 0.91 l 30.13,0.051 16.23,48.52 c 0,0 5.64,17.113 7.2,21.867 1.6,-4.992 8.2,-25.59 8.2,-25.59 l 14.1,-44.707 0.95,-0.012 30.9,0.051 3.45,10.57 c 8.78,26.887 17.85,54.696 26.07,83.879 1.68,5.028 2.43,5.614 4.93,5.891 0.13,0.008 1.14,0.121 1.14,0.121 l 2.56,0.297 -0.12,1.117 v 11.699"
         inkscape:connector-curvature="0" /><path
         id="path38"
         style="fill:#fff200;fill-opacity:1;fill-rule:evenodd;stroke:none"
         d="m 1491.79,705.141 c -0.02,-11.325 -1.89,-11.899 -8.34,-12.102 -0.01,0 -35.93,-0.703 -38.21,-0.746 0,2.352 0,34.773 0,36.941 1.78,0.125 17.35,1.125 17.35,1.125 2.61,0.207 4.04,-0.007 4.8,-0.722 0.93,-0.871 1.33,-2.793 1.33,-6.465 v -5.727 l 22.23,1.157 v 43.078 l -22.23,-2.211 v -4.992 c 0,-6.707 -0.67,-7.168 -5.79,-7.731 0.05,0 -15.14,-1.195 -15.14,-1.195 0,0 -1.4,-0.125 -2.55,-0.227 0,2.489 0,31.348 0,33.371 1.99,0.262 38.42,4.789 38.42,4.789 2.19,0.309 3.61,0.09 4.46,-0.644 1.23,-1.063 1.78,-3.527 1.79,-7.977 v -7.988 l 25.04,2.832 -0.01,35.184 -1.46,-0.223 C 1477.3,799 1440.47,793.93 1397.52,788.68 l -1.12,-0.133 v -12.848 l 10.17,1.117 c 2.61,0.309 4.11,0.133 4.9,-0.574 0.85,-0.758 1.22,-2.41 1.23,-5.367 v -74.934 c -0.01,-5.589 -1.06,-6.757 -6.26,-6.914 0.02,0 -4.37,-0.058 -4.37,-0.058 l -5.66,-0.082 -0.01,-1.258 v -11.57 l 120.42,0.441 v 36.199 l -25.03,-1.086 v -6.472"
         inkscape:connector-curvature="0" /><path
         id="path40"
         style="fill:#fff200;fill-opacity:1;fill-rule:evenodd;stroke:none"
         d="m 1642.9,698.992 c -13.1,41.547 -25.47,80.781 -38.06,119.422 l -0.32,1.055 -1.11,-0.196 -9.28,-1.668 -22.95,-3.98 -0.25,-0.758 c -12.18,-40.449 -24.31,-77.656 -38.2,-117.086 -0.77,-2.508 -2.89,-4.664 -4.67,-4.777 l -2.39,-0.039 -4.44,-0.082 0.01,-1.25 V 676.5 l 50.51,0.215 v 15.137 l -3.87,-0.082 -6.8,-0.129 c -2.46,-0.043 -4,0.273 -4.73,0.98 -0.22,0.215 -0.53,0.613 -0.54,1.461 0.01,1.363 0.44,2.539 1.09,4.309 l 0.34,0.961 c 0.03,0.05 3.34,11.035 3.34,11.035 0,0 0.96,3.191 1.32,4.386 1.61,0.094 39.9,2.118 41.87,2.231 0.66,-3.684 1.79,-7.301 2.93,-10.813 l 1.53,-4.816 c 0.87,-2.668 1.26,-4.172 1.26,-6.094 -0.01,-1.211 -1.29,-2.59 -4.03,-2.73 0.03,0 -5.15,-0.102 -5.15,-0.102 l -6.38,-0.136 v -15.477 l 59.52,0.289 v 16.488 l -5.24,-0.113 c -2.41,-0.039 -3.65,0.469 -5.31,5.492 z m -44.28,36.481 c -2.55,-0.184 -28.32,-2.067 -31.29,-2.289 0.79,2.648 3.34,11.207 3.34,11.207 0,0 11.11,37.804 12.67,43.156 0.34,-1.067 0.69,-2.211 0.69,-2.211 5.23,-16.754 10.16,-32.656 14.59,-49.863"
         inkscape:connector-curvature="0" /><path
         id="path42"
         style="fill:#fff200;fill-opacity:1;fill-rule:evenodd;stroke:none"
         d="m 1781.19,696.742 c -2.46,-0.062 -4.14,0.348 -6.67,6.668 0,0.031 -7.89,25.254 -7.89,25.254 l -4.64,14.668 c -4,13.223 -8.33,19.688 -21.03,20.27 16.38,5.195 27.66,22.378 27.84,43.664 -0.1,19.156 -6.77,32.32 -18.3,36.144 -6.14,1.883 -11.13,2.332 -22.96,-0.183 -20.47,-4.379 -41.68,-8.715 -68.75,-14.063 l -1.04,-0.207 V 812.41 l 10.35,1.84 c 2.15,0.379 3.54,0.254 4.32,-0.398 1.13,-0.954 1.62,-3.407 1.63,-8.008 V 703.777 c -0.01,-8.312 -1.5,-9.707 -6.27,-9.89 0.02,0 -8.77,-0.192 -8.77,-0.192 l -1.24,-0.043 -0.02,-1.234 v -15.293 l 65.14,0.359 v 17.735 l -10.11,-0.246 c -2.2,-0.02 -3.58,0.336 -4.42,1.164 -1.23,1.218 -1.76,3.859 -1.77,8.797 0,0 0,40.168 0,42.375 1.26,0.101 3.17,0.277 3.17,0.277 l 1.12,0.121 c 12.37,1.066 16.1,-6.871 21.16,-19.941 4.73,-12.379 11.14,-30.922 12.09,-48.946 l 0.08,-1.203 40.9,0.242 v 18.985 z m -46.42,102.992 c -0.13,-18.355 -7.89,-28.707 -23.06,-30.75 l -1.18,-0.144 c 0,0 -2.42,-0.281 -3.94,-0.461 0,2.648 0,46.363 0,48.336 1.16,0.215 2.89,0.535 2.89,0.535 l 4.46,0.816 c 6.67,1.176 11.8,0.297 15.26,-2.589 3.65,-3.039 5.52,-8.336 5.57,-15.743"
         inkscape:connector-curvature="0" /><path
         id="path44"
         style="fill:#fff200;fill-opacity:1;fill-rule:evenodd;stroke:none"
         d="m 242.621,1033.81 c 0,53.34 74.973,103.66 211.102,141.72 l 0.547,0.15 10.3,21.38 h -2.031 -82.363 l -0.168,-0.05 c -152.149,-43.67 -235.934,-101.62 -235.934,-163.2 0,-39.06 34.594,-77.615 100.028,-111.501 l 0.273,-0.141 h 61.309 c 0.539,0.016 12.429,0.539 22.507,15.41 l 0.801,1.188 -1.269,0.652 c -55.672,28.957 -85.102,61.592 -85.102,94.392"
         inkscape:connector-curvature="0" /><path
         id="path46"
         style="fill:#fff200;fill-opacity:1;fill-rule:evenodd;stroke:none"
         d="m 1629.01,1172.03 -1.1,0.44 -0.5,-1.07 -2.71,-5.81 c -0.16,-0.37 -18.72,-34.46 -18.72,-34.46 l -0.61,-1.15 1.15,-0.59 c 57.16,-29.25 87.35,-62.3 87.35,-95.58 0,-38.802 -40.31,-76.572 -116.56,-109.201 l 0.5,-2.441 c 0,0 51.51,0 55.53,0 -1.86,-3.336 -17.62,-31.523 -17.62,-31.523 l 3.23,1.183 c 111.53,40.891 170.47,89.985 170.47,141.982 0,50.3 -55.46,98.1 -160.41,138.22"
         inkscape:connector-curvature="0" /><path
         id="path48"
         style="fill:#fff200;fill-opacity:1;fill-rule:evenodd;stroke:none"
         d="m 855.348,1229.22 c 38.086,1.69 76.492,2.55 114.175,2.55 102.537,0 201.667,-5.88 294.657,-17.45 l 0.45,-0.05 52.65,33.28 -7.32,0.93 c -107.67,13.93 -222.71,20.98 -341.937,20.98 -41.593,0 -83.941,-0.93 -125.875,-2.75 l -6.566,-0.27 16.746,-37.36 3.02,0.14"
         inkscape:connector-curvature="0" /><path
         id="path50"
         style="fill:#fff200;fill-opacity:1;fill-rule:evenodd;stroke:none"
         d="m 1496.52,858.23 h -195.54 c -102,-14.636 -216.55,-22.359 -331.457,-22.359 -114.703,0 -229.152,7.723 -330.925,22.317 H 438.531 l -0.617,-5.336 1.106,-0.266 c 147.777,-35.094 335.656,-54.414 529.003,-54.414 193.387,0 381.317,19.332 529.147,54.453 l 1.09,0.254 -0.61,5.351 h -1.13"
         inkscape:connector-curvature="0" /><path
         id="path52"
         style="fill:#fff200;fill-opacity:1;fill-rule:evenodd;stroke:none"
         d="m 1734.43,893.652 c 0,10.942 8.26,19.207 18.84,19.207 10.46,0 18.71,-8.265 18.71,-19.207 0,-11.129 -8.25,-19.343 -18.71,-19.343 -10.58,0 -18.84,8.214 -18.84,19.343 z m 18.84,-23.187 c 12.6,0 23.36,9.785 23.36,23.187 0,13.274 -10.76,23.051 -23.36,23.051 -12.73,0 -23.5,-9.777 -23.5,-23.051 0,-13.402 10.77,-23.187 23.5,-23.187 z m -4.89,21.344 h 4.65 l 7.03,-11.559 h 4.53 l -7.59,11.742 c 3.91,0.492 6.91,2.578 6.91,7.344 0,5.258 -3.12,7.59 -9.42,7.59 h -10.16 V 880.25 h 4.05 z m 0,3.425 v 8.254 h 5.51 c 2.8,0 5.79,-0.601 5.79,-3.906 0,-4.102 -3.05,-4.348 -6.48,-4.348 h -4.82"
         inkscape:connector-curvature="0" /></g></g></svg>