<?xml version="1.0" encoding="UTF-8" standalone="no"?>
<svg
   xmlns:dc="http://purl.org/dc/elements/1.1/"
   xmlns:cc="http://creativecommons.org/ns#"
   xmlns:rdf="http://www.w3.org/1999/02/22-rdf-syntax-ns#"
   xmlns:svg="http://www.w3.org/2000/svg"
   xmlns="http://www.w3.org/2000/svg"
   xmlns:sodipodi="http://sodipodi.sourceforge.net/DTD/sodipodi-0.dtd"
   xmlns:inkscape="http://www.inkscape.org/namespaces/inkscape"
   viewBox="0 0 848.959 266.23533"
   height="380.33618"
   width="1212.7986"
   xml:space="preserve"
   id="svg2"
   version="1.1"
   sodipodi:docname="Stafl_Systems2.svg"
   inkscape:version="0.92.2 (30a58d1, 2017-08-07)"><sodipodi:namedview
     pagecolor="#ffffff"
     bordercolor="#666666"
     borderopacity="1"
     objecttolerance="10"
     gridtolerance="10"
     guidetolerance="10"
     inkscape:pageopacity="0"
     inkscape:pageshadow="2"
     inkscape:window-width="2495"
     inkscape:window-height="1056"
     id="namedview3801"
     showgrid="false"
     scale-x="0.7"
     fit-margin-top="0"
     fit-margin-left="0"
     fit-margin-right="0"
     fit-margin-bottom="0"
     inkscape:zoom="0.98367442"
     inkscape:cx="428.26984"
     inkscape:cy="54.65754"
     inkscape:window-x="65"
     inkscape:window-y="24"
     inkscape:window-maximized="1"
     inkscape:current-layer="svg2" /><metadata
     id="metadata8"><rdf:RDF><cc:Work
         rdf:about=""><dc:format>image/svg+xml</dc:format><dc:type
           rdf:resource="http://purl.org/dc/dcmitype/StillImage" /><dc:title></dc:title></cc:Work></rdf:RDF></metadata><defs
     id="defs6" /><g
     transform="matrix(1.3333333,0,0,-1.3333333,-1518.7066,652.90165)"
     id="g10"><g
       transform="scale(0.1)"
       id="g12"><path
         id="path14"
         style="fill:#4f4c4c;fill-opacity:1;fill-rule:nonzero;stroke:none"
         d="m 14069.9,3475.69 c -2.5,-0.5 -5.2,-2.44 -7.4,-5.53 l -65.9,-108.16 -4.4,-9.17 -4.8,9.84 -65.7,107.88 c -2.1,3.36 -5.3,5.3 -8.9,5.3 v 0 c -2.9,-0.08 -37.7,-3.37 -44.6,-4.04 l -12.4,-1.17 6.5,-10.68 c 10.8,-17.69 66.1,-102.83 101,-156.15 v -124.69 h 57.9 v 124.69 c 31.6,48.69 90.9,140.94 102.9,160.07 l 7.5,11.97 h -60.1 l -1.6,-0.16"
         inkscape:connector-curvature="0" /><path
         id="path16"
         style="fill:#4f4c4c;fill-opacity:1;fill-rule:nonzero;stroke:none"
         d="m 15267.5,3464.48 v -39.53 h 92.4 v -245.83 h 57.9 v 245.83 h 82.9 c 2.5,0 4.5,1.81 4.8,4.27 1.2,9.87 4.1,33.78 4.6,37.95 l 1,8.68 h -201.5 l -35.8,-4.23 c -3.6,-0.42 -6.3,-3.49 -6.3,-7.14"
         inkscape:connector-curvature="0" /><path
         id="path18"
         style="fill:#4f4c4c;fill-opacity:1;fill-rule:nonzero;stroke:none"
         d="m 16191.9,3429.12 -1,8.75 c -0.5,3.45 -3.1,23.06 -4.5,32.67 -0.4,3.04 -3,5.31 -6,5.31 l -142.3,-0.04 -50.3,-4.79 v -291.9 h 192.3 c 3.2,0 5.8,2.3 6.3,5.45 1.3,9.8 4.1,29.67 4.4,32.55 l 1,8.71 h -146.1 v 82.45 h 132.1 V 3355 h -132.1 v 74.12 h 146.2"
         inkscape:connector-curvature="0" /><g
         transform="scale(1.04429)"
         id="g20"><path
           id="path22"
           style="fill:#4f4c4c;fill-opacity:1;fill-rule:nonzero;stroke:none"
           d="m 16221.2,3324.4 c -2.6,-0.26 -4.8,-1.91 -5.7,-4.32 -8.2,-21.96 -48.9,-131.26 -71.8,-192.23 l -2.2,-8.34 -1.8,7.55 -71.7,195.68 c -1.6,4.52 -1.8,5.14 -24.2,5.52 -8.1,0.14 -16.4,-0.19 -24.6,-0.97 l -36.1,-3.48 v -279.52 h 55.5 v 206.83 l 75.3,-201.08 2.9,-5.75 h 49.8 l 2,4.28 76,202.56 v -206.84 h 55.4 v 284.15 l -29.5,-0.03 c -6.3,-0.01 -12.7,-0.32 -19,-0.97 l -30.3,-3.04"
           inkscape:connector-curvature="0" /></g><g
         transform="scale(1.08859)"
         id="g24"><path
           id="path26"
           style="fill:#4f4c4c;fill-opacity:1;fill-rule:nonzero;stroke:none"
           d="m 16201.2,3081.9 c -28.4,8.12 -54.9,18.34 -54.9,37.95 0,22.59 16.9,34.04 50.3,34.04 36.6,0 63.7,-7.86 72.5,-10.44 l 11.8,-3.61 c 0,0 0.6,1.06 -0.7,12.05 -3.4,28.59 -6.2,31.8 -9.5,33.09 -4.1,1.97 -27.3,11.83 -74.1,11.83 -92.7,0 -103.5,-43.92 -103.5,-76.96 0,-53.24 52.8,-75.19 98.8,-88.37 28.5,-8.12 54.9,-18.35 54.9,-37.95 0,-22.58 -16.9,-34.03 -50.2,-34.03 -34.3,0 -72.7,10.11 -87.1,13.92 l -13.3,3.51 c 0,0 -0.9,1.14 0.4,-9.34 3.5,-30.01 5.9,-32.96 10.4,-35.68 5.4,-2.17 40.1,-15.34 89.6,-15.34 92.7,0 103.4,43.91 103.4,76.96 0,53.23 -52.7,75.19 -98.8,88.37"
           inkscape:connector-curvature="0" /></g><path
         id="path28"
         style="fill:#4f4c4c;fill-opacity:1;fill-rule:nonzero;stroke:none"
         d="m 14702.2,3354.92 c -31,8.84 -59.7,19.97 -59.7,41.31 0,24.59 18.4,37.06 54.7,37.06 39.8,0 69.3,-8.56 78.9,-11.36 l 12.9,-3.93 c 0,0 0.6,1.15 -0.8,13.11 -3.8,31.13 -6.8,34.62 -10.4,36.02 -4.5,2.15 -29.6,12.88 -80.6,12.88 -101,0 -112.6,-47.81 -112.6,-83.78 0,-57.95 57.4,-81.85 107.5,-96.2 31,-8.84 59.8,-19.97 59.8,-41.31 0,-24.58 -18.4,-37.04 -54.7,-37.04 -37.3,0 -79.1,11 -94.9,15.15 l -14.5,3.82 c 0,0 -0.8,1.24 0.5,-10.16 3.9,-32.67 6.4,-35.88 11.4,-38.84 5.9,-2.37 43.7,-16.71 97.5,-16.71 100.9,0 112.6,47.81 112.6,83.78 0,57.95 -57.5,81.85 -107.6,96.2"
         inkscape:connector-curvature="0" /><path
         id="path30"
         style="fill:#4f4c4c;fill-opacity:1;fill-rule:nonzero;stroke:none"
         d="m 13298.1,3354.92 c -31.1,8.84 -59.8,19.97 -59.8,41.31 0,24.59 18.4,37.06 54.7,37.06 39.9,0 69.3,-8.56 79,-11.36 l 12.8,-3.93 c 0,0 0.7,1.15 -0.8,13.11 -3.8,31.13 -6.7,34.62 -10.3,36.02 -4.6,2.15 -29.7,12.88 -80.7,12.88 -100.9,0 -112.6,-47.81 -112.6,-83.78 0,-57.95 57.4,-81.85 107.5,-96.2 31.1,-8.84 59.8,-19.97 59.8,-41.31 0,-24.58 -18.4,-37.04 -54.7,-37.04 -37.3,0 -79.1,11 -94.8,15.15 l -14.5,3.82 c 0,0 -0.9,1.24 0.5,-10.16 3.8,-32.67 6.3,-35.88 11.3,-38.84 5.9,-2.37 43.7,-16.71 97.5,-16.71 100.9,0 112.6,47.81 112.6,83.78 0,57.95 -57.5,81.85 -107.5,96.2"
         inkscape:connector-curvature="0" /><path
         id="path32"
         style="fill:#4f4c4c;fill-opacity:1;fill-rule:nonzero;stroke:none"
         d="m 13983.2,4096.13 c -61.1,40.91 -255.8,56.91 -376.7,62.14 -120.8,5.24 -182.3,9.87 -212.9,29.33 -28,17.72 -41.7,45.19 -41.7,83.95 0,34.29 16.6,57.77 52,73.9 32.3,14.69 62.2,27.38 181.2,27.38 119,0 386.8,0 386.8,0 19.9,0 36.2,16.24 36.2,36.18 v 56.51 c 0,35.2 -0.3,36.19 -36.2,36.19 h -360.7 c -155.6,0 -268,-17.91 -343.7,-54.72 -79.6,-38.76 -120,-97.33 -120,-174.11 0,-81.73 30.9,-143.86 91.7,-184.65 57.7,-38.74 199,-52.1 368.2,-58.83 169.2,-6.73 193.8,-11.26 222.4,-33.49 27.4,-21.26 40.7,-50.4 40.7,-89.09 0,-34.7 -15.5,-58.73 -48.9,-75.62 -29.9,-15.19 -74.5,-28.33 -173.9,-28.33 -99.5,0 -461.4,0 -461.4,0 -35.4,0 -36.2,-0.95 -36.2,-36.19 v -56.5 c 0,-32.55 1.8,-36.17 36.2,-36.17 h 432.6 c 146.6,0 260.1,18.83 337.3,55.99 82.2,39.6 123.9,99.54 123.9,178.15 0,81.67 -32.6,144.91 -96.9,187.98"
         inkscape:connector-curvature="0" /><path
         id="path34"
         style="fill:#4f4c4c;fill-opacity:1;fill-rule:nonzero;stroke:none"
         d="m 15032.7,4409.01 v 56.51 c 0,36.23 -1.8,36.19 -36.2,36.19 h -775.9 c -34.4,0 -36.2,-1.29 -36.2,-36.19 v -56.51 c 0,-19.94 16.2,-36.18 36.2,-36.18 h 283.4 v -662.65 c 0,-35.49 1.4,-36.17 36.2,-36.17 h 121.8 c 19.9,0 36.2,16.22 36.2,36.17 v 662.65 h 298.3 c 19.9,0 36.2,16.24 36.2,36.18"
         inkscape:connector-curvature="0" /><path
         id="path36"
         style="fill:#4f4c4c;fill-opacity:1;fill-rule:nonzero;stroke:none"
         d="m 15684.7,3929.32 h -359.9 l 187.6,412.98 z m -22.6,545.7 c -11.3,26.34 -12.5,26.69 -40.4,26.69 h -214.4 c -28.1,0 -28.8,-0.3 -40.5,-26.05 l -345.2,-758.07 c -19.7,-43.31 -19.8,-43.58 28,-43.58 h 134.7 c 16.9,0 33.9,11.38 40.3,27.08 l 39.8,98.11 c 0.4,0.45 1.4,1.17 1.4,1.25 l 468.6,0.03 c 0.7,-0.13 2.1,-1.03 2.3,-1.19 l 44.3,-99.07 c 11.5,-25.72 12.1,-26.21 40.5,-26.21 h 134.7 c 11.1,0 20.8,4.93 26.5,13.54 5.7,8.62 6.5,19.45 2.1,29.73 l -322.7,757.74"
         inkscape:connector-curvature="0" /><g
         transform="scale(1.03942)"
         id="g38"><path
           id="path40"
           style="fill:#4f4c4c;fill-opacity:1;fill-rule:nonzero;stroke:none"
           d="M 16264.5,4331 H 15583 c -19.3,0 -34.9,-15.63 -34.9,-34.82 v -726.7 c 0,-33.69 0.1,-34.8 34.9,-34.8 h 117.1 c 19.2,0 34.8,15.61 34.8,34.8 v 301.99 h 274.7 c 19.1,0 34.7,15.62 34.7,34.81 v 54.37 c 0,34.32 -0.6,34.82 -34.7,34.82 h -269.7 V 4207 h 524.6 c 19.1,0 34.8,15.62 34.8,34.81 v 54.37 c 0,34.74 0.7,34.82 -34.8,34.82"
           inkscape:connector-curvature="0" /></g><g
         transform="scale(1.08939)"
         id="g42"><path
           id="path44"
           style="fill:#4f4c4c;fill-opacity:1;fill-rule:nonzero;stroke:none"
           d="M 16267.1,3492.06 H 15887 v 607.06 c 0,31.63 -1.3,33.22 -33.2,33.22 h -107 c -32.1,0 -33.3,-0.64 -33.3,-33.22 v -693.37 c 0,-33.57 0.6,-33.2 33.3,-33.2 h 520.3 c 18.3,0 33.3,14.89 33.3,33.2 v 53.09 c 0,33.18 -0.1,33.22 -33.3,33.22"
           inkscape:connector-curvature="0" /></g><path
         id="path46"
         style="fill:#f28e3f;fill-opacity:1;fill-rule:nonzero;stroke:none"
         d="m 12271.1,4815.21 c -14.1,-8.73 -27.1,-19.23 -38.7,-31 -378.9,-382.37 -758.5,-641.57 -832.1,-690.27 -5.2,-3.44 -10,-6.01 -10,-8.98 0,-3.12 2.5,-5.55 7.1,-11.22 l 372.9,-445.7 640.5,1255.3 c 1.6,3.21 5.2,11.23 2.8,13.08 -1.9,1.56 -9.4,-2.63 -12.1,-4.12 -44.2,-24.73 -88.1,-50.83 -130.4,-77.09"
         inkscape:connector-curvature="0" /><path
         id="path48"
         style="fill:#43ba3b;fill-opacity:1;fill-rule:nonzero;stroke:none"
         d="m 11635,2964.91 c 15.4,9.29 29.4,20.66 41.9,33.51 389,399.78 787.7,672.02 863.3,722.11 6.5,4.28 9.3,7.84 9.3,10.36 0,2.51 -4,6.97 -6.4,9.85 l -372.9,445.7 -650,-1273.99 c -1.5,-2.95 -4.8,-9.95 -2.8,-11.86 1.9,-1.91 9.1,1.27 12,2.88 35.6,19.76 71,40.45 105.6,61.44"
         inkscape:connector-curvature="0" /></g></g></svg>