<?xml version="1.0" encoding="UTF-8" standalone="no"?>
<svg
   xmlns:dc="http://purl.org/dc/elements/1.1/"
   xmlns:cc="http://creativecommons.org/ns#"
   xmlns:rdf="http://www.w3.org/1999/02/22-rdf-syntax-ns#"
   xmlns:svg="http://www.w3.org/2000/svg"
   xmlns="http://www.w3.org/2000/svg"
   viewBox="0 0 425.26666 107.49333"
   height="107.49333"
   width="425.26666"
   xml:space="preserve"
   id="svg2"
   version="1.1"><metadata
     id="metadata8"><rdf:RDF><cc:Work
         rdf:about=""><dc:format>image/svg+xml</dc:format><dc:type
           rdf:resource="http://purl.org/dc/dcmitype/StillImage" /></cc:Work></rdf:RDF></metadata><defs
     id="defs6" /><g
     transform="matrix(1.3333333,0,0,-1.3333333,0,107.49333)"
     id="g10"><g
       transform="scale(0.1)"
       id="g12"><path
         id="path14"
         style="fill:#231f20;fill-opacity:1;fill-rule:nonzero;stroke:none"
         d="M 0,805.172 H 659.41 V 755.211 H 363.746 V 207.09 h -56.32 V 755.211 H 0 v 49.961" /><path
         id="path16"
         style="fill:#231f20;fill-opacity:1;fill-rule:nonzero;stroke:none"
         d="m 1168.33,803.961 c 40.34,0 89.1,0 130.27,-22.773 45.4,-26.145 74.81,-79.278 74.81,-139.993 0,-43.027 -13.45,-91.922 -57.15,-126.511 -45.4,-35.411 -108.43,-38.789 -153.82,-40.481 L 1401.15,208.555 H 1321.3 L 1086.79,474.203 H 815.316 V 208.555 H 758.164 V 803.961 Z M 815.316,524.801 h 318.554 c 60.51,0 114.3,1.687 148.76,38.789 20.18,21.933 28.58,53.144 28.58,80.137 0,38.789 -17.64,70.839 -40.35,87.695 -30.25,23.621 -68.07,23.621 -100.85,23.621 H 815.316 V 524.801" /><path
         id="path18"
         style="fill:#fab217;fill-opacity:1;fill-rule:nonzero;stroke:none"
         d="m 1456.83,805.035 h 170.85 V 208.066 h -170.85 v 53.497 h 116.2 v 490.835 h -116.2 v 52.637" /><path
         id="path20"
         style="fill:#fab217;fill-opacity:1;fill-rule:nonzero;stroke:none"
         d="m 1669.86,805.035 h 170.83 V 752.398 H 1724.51 V 261.563 h 116.18 v -53.497 h -170.83 v 596.969" /><path
         id="path22"
         style="fill:#231f20;fill-opacity:1;fill-rule:nonzero;stroke:none"
         d="m 2235.1,806.207 299.23,-599.098 h -61.36 l -76.49,155.293 h -382.41 l -75.64,-155.293 h -58.87 l 291.68,599.098 z M 2203.17,752.75 2036.76,409.918 h 336.19 z" /><path
         id="path24"
         style="fill:#231f20;fill-opacity:1;fill-rule:nonzero;stroke:none"
         d="m 2581.8,805.004 h 296.7 c 53.79,0 103.38,-1.68 158.02,-28.797 110.09,-54.219 152.96,-167.754 152.96,-271.953 0,-115.231 -49.6,-202.496 -120.18,-249.078 -69.77,-45.762 -150.47,-48.301 -218.54,-48.301 H 2581.8 Z m 58.83,-548.129 h 189.14 c 78.97,0 165.55,0.84 229.44,58.438 52.96,48.3 69.75,117.789 69.75,185.542 0,63.555 -16.79,125.399 -52.12,171.153 -62.18,82.176 -153.79,83.015 -197.51,83.015 h -238.7 V 256.875" /><path
         id="path26"
         style="fill:#231f20;fill-opacity:1;fill-rule:nonzero;stroke:none"
         d="m 302.484,87.2461 h 16.641 l 26.543,-55.4883 c 4.219,-9.1992 4.953,-10.957 8.199,-19.0625 2.887,8.1055 3.863,10.2735 7.731,18.711 l 26.894,55.8398 h 16.399 V 2.07031 H 393.547 V 51.0547 c 0,16.3086 0.258,19.043 1.09,26.0547 -2.403,-6.6211 -3.129,-8.1055 -6.399,-14.961 L 359.184,2.07031 H 348.082 L 321.426,57.3047 c -4.711,9.668 -5.918,12.3242 -8.567,19.4336 0.711,-6.5235 0.711,-8.2031 0.957,-21.582 V 2.07031 H 302.484 V 87.2461" /><path
         id="path28"
         style="fill:#231f20;fill-opacity:1;fill-rule:nonzero;stroke:none"
         d="m 688.594,87.3633 h 12.777 L 745.031,2.07031 H 731.168 L 720.785,23.0469 H 668.441 L 658.066,2.07031 h -13.519 z m 9.047,-18.5742 c -0.606,1.4257 -1.344,2.8906 -1.942,4.3554 -0.363,1.0743 -0.715,2.168 -0.965,3.2422 -0.359,-1.0742 -0.73,-2.2851 -1.195,-3.4961 -0.617,-1.582 -1.332,-3.0078 -2.055,-4.5703 l -17.98,-35.3711 h 42.101 l -17.964,35.8399" /><path
         id="path30"
         style="fill:#231f20;fill-opacity:1;fill-rule:nonzero;stroke:none"
         d="m 1079.69,13.6328 c -1.56,-1.3867 -2.89,-2.7344 -4.7,-4.21874 C 1068.82,4.72656 1057.01,0 1042.54,0 c -29.43,0 -48.743,20.4102 -48.743,44.7852 0,11.9531 4.945,20.7421 7.373,24.3554 7.94,11.6016 23.63,20.1563 43.42,20.1563 19.65,0 32.08,-8.0664 36.91,-12.1875 4.7,-3.9649 6.52,-7.3438 8.32,-10.3711 l -11.93,-3.6133 c -1.59,2.2852 -2.79,4.1016 -5.43,6.3867 -7.25,6.2696 -17.14,9.2969 -26.9,9.2969 -21.01,0 -38.85,-11.8359 -38.85,-33.2813 0,-8.8281 3.25,-15.9375 5.79,-19.8046 9.29,-14.375 27.14,-15.5469 32.68,-15.5469 8.09,0 20.03,2.5195 28.11,11.1914 5.3,5.8008 6.04,10.5078 6.76,15.4492 h -37.51 v 10.1367 h 47.64 V 1.93359 h -10.49 V 13.6328" /><path
         id="path32"
         style="fill:#231f20;fill-opacity:1;fill-rule:nonzero;stroke:none"
         d="m 1371.48,87.2461 57.43,-60.918 c 4.09,-4.3359 4.94,-5.3125 9.05,-10.3711 -0.62,6.0352 -0.62,7.0899 -0.75,12.5391 v 58.75 h 11.6 V 2.07031 h -11.82 L 1376.67,65.918 c -3.14,3.4765 -4.1,4.6875 -6.64,7.832 0.5,-5.9375 0.62,-7.6172 0.62,-14.7461 V 2.07031 h -11.59 V 87.2461 h 12.42" /><path
         id="path34"
         style="fill:#231f20;fill-opacity:1;fill-rule:nonzero;stroke:none"
         d="m 1719.99,87.2461 h 78.64 V 76.7383 h -66.6 V 51.2891 h 64.8 v -10 h -64.8 V 12.5586 h 69.58 V 2.07031 h -81.62 V 87.2461" /><path
         id="path36"
         style="fill:#231f20;fill-opacity:1;fill-rule:nonzero;stroke:none"
         d="m 2052.17,87.2461 h 81.69 V 77.1094 h -34.85 V 2.07031 h -12.08 V 77.1094 h -34.76 v 10.1367" /><path
         id="path38"
         style="fill:#231f20;fill-opacity:1;fill-rule:nonzero;stroke:none"
         d="m 2391.16,87.2461 h 12.43 V 2.07031 h -12.43 V 87.2461" /><path
         id="path40"
         style="fill:#231f20;fill-opacity:1;fill-rule:nonzero;stroke:none"
         d="M 2768.6,25.4688 C 2765.34,19.707 2761.97,13.8867 2753.5,8.55469 2743.03,1.93359 2729.51,0 2719.27,0 c -34.63,0 -51.76,19.9414 -51.76,45.2539 0,20.1563 10.03,29.4531 15.81,33.7891 3.61,2.8711 13.77,10.7422 35.57,10.7422 6.18,0 21.01,-0.8594 32.47,-7.9493 9.05,-5.6836 13.29,-12.832 15.54,-16.6796 l -13.03,-2.8711 c -1.93,3.3789 -3.99,6.9921 -9.28,10.4687 -5.17,3.3984 -14.36,6.4258 -25.21,6.4258 -20.26,0 -39.08,-9.5508 -39.08,-33.5547 0,-8.4375 2.43,-17.1289 8.81,-24.2578 5.77,-5.8984 15.69,-10.8594 31.01,-10.8594 13.16,-0.1172 21.97,3.2617 27.13,7.3633 4.59,3.3789 7.4,7.7344 8.56,10.2539 l 12.79,-2.6562" /><path
         id="path42"
         style="fill:#231f20;fill-opacity:1;fill-rule:nonzero;stroke:none"
         d="m 3019.71,23.9258 c 1.31,-1.582 2.65,-3.0274 5.9,-5.1953 9.32,-6.4063 20.66,-8.3399 31.88,-8.3399 18.69,0 28.94,6.875 28.94,17.2657 0,11.8164 -13.4,12.9101 -30.29,14.3554 -21.32,1.8164 -28.7,2.4219 -35.22,8.3203 -5.18,4.8243 -6.06,10.2539 -6.06,14.2383 0,24.2383 32.09,24.8438 39.95,24.8438 11.92,0 24.02,-1.9532 33.9,-8.5743 4.23,-2.8906 6.17,-5.1562 8.58,-8.5546 l -10.99,-4.4727 c -1.8,1.8164 -2.88,3.0273 -4.95,4.4727 -7.57,5.4101 -17.01,7.1093 -26.29,7.1093 -6.86,0 -15.44,-0.9375 -20.49,-3.4765 -5.92,-2.9102 -7.6,-7.2657 -7.6,-10.7617 0,-2.5391 0.95,-4.8047 2.51,-6.4844 2.88,-3.3789 7.38,-4.1211 15.33,-4.961 7.73,-0.8593 15.31,-1.3281 23.04,-2.1875 3.61,-0.332 7.36,-0.8398 10.98,-1.6796 9.16,-2.168 19.55,-8.086 19.55,-22.0704 0,-3.5156 -0.59,-8.9062 -4.37,-14.2382 C 3087.38,4.10156 3074.23,0 3056.64,0 c -7.01,0 -15.94,0.996094 -21.95,2.55859 -17.52,4.35547 -23.67,13.26171 -26.08,16.75781 l 11.1,4.6094" /></g></g></svg>