<?xml version="1.0" encoding="UTF-8" standalone="no"?>
<svg
   xmlns:dc="http://purl.org/dc/elements/1.1/"
   xmlns:cc="http://creativecommons.org/ns#"
   xmlns:rdf="http://www.w3.org/1999/02/22-rdf-syntax-ns#"
   xmlns:svg="http://www.w3.org/2000/svg"
   xmlns="http://www.w3.org/2000/svg"
   viewBox="0 0 431.34668 93.773331"
   height="93.773331"
   width="431.34668"
   xml:space="preserve"
   id="svg2"
   version="1.1"><metadata
     id="metadata8"><rdf:RDF><cc:Work
         rdf:about=""><dc:format>image/svg+xml</dc:format><dc:type
           rdf:resource="http://purl.org/dc/dcmitype/StillImage" /></cc:Work></rdf:RDF></metadata><defs
     id="defs6" /><g
     transform="matrix(1.3333333,0,0,-1.3333333,0,93.773333)"
     id="g10"><g
       transform="scale(0.1)"
       id="g12"><path
         id="path14"
         style="fill:#231f20;fill-opacity:1;fill-rule:nonzero;stroke:none"
         d="M 877.426,703.27 H 1072.56 L 899.309,12.8516 H 704.719 L 877.426,703.27" /><path
         id="path16"
         style="fill:#231f20;fill-opacity:1;fill-rule:nonzero;stroke:none"
         d="m 1164.84,696.367 h 195.15 L 1318.5,536.219 h 81.14 L 1370.6,418.992 h -81.71 l -62.07,-249.398 c -6.71,-27.715 6.18,-41.406 38.62,-41.02 h 32.51 L 1268.83,12.6367 C 1229.57,9.375 1192.77,7.65625 1158.53,7.65625 1099.1,7.09766 1058.81,14.7461 1037.67,30.957 c -23.77,16.5586 -28.26,52.7774 -13.28,108.91 l 140.45,556.5" /><path
         id="path18"
         style="fill:#231f20;fill-opacity:1;fill-rule:nonzero;stroke:none"
         d="m 1471.6,536.102 h 195.1 L 1535.45,12.8516 H 1340.86 L 1471.6,536.102" /><path
         id="path20"
         style="fill:#231f20;fill-opacity:1;fill-rule:nonzero;stroke:none"
         d="m 1755.33,536.031 h 195.21 l -86.5,-345.273 c -11.21,-41.922 1.6,-62.785 38.42,-62.399 38.09,-0.386 62.37,20.477 73.14,62.399 l 86.54,345.273 h 195 L 2126.35,12.7148 h -194.53 l 15.33,63.3399 h -2.18 C 1905.64,25.293 1850.44,0.0195313 1779.42,0.0195313 1734.58,-0.539063 1700.17,9.07031 1676.08,29.1602 c -25.69,19.6953 -32.3,57.0273 -19.58,111.6018 l 98.83,395.269" /><path
         id="path22"
         style="fill:#231f20;fill-opacity:1;fill-rule:nonzero;stroke:none"
         d="m 3114.44,522.383 c -25.4,19.18 -61.11,28.519 -107.15,28.25 -30.98,0 -61.41,-6.004 -91.27,-17.801 -30.94,-12.289 -58.35,-33.234 -82.35,-62.883 -4.8,27.117 -17.11,47.344 -37.03,60.867 -20.28,13.153 -51.14,19.817 -92.81,19.817 -71.43,0 -127.11,-26.106 -166.91,-78.153 h -2.26 l 15.6,63.829 H 2353.48 L 2222.17,13.0469 h 195.35 l 86.61,345.2931 c 10.72,41.918 34.88,62.598 72.51,61.957 37.34,0.641 50.34,-20.039 39.14,-62.047 L 2529.19,13.0469 h 194.69 L 2810.5,358.34 c 10.92,41.918 35.68,62.598 74.32,61.957 37.68,0.641 50.63,-20.039 39.15,-61.957 L 2837.83,13.0469 h 86 c 61.07,0 119.21,40.457 132.84,95.8081 l 74.93,299.09 c 13.09,54.832 7.47,92.981 -17.16,114.438" /><path
         id="path24"
         style="fill:#231f20;fill-opacity:1;fill-rule:nonzero;stroke:none"
         d="M 335.316,265.164 468.254,553.168 452.426,265.164 Z M 663.477,12.8516 637.305,703.27 H 521.098 C 424.184,699.75 342.793,646.648 296.781,566.031 L 0,12.8516 224.465,13.0664 277.086,132.781 H 445.145 L 438.59,12.8516 h 224.887" /><path
         id="path26"
         style="fill:#231f20;fill-opacity:1;fill-rule:nonzero;stroke:none"
         d="m 3174.04,67.8086 h 5.69 c 6.65,0 12.03,2.2148 12.03,7.5898 0,4.7539 -3.48,7.918 -11.07,7.918 -3.17,0 -5.38,-0.3203 -6.65,-0.6328 z m -0.32,-29.4336 h -12.03 v 51.9023 c 4.75,0.9532 11.4,1.5821 19.95,1.5821 9.81,0 14.23,-1.5821 18.04,-3.793 2.84,-2.2187 5.06,-6.332 5.06,-11.3984 0,-5.6914 -4.43,-10.125 -10.76,-12.0313 v -0.6289 c 5.07,-1.8984 7.91,-5.6992 9.49,-12.6601 1.59,-7.9102 2.54,-11.0743 3.8,-12.9727 h -12.98 c -1.57,1.8984 -2.53,6.6445 -4.11,12.6563 -0.95,5.6953 -4.11,8.2304 -10.76,8.2304 h -5.7 z m -31.97,27.2148 c 0,-23.1054 17.1,-41.4648 40.52,-41.4648 22.79,0 39.56,18.3594 39.56,41.1484 0,23.1055 -16.77,41.7816 -39.88,41.7816 -23.1,0 -40.2,-18.6761 -40.2,-41.4652 z m 93.37,0 c 0,-29.4335 -23.09,-52.5429 -53.17,-52.5429 -29.75,0 -53.49,23.1094 -53.49,52.5429 0,28.8047 23.74,51.9102 53.49,51.9102 30.08,0 53.17,-23.1055 53.17,-51.9102" /></g></g></svg>