<svg xmlns="http://www.w3.org/2000/svg" viewBox="0 0 259.85 83.69">
  <path fill="#000200" d="M0 0h259.85v83.7H0z"/>
  <path fill="#ffd457" d="M149.14 18.96l1.5 14.3h-1.7c-1.13-5.5-5.43-11.55-12.46-11.55-3.36 0-6.78 2.1-6.78 6.28 0 10.04 22.4 11.38 22.4 25.14 0 5.7-4.55 12.13-14.14 12.13-5.1 0-8.4-2.28-10.4-2.28a2.1 2.1 0 0 0-2.08 2.22H124l-2-14.23h1.53c1.3 3.16 4.7 11.88 13.74 11.88 5.38 0 8.05-3.84 8.05-7.45 0-3.83-1.06-6.1-10.93-11.87-6.2-3.55-10.5-6.5-10.5-13.13 0-7.65 6.1-11.4 12.14-11.4 4.02 0 7.65 2.28 9.3 2.28a2.35 2.35 0 0 0 2.38-2.28h1.4m47.3.93H181.8v1.25c2.06 0 4.6.14 4.6 2.22a4.68 4.68 0 0 1-.93 2.47L175.87 41l-9.92-14.87a6.26 6.26 0 0 1-1.13-2.9c0-1.87 1.67-1.93 4.75-2.07V19.9H150.8v1.27c3 .27 4 .47 10.85 10.53l8.8 12.88v11.66c0 5.1-.2 6.64-6.77 6.77v1.3h20.52V63c-6.04-.06-6.9-1.2-6.9-6.03v-13l9.9-15.15c4.64-7.1 6.84-7.38 9.27-7.65V19.9m23.32-.93h-1.45a2.33 2.33 0 0 1-2.35 2.28c-1.66 0-5.27-2.28-9.3-2.28-6.03 0-12.15 3.74-12.15 11.4 0 6.64 4.3 9.58 10.47 13.14 9.86 5.8 10.92 8.08 10.92 11.9 0 3.6-2.67 7.45-8.03 7.45-9.05 0-12.45-8.7-13.74-11.87h-1.53l2 14.2h1.48a2.08 2.08 0 0 1 2.1-2.2c2 0 5.3 2.27 10.4 2.27 9.6 0 14.15-6.42 14.15-12.12 0-13.75-22.4-15.1-22.4-25.13 0-4.2 3.4-6.26 6.76-6.26 7.08 0 11.37 6.05 12.5 11.55h1.68L219.8 19m5.2 2.6v1.32h.83c.55 0 .9-.12.9-.68 0-.5-.44-.65-.9-.65zm-.75 3.83V21h1.7c1 0 1.5.4 1.5 1.25a1.1 1.1 0 0 1-1.12 1.2l1.24 1.96h-.76l-1.2-1.92h-.6v1.95zm-1.6-2.18a3.04 3.04 0 1 0 6.08 0 3.04 3.04 0 1 0-6.08 0zm-.72 0A3.76 3.76 0 1 1 225.7 27a3.76 3.76 0 0 1-3.77-3.75"/>
  <path fill="#fff" d="M42.25 64.3L53.8 28.4l11.28 35.9h13.3L61.62 19.7H47.26L30.48 64.3h11.77"/>
  <path fill="#fff" d="M77.6 64.3h10.6V30.12h.12l14.42 34.16h16.3V19.7h-10.6v33.1l-.1.13L94.1 19.7H77.6v44.6"/>
</svg>
