<?xml version="1.0" encoding="UTF-8" standalone="no"?>
<svg
   xmlns:dc="http://purl.org/dc/elements/1.1/"
   xmlns:cc="http://creativecommons.org/ns#"
   xmlns:rdf="http://www.w3.org/1999/02/22-rdf-syntax-ns#"
   xmlns:svg="http://www.w3.org/2000/svg"
   xmlns="http://www.w3.org/2000/svg"
   viewBox="0 0 468.56 60.373333"
   height="60.373333"
   width="468.56"
   xml:space="preserve"
   id="svg2"
   version="1.1"><metadata
     id="metadata8"><rdf:RDF><cc:Work
         rdf:about=""><dc:format>image/svg+xml</dc:format><dc:type
           rdf:resource="http://purl.org/dc/dcmitype/StillImage" /></cc:Work></rdf:RDF></metadata><defs
     id="defs6" /><g
     transform="matrix(1.3333333,0,0,-1.3333333,0,60.373333)"
     id="g10"><g
       transform="scale(0.1)"
       id="g12"><path
         id="path14"
         style="fill:#2d71c1;fill-opacity:1;fill-rule:nonzero;stroke:none"
         d="M 721.289,447.215 V 401.16 c 0,-7.558 5.41,-13.887 15.606,-13.887 10.214,0 15.625,6.329 15.625,13.887 v 46.055 h 7.226 v -45.508 c 0,-12.988 -9.394,-20.586 -22.851,-20.586 -13.438,0 -22.832,7.598 -22.832,20.586 v 45.508 h 7.226" /><path
         id="path16"
         style="fill:#2d71c1;fill-opacity:1;fill-rule:nonzero;stroke:none"
         d="m 790.605,382.039 v 65.176 h 10.391 l 28.457,-50.195 h 0.352 v 50.195 h 6.484 v -65.176 h -5.937 l -33.047,58.145 h -0.176 v -58.145 h -6.524" /><path
         id="path18"
         style="fill:#2d71c1;fill-opacity:1;fill-rule:nonzero;stroke:none"
         d="m 876.016,447.215 v -65.176 h -7.227 v 65.176 h 7.227" /><path
         id="path20"
         style="fill:#2d71c1;fill-opacity:1;fill-rule:nonzero;stroke:none"
         d="m 900.488,447.215 h 7.207 l 16.075,-53.438 h 0.195 l 16.152,53.438 h 7.305 l -20.215,-65.176 h -6.582 l -20.137,65.176" /><path
         id="path22"
         style="fill:#2d71c1;fill-opacity:1;fill-rule:nonzero;stroke:none"
         d="m 1009.28,447.215 v -6.133 h -31.878 v -21.855 h 22.658 v -6.133 h -22.658 v -24.922 h 33.668 v -6.133 h -40.894 v 65.176 h 39.104" /><path
         id="path24"
         style="fill:#2d71c1;fill-opacity:1;fill-rule:nonzero;stroke:none"
         d="m 1043.22,417.781 h 13.07 c 9.94,0 15.17,3.692 15.17,11.914 0,8.75 -5.95,11.387 -15.25,11.387 h -12.99 z M 1036,382.039 v 65.176 h 20.93 c 14.09,0 21.76,-6.309 21.76,-17.149 0,-9.218 -5.33,-14.453 -12.99,-16.972 l 13.81,-31.055 h -7.87 l -13.16,29.609 h -15.26 V 382.039 H 1036" /><path
         id="path26"
         style="fill:#2d71c1;fill-opacity:1;fill-rule:nonzero;stroke:none"
         d="m 1139,430.594 c -1.64,6.328 -6.77,11.386 -15.15,11.386 -7.62,0 -12.11,-3.613 -12.21,-10.117 -0.18,-14.258 36.64,-10.664 36.64,-31.601 0,-9.473 -5.31,-19.141 -21.91,-19.141 -14.28,0 -19.87,9.219 -23.3,16.992 l 6.6,2.325 c 2.6,-6.836 7.48,-13.165 17.07,-13.165 9.55,0 14.33,5.059 14.33,11.739 0,16.601 -36.66,11.738 -36.66,32.304 0,9.395 7.86,16.797 19.61,16.797 10.1,0 18.05,-5.312 21.47,-16.074 l -6.49,-1.445" /><path
         id="path28"
         style="fill:#2d71c1;fill-opacity:1;fill-rule:nonzero;stroke:none"
         d="m 1183.67,447.215 v -65.176 h -7.21 v 65.176 h 7.21" /><path
         id="path30"
         style="fill:#2d71c1;fill-opacity:1;fill-rule:nonzero;stroke:none"
         d="m 1235.23,441.082 v -59.043 h -7.2 v 59.043 h -19.51 v 6.133 h 46.21 v -6.133 h -19.5" /><path
         id="path32"
         style="fill:#2d71c1;fill-opacity:1;fill-rule:nonzero;stroke:none"
         d="m 1289.57,409.48 -20.02,37.735 h 7.93 l 15.7,-29.883 15.73,29.883 h 7.93 l -20.02,-37.735 v -27.441 h -7.25 v 27.441" /><path
         id="path34"
         style="fill:#2d71c1;fill-opacity:1;fill-rule:nonzero;stroke:none"
         d="m 1398.61,387.273 c 11.49,0 18.27,8.848 18.27,27.344 0,18.516 -6.78,27.363 -18.27,27.363 -11.44,0 -18.22,-8.847 -18.22,-27.363 0,-18.496 6.78,-27.344 18.22,-27.344 z m 0,60.84 c 16,0 25.49,-11.738 25.49,-33.496 0,-21.758 -9.49,-33.496 -25.49,-33.496 -15.95,0 -25.43,11.738 -25.43,33.496 0,21.758 9.48,33.496 25.43,33.496" /><path
         id="path36"
         style="fill:#2d71c1;fill-opacity:1;fill-rule:nonzero;stroke:none"
         d="m 1487.83,447.215 v -6.133 h -31.42 v -21.855 h 23.3 v -6.133 h -23.3 v -31.055 h -7.21 v 65.176 h 38.63" /><path
         id="path38"
         style="fill:#2d71c1;fill-opacity:1;fill-rule:nonzero;stroke:none"
         d="m 1592.29,401.531 c -2.9,-12.09 -9.58,-20.41 -22.93,-20.41 -14.63,0 -24.95,10.664 -24.95,33.496 0,21.211 9.22,33.496 24.95,33.496 12.1,0 19.14,-7.031 22.03,-18.945 l -6.68,-1.992 c -2.35,9.199 -6.53,14.804 -16.25,14.804 -9.4,0 -16.8,-8.671 -16.8,-27.363 0,-18.867 7.4,-27.344 18.22,-27.344 10.02,0 13.93,7.579 15.9,15.508 l 6.51,-1.25" /><path
         id="path40"
         style="fill:#2d71c1;fill-opacity:1;fill-rule:nonzero;stroke:none"
         d="m 1624.88,408.582 h 19.75 l -9.38,33.574 h -0.99 z m -15.54,-26.543 20.05,65.176 h 10.73 l 20.06,-65.176 h -7.58 l -6.15,20.391 h -23.38 l -6.14,-20.391 h -7.59" /><path
         id="path42"
         style="fill:#2d71c1;fill-opacity:1;fill-rule:nonzero;stroke:none"
         d="m 1683.46,382.039 v 65.176 h 7.24 v -59.043 h 30.84 v -6.133 h -38.08" /><path
         id="path44"
         style="fill:#2d71c1;fill-opacity:1;fill-rule:nonzero;stroke:none"
         d="m 1753.87,447.215 v -65.176 h -7.21 v 65.176 h 7.21" /><path
         id="path46"
         style="fill:#2d71c1;fill-opacity:1;fill-rule:nonzero;stroke:none"
         d="m 1824.38,447.215 v -6.133 h -31.41 v -21.855 h 23.28 v -6.133 h -23.28 v -31.055 h -7.23 v 65.176 h 38.64" /><path
         id="path48"
         style="fill:#2d71c1;fill-opacity:1;fill-rule:nonzero;stroke:none"
         d="m 1868.36,387.273 c 11.46,0 18.22,8.848 18.22,27.344 0,18.516 -6.76,27.363 -18.22,27.363 -11.48,0 -18.24,-8.847 -18.24,-27.363 0,-18.496 6.76,-27.344 18.24,-27.344 z m 0,60.84 c 15.98,0 25.43,-11.738 25.43,-33.496 0,-21.758 -9.45,-33.496 -25.43,-33.496 -16,0 -25.47,11.738 -25.47,33.496 0,21.758 9.47,33.496 25.47,33.496" /><path
         id="path50"
         style="fill:#2d71c1;fill-opacity:1;fill-rule:nonzero;stroke:none"
         d="m 1926.13,417.781 h 13.09 c 9.92,0 15.17,3.692 15.17,11.914 0,8.75 -5.97,11.387 -15.27,11.387 h -12.99 z m -7.22,-35.742 v 65.176 h 20.95 c 14.09,0 21.74,-6.309 21.74,-17.149 0,-9.218 -5.31,-14.453 -12.99,-16.972 l 13.81,-31.055 h -7.85 l -13.18,29.609 h -15.26 v -29.609 h -7.22" /><path
         id="path52"
         style="fill:#2d71c1;fill-opacity:1;fill-rule:nonzero;stroke:none"
         d="m 1991.21,382.039 v 65.176 h 10.37 l 28.46,-50.195 h 0.35 v 50.195 h 6.49 v -65.176 h -5.94 l -33.05,58.145 h -0.18 v -58.145 h -6.5" /><path
         id="path54"
         style="fill:#2d71c1;fill-opacity:1;fill-rule:nonzero;stroke:none"
         d="m 2076.6,447.215 v -65.176 h -7.21 v 65.176 h 7.21" /><path
         id="path56"
         style="fill:#2d71c1;fill-opacity:1;fill-rule:nonzero;stroke:none"
         d="m 2117.15,408.582 h 19.78 l -9.39,33.574 h -1 z m -15.53,-26.543 20.04,65.176 h 10.74 l 20.06,-65.176 h -7.6 l -6.13,20.391 h -23.36 l -6.17,-20.391 h -7.58" /><path
         id="path58"
         style="fill:#2d71c1;fill-opacity:1;fill-rule:nonzero;stroke:none"
         d="M 713.77,36.1133 V 360.672 h 55.742 V 36.1133 H 713.77" /><path
         id="path60"
         style="fill:#2d71c1;fill-opacity:1;fill-rule:nonzero;stroke:none"
         d="m 944.199,360.672 h 54.844 L 931.152,36.1133 H 875.41 L 807.539,360.672 h 54.824 l 40.469,-225.223 h 0.898 l 40.469,225.223" /><path
         id="path62"
         style="fill:#2d71c1;fill-opacity:1;fill-rule:nonzero;stroke:none"
         d="M 1035.59,36.1133 V 360.672 h 149.29 v -48.555 h -93.53 v -83.609 h 71.95 V 179.98 h -71.95 V 84.6484 h 99.82 V 36.1133 h -155.58" /><path
         id="path64"
         style="fill:#2d71c1;fill-opacity:1;fill-rule:nonzero;stroke:none"
         d="m 1290.31,215.02 h 19.79 c 30.11,0 41.36,11.238 41.36,49.91 0,38.656 -11.25,49.883 -41.36,49.883 h -19.79 z m 0,-178.9067 h -55.74 V 360.672 h 78.24 c 62.46,0 94.4,-26.5 94.4,-95.742 0,-52.176 -20.24,-73.27 -39.1,-81.805 l 47.18,-147.0117 h -56.64 l -39.57,134.4137 c -7.19,-0.898 -18.88,-1.347 -28.77,-1.347 V 36.1133" /><path
         id="path66"
         style="fill:#2d71c1;fill-opacity:1;fill-rule:nonzero;stroke:none"
         d="m 1556.7,280.633 c -2.25,27.89 -17.09,36 -29.67,36 -17.99,0 -27.89,-11.703 -27.89,-31.914 0,-55.317 113.3,-81.828 113.3,-169.914 0,-53.5159 -35.96,-83.1839 -88.12,-83.1839 -51.7,0 -81.37,41.3672 -83.6,89.9219 l 53.03,7.637 c 2.25,-32.8323 15.29,-49.0042 33.28,-49.0042 19.32,0 32.36,10.332 32.36,29.6682 0,64.277 -113.3,81.386 -113.3,174.402 0,51.699 31.49,80.918 86.33,80.918 45.41,0 72.37,-32.812 77.33,-78.672 l -53.05,-5.859" /><path
         id="path68"
         style="fill:#2d71c1;fill-opacity:1;fill-rule:nonzero;stroke:none"
         d="M 1660.7,36.1133 V 360.672 h 55.75 V 36.1133 h -55.75" /><path
         id="path70"
         style="fill:#2d71c1;fill-opacity:1;fill-rule:nonzero;stroke:none"
         d="m 1834.43,81.9727 h 19.32 c 29.69,0 40.02,11.2304 40.02,45.4103 v 142.043 c 0,34.16 -10.33,45.387 -40.02,45.387 h -19.32 z m -55.76,278.6993 h 82.74 c 57.55,0 88.1,-31.461 88.1,-98.008 V 134.121 c 0,-66.5429 -30.55,-98.0077 -88.1,-98.0077 h -82.74 V 360.672" /><path
         id="path72"
         style="fill:#2d71c1;fill-opacity:1;fill-rule:nonzero;stroke:none"
         d="M 2004.45,36.1133 V 360.672 h 149.26 v -48.555 h -93.51 v -83.609 h 71.93 V 179.98 H 2060.2 V 84.6484 H 2160 V 36.1133 h -155.55" /><path
         id="path74"
         style="fill:#fab20b;fill-opacity:1;fill-rule:nonzero;stroke:none"
         d="M 0,361.004 H 55.1172 V 118.75 c 0,-23.5547 9.3359,-35.1172 29.3359,-35.1172 19.9999,0 29.3359,11.5625 29.3359,35.1172 v 242.254 h 55.125 V 120.977 c 0,-55.1176 -32,-85.352 -84.4609,-85.352 C 32.0039,35.625 0,65.8594 0,120.977 v 240.027" /><path
         id="path76"
         style="fill:#fab20b;fill-opacity:1;fill-rule:nonzero;stroke:none"
         d="m 333.391,253.879 v 24.879 c 0,27.129 -12.453,38.672 -26.672,38.672 -22.227,0 -29.336,-11.543 -29.336,-35.567 V 119.199 c 0,-24.0037 7.109,-35.5662 29.336,-35.5662 20,0 26.672,11.5625 26.672,32.4612 v 38.672 h 55.125 v -36.895 c 0,-45.3515 -26.68,-82.246 -81.797,-82.246 -57.793,0 -84.453,36.8945 -84.453,82.246 v 165.344 c 0,45.332 26.66,82.223 84.453,82.223 55.117,0 81.797,-40 81.797,-88.008 v -23.551 h -55.125" /><path
         id="path78"
         style="fill:#2d71c1;fill-opacity:1;fill-rule:nonzero;stroke:none"
         d="m 613.809,225.105 c 24.218,10.942 50.156,38.028 50.156,104.903 0,88.789 -40.899,122.812 -121.035,122.812 h -26.289 l 11.523,-72.285 42.324,65.899 0.684,-0.137 -26.504,-78.789 70.957,43.476 0.43,-0.488 -58.223,-59.488 98.789,12.105 0.059,-0.664 -94.141,-32.011 94.316,-32.715 -0.234,-0.586 -98.789,12.734 58.164,-59.473 -0.391,-0.429 -70.937,43.379 26.523,-78.719 -0.468,-0.293 -42.129,65.34 -11.934,-72.449 c 12.07,0.078 25.723,0.644 34.317,1.699 L 601.738,36.5625 h 72.617 z M 514.277,452.82 H 442.578 V 36.543 h 71.504 l 0.195,416.277" /><path
         id="path80"
         style="fill:#2d71c1;fill-opacity:1;fill-rule:nonzero;stroke:none"
         d="m 2353.4,296.785 h 17.94 c 21.62,0 33.11,9.426 33.11,30.82 0,21.848 -9.65,33.586 -33.11,33.586 h -17.94 z m 0,79.582 h 10.12 c 25.76,0 37.26,7.821 37.26,30.36 0,18.859 -8.28,25.761 -29.44,25.761 h -17.94 z m -17.94,71.297 h 44.16 c 24.83,0 39.1,-16.551 39.1,-40.937 0,-16.563 -7.36,-31.512 -25.3,-36.805 v -0.449 c 20.01,-5.293 28.98,-21.172 28.98,-41.868 0,-30.82 -17.02,-46.003 -53.36,-46.003 h -33.58 v 166.062" /><path
         id="path82"
         style="fill:#2d71c1;fill-opacity:1;fill-rule:nonzero;stroke:none"
         d="m 2479.9,293.105 c 14.03,0 20,8.739 20,48.301 0,39.559 -5.97,48.301 -20,48.301 -14.03,0 -20.02,-8.742 -20.02,-48.301 0,-39.562 5.99,-48.301 20.02,-48.301 z m 0,110.399 c 25.07,0 36.56,-18.856 36.56,-62.098 0,-43.242 -11.49,-62.101 -36.56,-62.101 -25.08,0 -36.57,18.859 -36.57,62.101 0,43.242 11.49,62.098 36.57,62.098" /><path
         id="path84"
         style="fill:#2d71c1;fill-opacity:1;fill-rule:nonzero;stroke:none"
         d="m 2610.3,281.602 h -15.63 v 13.117 c -7.82,-8.059 -19.32,-15.414 -27.15,-15.414 -16.55,0 -26.21,9.203 -26.21,31.281 v 90.625 h 16.56 v -88.32 c 0,-13.809 4.14,-19.786 13.11,-19.786 8.04,0 15.41,5.528 22.77,14.727 v 93.379 h 16.55 V 281.602" /><path
         id="path86"
         style="fill:#2d71c1;fill-opacity:1;fill-rule:nonzero;stroke:none"
         d="m 2642.04,401.211 h 16.56 v -14.492 h 0.46 c 9.9,14.492 17.26,16.785 30.36,16.785 v -15.633 c -12.42,0 -21.84,-4.141 -30.82,-21.164 v -85.105 h -16.56 v 119.609" /><path
         id="path88"
         style="fill:#2d71c1;fill-opacity:1;fill-rule:nonzero;stroke:none"
         d="M 2707.36,401.211 H 2723 v -13.117 c 7.82,8.058 19.32,15.41 27.14,15.41 16.56,0 26.22,-9.199 26.22,-31.277 v -90.625 h -16.56 v 88.32 c 0,13.808 -4.14,19.785 -13.11,19.785 -8.05,0 -15.41,-5.519 -22.76,-14.727 v -93.378 h -16.57 v 119.609" /><path
         id="path90"
         style="fill:#2d71c1;fill-opacity:1;fill-rule:nonzero;stroke:none"
         d="m 2855.94,370.848 c -2.99,10.343 -7.36,18.859 -20.7,18.859 -7.82,0 -13.34,-6.211 -13.34,-14.258 0,-24.375 50.6,-25.761 50.6,-63.027 0,-18.859 -13.8,-33.117 -32.66,-33.117 -21.62,0 -32.43,11.73 -38.18,31.742 l 15.18,3.219 c 3.45,-10.575 9.66,-21.161 21.85,-21.161 8.97,0 17.25,8.282 17.25,18.172 0,27.602 -50.6,28.059 -50.6,63.254 0,15.633 12.88,28.973 31.05,28.973 18.4,0 29.44,-10.574 33.35,-28.524 l -13.8,-4.132" /><path
         id="path92"
         style="fill:#2d71c1;fill-opacity:1;fill-rule:nonzero;stroke:none"
         d="m 3016.71,397.527 c -2.31,26.223 -10.59,37.258 -24.61,37.258 -20.93,0 -30.14,-18.398 -30.14,-70.148 0,-51.746 9.21,-70.145 30.14,-70.145 16.79,0 26.44,11.492 26.9,42.313 h 17.94 c -0.46,-36.805 -16.55,-57.5 -44.84,-57.5 -29.67,0 -48.08,22.539 -48.08,85.332 0,62.785 18.41,85.332 48.08,85.332 24.61,0 39.78,-17.02 42.55,-52.442 h -17.94" /><path
         id="path94"
         style="fill:#2d71c1;fill-opacity:1;fill-rule:nonzero;stroke:none"
         d="m 3093.07,293.105 c 14.03,0 20.01,8.739 20.01,48.301 0,39.559 -5.98,48.301 -20.01,48.301 -14.04,0 -20.01,-8.742 -20.01,-48.301 0,-39.562 5.97,-48.301 20.01,-48.301 z m 0,110.399 c 25.06,0 36.57,-18.856 36.57,-62.098 0,-43.242 -11.51,-62.101 -36.57,-62.101 -25.07,0 -36.58,18.859 -36.58,62.101 0,43.242 11.51,62.098 36.58,62.098" /><path
         id="path96"
         style="fill:#2d71c1;fill-opacity:1;fill-rule:nonzero;stroke:none"
         d="m 3155.17,447.664 h 16.56 V 281.602 h -16.56 v 166.062" /><path
         id="path98"
         style="fill:#2d71c1;fill-opacity:1;fill-rule:nonzero;stroke:none"
         d="m 3206.22,447.664 h 16.56 V 281.602 h -16.56 v 166.062" /><path
         id="path100"
         style="fill:#2d71c1;fill-opacity:1;fill-rule:nonzero;stroke:none"
         d="m 3304.66,352.441 c -0.46,25.762 -5.06,37.266 -20.01,37.266 -11.96,0 -19.78,-8.742 -20.01,-37.266 z m -40.02,-13.789 v -6.679 c 0,-29.2 6.67,-38.868 22.31,-38.868 12.65,0 17.94,11.739 20.01,22.54 l 15.64,-1.836 c -2.53,-17.942 -16.1,-34.504 -37.95,-34.504 -25.07,0 -36.57,18.859 -36.57,62.101 0,43.242 11.5,62.098 36.57,62.098 25.3,0 36.57,-22.539 36.57,-57.039 v -7.813 h -56.58" /><path
         id="path102"
         style="fill:#2d71c1;fill-opacity:1;fill-rule:nonzero;stroke:none"
         d="m 3379.18,330.82 c 9.66,0 17.48,7.364 17.48,30.137 0,22.773 -7.82,30.137 -17.48,30.137 -9.66,0 -17.48,-7.364 -17.48,-30.137 0,-22.773 7.82,-30.137 17.48,-30.137 z m -7.35,-42.773 c -9.67,-4.141 -16.11,-9.66 -16.11,-16.328 0,-9.895 8.28,-16.797 26.22,-16.797 18.4,0 24.85,7.363 24.85,17.031 0,11.035 -20.71,12.871 -34.96,16.094 z m 51.51,100.281 c -1.84,0.461 -3.21,0.461 -4.82,0.461 -4.38,0 -7.37,-1.836 -10.36,-4.601 2.3,-7.364 3.69,-13.34 3.69,-22.997 0,-29.902 -13.8,-42.785 -32.21,-42.785 -3.67,0 -7.35,0.918 -11.04,0.918 -2.76,-0.691 -8.28,-3.211 -8.28,-7.82 0,-8.508 13.58,-8.965 28.99,-12.188 17.24,-3.683 32.65,-9.199 32.65,-28.75 0,-15.644 -15.17,-28.066 -40.48,-28.066 -27.13,0 -40.94,10.129 -40.94,25.762 0,10.586 6.68,19.328 17.48,23.926 -7.13,2.304 -12.87,8.046 -12.87,16.093 0,8.977 7.81,14.492 15.63,15.879 -9.43,6.66 -14.26,21.848 -14.26,34.266 0,28.527 13.8,45.078 34.73,45.078 7.82,0 17.94,-3.445 21.86,-11.043 3.68,6.445 10.11,11.043 20.23,11.043 v -15.176" /><path
         id="path104"
         style="fill:#2d71c1;fill-opacity:1;fill-rule:nonzero;stroke:none"
         d="m 3496.25,352.441 c -0.46,25.762 -5.06,37.266 -20.01,37.266 -11.96,0 -19.78,-8.742 -20.01,-37.266 z m -40.02,-13.789 v -6.679 c 0,-29.2 6.67,-38.868 22.31,-38.868 12.65,0 17.94,11.739 20.01,22.54 l 15.64,-1.836 c -2.53,-17.942 -16.09,-34.504 -37.95,-34.504 -25.07,0 -36.57,18.859 -36.57,62.101 0,43.242 11.5,62.098 36.57,62.098 25.3,0 36.57,-22.539 36.57,-57.039 v -7.813 h -56.58" /><path
         id="path106"
         style="fill:#2d71c1;fill-opacity:1;fill-rule:nonzero;stroke:none"
         d="m 2364.9,50.6055 c 14.03,0 20,8.7383 20,48.3008 0,39.5627 -5.97,48.3007 -20,48.3007 -14.03,0 -20.02,-8.738 -20.02,-48.3007 0,-39.5625 5.99,-48.3008 20.02,-48.3008 z m 0,110.4025 c 25.07,0 36.56,-18.871 36.56,-62.1017 0,-43.2422 -11.49,-62.1094 -36.56,-62.1094 -25.08,0 -36.57,18.8672 -36.57,62.1094 0,43.2307 11.49,62.1017 36.57,62.1017" /><path
         id="path108"
         style="fill:#2d71c1;fill-opacity:1;fill-rule:nonzero;stroke:none"
         d="m 2413.89,158.699 h 18.4 v 24.387 c 0,16.094 6.44,24.375 24.37,24.375 4.38,0 8.97,-0.684 12.89,-1.375 v -12.883 c -2.99,1.375 -5.99,1.836 -8.97,1.836 -8.06,0 -11.73,-5.059 -11.73,-12.648 v -23.692 h 19.31 v -13.797 h -19.31 V 39.1016 h -16.56 V 144.902 h -18.4 v 13.797" /><path
         id="path110"
         style="fill:#2d71c1;fill-opacity:1;fill-rule:nonzero;stroke:none"
         d="M 2615.82,205.164 V 189.98 h -57.96 v -56.582 h 42.78 v -15.175 h -42.78 V 54.2773 h 60.72 V 39.1016 h -78.66 V 205.164 h 75.9" /><path
         id="path112"
         style="fill:#2d71c1;fill-opacity:1;fill-rule:nonzero;stroke:none"
         d="m 2643.42,158.699 h 15.63 v -13.105 c 7.83,8.047 19.33,15.414 27.14,15.414 16.56,0 26.22,-9.203 26.22,-31.281 V 39.1016 h -16.55 v 88.3204 c 0,13.797 -4.14,19.785 -13.12,19.785 -8.04,0 -15.41,-5.527 -22.76,-14.727 V 39.1016 h -16.56 V 158.699" /><path
         id="path114"
         style="fill:#2d71c1;fill-opacity:1;fill-rule:nonzero;stroke:none"
         d="m 2778.65,88.3203 c 9.66,0 17.48,7.3633 17.48,30.1367 0,22.762 -7.82,30.129 -17.48,30.129 -9.66,0 -17.48,-7.367 -17.48,-30.129 0,-22.7734 7.82,-30.1367 17.48,-30.1367 z m -7.35,-42.7851 c -9.67,-4.1289 -16.1,-9.6563 -16.1,-16.3243 0,-9.8867 8.28,-16.789 26.22,-16.789 18.39,0 24.84,7.3633 24.84,17.0195 0,11.0352 -20.7,12.8828 -34.96,16.0938 z m 51.51,100.2848 c -1.83,0.457 -3.21,0.457 -4.82,0.457 -4.38,0 -7.36,-1.836 -10.35,-4.597 2.29,-7.356 3.68,-13.34 3.68,-23 0,-29.9027 -13.8,-42.7816 -32.21,-42.7816 -3.67,0 -7.35,0.9258 -11.03,0.9258 -2.77,-0.6914 -8.29,-3.2226 -8.29,-7.8203 0,-8.5156 13.58,-8.9766 28.99,-12.1875 17.25,-3.6836 32.66,-9.2109 32.66,-28.75 C 2821.44,12.4219 2806.26,0 2780.96,0 c -27.14,0 -40.95,10.1172 -40.95,25.7617 0,10.5781 6.68,19.3164 17.48,23.9141 -7.13,2.3047 -12.87,8.0586 -12.87,16.1055 0,8.9765 7.81,14.4921 15.63,15.8671 -9.43,6.6719 -14.25,21.8596 -14.25,34.2696 0,28.523 13.79,45.09 34.72,45.09 7.82,0 17.94,-3.457 21.86,-11.047 3.68,6.445 10.12,11.047 20.23,11.047 V 145.82" /><path
         id="path116"
         style="fill:#2d71c1;fill-opacity:1;fill-rule:nonzero;stroke:none"
         d="m 2848.34,158.699 h 16.56 V 39.1016 h -16.56 z m 0,46.465 h 16.56 V 185.84 h -16.56 v 19.324" /><path
         id="path118"
         style="fill:#2d71c1;fill-opacity:1;fill-rule:nonzero;stroke:none"
         d="m 2898.71,158.699 h 15.64 v -13.105 c 7.82,8.047 19.32,15.414 27.13,15.414 16.57,0 26.23,-9.203 26.23,-31.281 V 39.1016 h -16.56 v 88.3204 c 0,13.797 -4.14,19.785 -13.11,19.785 -8.05,0 -15.41,-5.527 -22.77,-14.727 V 39.1016 h -16.56 V 158.699" /><path
         id="path120"
         style="fill:#2d71c1;fill-opacity:1;fill-rule:nonzero;stroke:none"
         d="m 3048.9,109.941 c -0.46,25.762 -5.06,37.266 -20.01,37.266 -11.97,0 -19.78,-8.738 -20.01,-37.266 z m -40.02,-13.8004 v -6.6679 c 0,-29.211 6.67,-38.8672 22.31,-38.8672 12.65,0 17.94,11.7304 20.01,22.539 l 15.64,-1.8437 c -2.53,-17.9414 -16.1,-34.5039 -37.95,-34.5039 -25.07,0 -36.58,18.8672 -36.58,62.1094 0,43.2307 11.51,62.1017 36.58,62.1017 25.3,0 36.57,-22.539 36.57,-57.043 v -7.8244 h -56.58" /><path
         id="path122"
         style="fill:#2d71c1;fill-opacity:1;fill-rule:nonzero;stroke:none"
         d="m 3138.37,109.941 c -0.46,25.762 -5.06,37.266 -20.01,37.266 -11.96,0 -19.78,-8.738 -20.01,-37.266 z m -40.02,-13.8004 v -6.6679 c 0,-29.211 6.67,-38.8672 22.31,-38.8672 12.65,0 17.94,11.7304 20.01,22.539 l 15.64,-1.8437 c -2.53,-17.9414 -16.1,-34.5039 -37.95,-34.5039 -25.07,0 -36.57,18.8672 -36.57,62.1094 0,43.2307 11.5,62.1017 36.57,62.1017 25.3,0 36.57,-22.539 36.57,-57.043 v -7.8244 h -56.58" /><path
         id="path124"
         style="fill:#2d71c1;fill-opacity:1;fill-rule:nonzero;stroke:none"
         d="m 3178.39,158.699 h 16.56 v -14.488 h 0.46 c 9.89,14.488 17.26,16.797 30.36,16.797 v -15.649 c -12.42,0 -21.84,-4.14 -30.82,-21.16 V 39.1016 h -16.56 V 158.699" /><path
         id="path126"
         style="fill:#2d71c1;fill-opacity:1;fill-rule:nonzero;stroke:none"
         d="m 3244.39,158.699 h 16.57 V 39.1016 h -16.57 z m 0,46.465 h 16.57 V 185.84 h -16.57 v 19.324" /><path
         id="path128"
         style="fill:#2d71c1;fill-opacity:1;fill-rule:nonzero;stroke:none"
         d="m 3294.77,158.699 h 15.63 v -13.105 c 7.82,8.047 19.33,15.414 27.14,15.414 16.56,0 26.22,-9.203 26.22,-31.281 V 39.1016 h -16.55 v 88.3204 c 0,13.797 -4.14,19.785 -13.12,19.785 -8.05,0 -15.41,-5.527 -22.76,-14.727 V 39.1016 h -16.56 V 158.699" /><path
         id="path130"
         style="fill:#2d71c1;fill-opacity:1;fill-rule:nonzero;stroke:none"
         d="m 3430,88.3203 c 9.66,0 17.48,7.3633 17.48,30.1367 0,22.762 -7.82,30.129 -17.48,30.129 -9.66,0 -17.48,-7.367 -17.48,-30.129 0,-22.7734 7.82,-30.1367 17.48,-30.1367 z m -7.35,-42.7851 c -9.67,-4.1289 -16.11,-9.6563 -16.11,-16.3243 0,-9.8867 8.28,-16.789 26.22,-16.789 18.4,0 24.85,7.3633 24.85,17.0195 0,11.0352 -20.71,12.8828 -34.96,16.0938 z m 51.51,100.2848 c -1.84,0.457 -3.21,0.457 -4.82,0.457 -4.38,0 -7.37,-1.836 -10.36,-4.597 2.3,-7.356 3.69,-13.34 3.69,-23 0,-29.9027 -13.8,-42.7816 -32.21,-42.7816 -3.67,0 -7.35,0.9258 -11.04,0.9258 -2.76,-0.6914 -8.28,-3.2226 -8.28,-7.8203 0,-8.5156 13.58,-8.9766 28.99,-12.1875 17.24,-3.6836 32.65,-9.2109 32.65,-28.75 C 3472.78,12.4219 3457.61,0 3432.3,0 c -27.13,0 -40.94,10.1172 -40.94,25.7617 0,10.5781 6.68,19.3164 17.48,23.9141 -7.13,2.3047 -12.87,8.0586 -12.87,16.1055 0,8.9765 7.81,14.4921 15.63,15.8671 -9.43,6.6719 -14.26,21.8596 -14.26,34.2696 0,28.523 13.8,45.09 34.73,45.09 7.82,0 17.94,-3.457 21.86,-11.047 3.68,6.445 10.11,11.047 20.23,11.047 V 145.82" /><path
         id="path132"
         style="fill:#fab20b;fill-opacity:1;fill-rule:nonzero;stroke:none"
         d="m 2228.93,447.82 h 16.56 V 22.5078 h -16.56 V 447.82" /></g></g></svg>