<?xml version="1.0" encoding="UTF-8" standalone="no"?>
<svg
   xmlns:dc="http://purl.org/dc/elements/1.1/"
   xmlns:cc="http://creativecommons.org/ns#"
   xmlns:rdf="http://www.w3.org/1999/02/22-rdf-syntax-ns#"
   xmlns:svg="http://www.w3.org/2000/svg"
   xmlns="http://www.w3.org/2000/svg"
   viewBox="0 0 486.46667 56.493332"
   height="56.493332"
   width="486.46667"
   xml:space="preserve"
   id="svg2"
   version="1.1"><metadata
     id="metadata8"><rdf:RDF><cc:Work
         rdf:about=""><dc:format>image/svg+xml</dc:format><dc:type
           rdf:resource="http://purl.org/dc/dcmitype/StillImage" /></cc:Work></rdf:RDF></metadata><defs
     id="defs6" /><g
     transform="matrix(1.3333333,0,0,-1.3333333,0,56.493333)"
     id="g10"><g
       transform="scale(0.1)"
       id="g12"><path
         id="path14"
         style="fill:#2d71c1;fill-opacity:1;fill-rule:nonzero;stroke:none"
         d="m 721.289,418.07 v -46.054 c 0,-7.559 5.41,-13.887 15.606,-13.887 10.214,0 15.625,6.328 15.625,13.887 v 46.054 h 7.226 v -45.507 c 0,-12.989 -9.394,-20.586 -22.851,-20.586 -13.438,0 -22.832,7.597 -22.832,20.586 v 45.507 h 7.226" /><path
         id="path16"
         style="fill:#2d71c1;fill-opacity:1;fill-rule:nonzero;stroke:none"
         d="m 790.605,352.895 v 65.175 h 10.391 l 28.457,-50.195 h 0.352 v 50.195 h 6.484 v -65.175 h -5.937 l -33.047,58.144 h -0.176 v -58.144 h -6.524" /><path
         id="path18"
         style="fill:#2d71c1;fill-opacity:1;fill-rule:nonzero;stroke:none"
         d="m 876.016,418.07 v -65.175 h -7.227 v 65.175 h 7.227" /><path
         id="path20"
         style="fill:#2d71c1;fill-opacity:1;fill-rule:nonzero;stroke:none"
         d="m 900.488,418.07 h 7.207 l 16.075,-53.437 h 0.195 l 16.152,53.437 h 7.305 l -20.215,-65.175 h -6.582 l -20.137,65.175" /><path
         id="path22"
         style="fill:#2d71c1;fill-opacity:1;fill-rule:nonzero;stroke:none"
         d="m 1009.28,418.07 v -6.132 h -31.878 v -21.856 h 22.658 v -6.133 h -22.658 v -24.922 h 33.668 v -6.132 h -40.894 v 65.175 h 39.104" /><path
         id="path24"
         style="fill:#2d71c1;fill-opacity:1;fill-rule:nonzero;stroke:none"
         d="m 1043.22,388.637 h 13.07 c 9.94,0 15.17,3.691 15.17,11.914 0,8.75 -5.95,11.387 -15.25,11.387 h -12.99 z M 1036,352.895 v 65.175 h 20.93 c 14.09,0 21.76,-6.308 21.76,-17.148 0,-9.219 -5.33,-14.453 -12.99,-16.973 l 13.81,-31.054 h -7.87 l -13.16,29.609 h -15.26 V 352.895 H 1036" /><path
         id="path26"
         style="fill:#2d71c1;fill-opacity:1;fill-rule:nonzero;stroke:none"
         d="m 1139,401.449 c -1.64,6.328 -6.77,11.387 -15.15,11.387 -7.62,0 -12.11,-3.613 -12.21,-10.117 -0.18,-14.258 36.64,-10.664 36.64,-31.602 0,-9.472 -5.31,-19.14 -21.91,-19.14 -14.28,0 -19.87,9.218 -23.3,16.992 l 6.6,2.324 c 2.6,-6.836 7.48,-13.164 17.07,-13.164 9.55,0 14.33,5.059 14.33,11.738 0,16.602 -36.66,11.738 -36.66,32.305 0,9.394 7.86,16.797 19.61,16.797 10.1,0 18.05,-5.313 21.47,-16.074 l -6.49,-1.446" /><path
         id="path28"
         style="fill:#2d71c1;fill-opacity:1;fill-rule:nonzero;stroke:none"
         d="m 1183.67,418.07 v -65.175 h -7.21 v 65.175 h 7.21" /><path
         id="path30"
         style="fill:#2d71c1;fill-opacity:1;fill-rule:nonzero;stroke:none"
         d="m 1235.23,411.938 v -59.043 h -7.2 v 59.043 h -19.51 v 6.132 h 46.21 v -6.132 h -19.5" /><path
         id="path32"
         style="fill:#2d71c1;fill-opacity:1;fill-rule:nonzero;stroke:none"
         d="m 1289.57,380.336 -20.02,37.734 h 7.93 l 15.7,-29.882 15.73,29.882 h 7.93 l -20.02,-37.734 v -27.441 h -7.25 v 27.441" /><path
         id="path34"
         style="fill:#2d71c1;fill-opacity:1;fill-rule:nonzero;stroke:none"
         d="m 1398.61,358.129 c 11.49,0 18.27,8.848 18.27,27.344 0,18.515 -6.78,27.363 -18.27,27.363 -11.44,0 -18.22,-8.848 -18.22,-27.363 0,-18.496 6.78,-27.344 18.22,-27.344 z m 0,60.84 c 16,0 25.49,-11.739 25.49,-33.496 0,-21.758 -9.49,-33.496 -25.49,-33.496 -15.95,0 -25.43,11.738 -25.43,33.496 0,21.757 9.48,33.496 25.43,33.496" /><path
         id="path36"
         style="fill:#2d71c1;fill-opacity:1;fill-rule:nonzero;stroke:none"
         d="m 1487.83,418.07 v -6.132 h -31.42 v -21.856 h 23.3 v -6.133 h -23.3 v -31.054 h -7.21 v 65.175 h 38.63" /><path
         id="path38"
         style="fill:#2d71c1;fill-opacity:1;fill-rule:nonzero;stroke:none"
         d="m 1592.29,372.387 c -2.9,-12.09 -9.58,-20.41 -22.93,-20.41 -14.63,0 -24.95,10.664 -24.95,33.496 0,21.211 9.22,33.496 24.95,33.496 12.1,0 19.14,-7.031 22.03,-18.946 l -6.68,-1.992 c -2.35,9.199 -6.53,14.805 -16.25,14.805 -9.4,0 -16.8,-8.672 -16.8,-27.363 0,-18.868 7.4,-27.344 18.22,-27.344 10.02,0 13.93,7.578 15.9,15.508 l 6.51,-1.25" /><path
         id="path40"
         style="fill:#2d71c1;fill-opacity:1;fill-rule:nonzero;stroke:none"
         d="m 1624.88,379.438 h 19.75 l -9.38,33.574 h -0.99 z m -15.54,-26.543 20.05,65.175 h 10.73 l 20.06,-65.175 h -7.58 l -6.15,20.39 h -23.38 l -6.14,-20.39 h -7.59" /><path
         id="path42"
         style="fill:#2d71c1;fill-opacity:1;fill-rule:nonzero;stroke:none"
         d="m 1683.46,352.895 v 65.175 h 7.24 v -59.043 h 30.84 v -6.132 h -38.08" /><path
         id="path44"
         style="fill:#2d71c1;fill-opacity:1;fill-rule:nonzero;stroke:none"
         d="m 1753.87,418.07 v -65.175 h -7.21 v 65.175 h 7.21" /><path
         id="path46"
         style="fill:#2d71c1;fill-opacity:1;fill-rule:nonzero;stroke:none"
         d="m 1824.38,418.07 v -6.132 h -31.41 v -21.856 h 23.28 v -6.133 h -23.28 v -31.054 h -7.23 v 65.175 h 38.64" /><path
         id="path48"
         style="fill:#2d71c1;fill-opacity:1;fill-rule:nonzero;stroke:none"
         d="m 1868.36,358.129 c 11.46,0 18.22,8.848 18.22,27.344 0,18.515 -6.76,27.363 -18.22,27.363 -11.48,0 -18.24,-8.848 -18.24,-27.363 0,-18.496 6.76,-27.344 18.24,-27.344 z m 0,60.84 c 15.98,0 25.43,-11.739 25.43,-33.496 0,-21.758 -9.45,-33.496 -25.43,-33.496 -16,0 -25.47,11.738 -25.47,33.496 0,21.757 9.47,33.496 25.47,33.496" /><path
         id="path50"
         style="fill:#2d71c1;fill-opacity:1;fill-rule:nonzero;stroke:none"
         d="m 1926.13,388.637 h 13.09 c 9.92,0 15.17,3.691 15.17,11.914 0,8.75 -5.97,11.387 -15.27,11.387 h -12.99 z m -7.22,-35.742 v 65.175 h 20.95 c 14.09,0 21.74,-6.308 21.74,-17.148 0,-9.219 -5.31,-14.453 -12.99,-16.973 l 13.81,-31.054 h -7.85 l -13.18,29.609 h -15.26 v -29.609 h -7.22" /><path
         id="path52"
         style="fill:#2d71c1;fill-opacity:1;fill-rule:nonzero;stroke:none"
         d="m 1991.21,352.895 v 65.175 h 10.37 l 28.46,-50.195 h 0.35 v 50.195 h 6.49 v -65.175 h -5.94 l -33.05,58.144 h -0.18 v -58.144 h -6.5" /><path
         id="path54"
         style="fill:#2d71c1;fill-opacity:1;fill-rule:nonzero;stroke:none"
         d="m 2076.6,418.07 v -65.175 h -7.21 v 65.175 h 7.21" /><path
         id="path56"
         style="fill:#2d71c1;fill-opacity:1;fill-rule:nonzero;stroke:none"
         d="m 2117.15,379.438 h 19.78 l -9.39,33.574 h -1 z m -15.53,-26.543 20.04,65.175 h 10.74 l 20.06,-65.175 h -7.6 l -6.13,20.39 h -23.36 l -6.17,-20.39 h -7.58" /><path
         id="path58"
         style="fill:#2d71c1;fill-opacity:1;fill-rule:nonzero;stroke:none"
         d="M 713.77,6.96875 V 331.527 h 55.742 V 6.96875 H 713.77" /><path
         id="path60"
         style="fill:#2d71c1;fill-opacity:1;fill-rule:nonzero;stroke:none"
         d="m 944.199,331.527 h 54.844 L 931.152,6.96875 H 875.41 L 807.539,331.527 h 54.824 l 40.469,-225.222 h 0.898 l 40.469,225.222" /><path
         id="path62"
         style="fill:#2d71c1;fill-opacity:1;fill-rule:nonzero;stroke:none"
         d="M 1035.59,6.96875 V 331.527 h 149.29 v -48.554 h -93.53 v -83.614 h 71.95 v -48.523 h -71.95 V 55.5039 h 99.82 V 6.96875 h -155.58" /><path
         id="path64"
         style="fill:#2d71c1;fill-opacity:1;fill-rule:nonzero;stroke:none"
         d="m 1290.31,185.875 h 19.79 c 30.11,0 41.36,11.238 41.36,49.91 0,38.653 -11.25,49.883 -41.36,49.883 h -19.79 z m 0,-178.90625 h -55.74 V 331.527 h 78.24 c 62.46,0 94.4,-26.504 94.4,-95.742 0,-52.176 -20.24,-73.269 -39.1,-81.805 L 1415.29,6.96875 h -56.64 L 1319.08,141.383 c -7.19,-0.899 -18.88,-1.348 -28.77,-1.348 V 6.96875" /><path
         id="path66"
         style="fill:#2d71c1;fill-opacity:1;fill-rule:nonzero;stroke:none"
         d="m 1556.7,251.488 c -2.25,27.891 -17.09,35.996 -29.67,35.996 -17.99,0 -27.89,-11.699 -27.89,-31.914 0,-55.312 113.3,-81.824 113.3,-169.9098 0,-53.5157 -35.96,-83.18364 -88.12,-83.18364 -51.7,0 -81.37,41.36724 -83.6,89.92184 l 53.03,7.6366 c 2.25,-32.8319 15.29,-49.0037 33.28,-49.0037 19.32,0 32.36,10.332 32.36,29.6679 0,64.2778 -113.3,81.3868 -113.3,174.4028 0,51.699 31.49,80.918 86.33,80.918 45.41,0 72.37,-32.813 77.33,-78.672 l -53.05,-5.86" /><path
         id="path68"
         style="fill:#2d71c1;fill-opacity:1;fill-rule:nonzero;stroke:none"
         d="M 1660.7,6.96875 V 331.527 h 55.75 V 6.96875 h -55.75" /><path
         id="path70"
         style="fill:#2d71c1;fill-opacity:1;fill-rule:nonzero;stroke:none"
         d="m 1834.43,52.8281 h 19.32 c 29.69,0 40.02,11.2305 40.02,45.4102 V 240.277 c 0,34.161 -10.33,45.391 -40.02,45.391 h -19.32 z m -55.76,278.6989 h 82.74 c 57.55,0 88.1,-31.464 88.1,-98.007 V 104.977 c 0,-66.5434 -30.55,-98.00825 -88.1,-98.00825 h -82.74 V 331.527" /><path
         id="path72"
         style="fill:#2d71c1;fill-opacity:1;fill-rule:nonzero;stroke:none"
         d="M 2004.45,6.96875 V 331.527 h 149.26 v -48.554 h -93.51 v -83.614 h 71.93 V 150.836 H 2060.2 V 55.5039 H 2160 V 6.96875 h -155.55" /><path
         id="path74"
         style="fill:#fab20b;fill-opacity:1;fill-rule:nonzero;stroke:none"
         d="M 0,331.859 H 55.1172 V 89.6055 c 0,-23.5547 9.3359,-35.1172 29.3359,-35.1172 19.9999,0 29.3359,11.5625 29.3359,35.1172 V 331.859 h 55.125 V 91.832 c 0,-55.1172 -32,-85.35153 -84.4609,-85.35153 C 32.0039,6.48047 0,36.7148 0,91.832 v 240.027" /><path
         id="path76"
         style="fill:#fab20b;fill-opacity:1;fill-rule:nonzero;stroke:none"
         d="m 333.387,224.73 v 24.883 c 0,27.129 -12.449,38.672 -26.668,38.672 -22.227,0 -29.336,-11.543 -29.336,-35.566 V 90.0547 c 0,-24.0039 7.109,-35.5664 29.336,-35.5664 20,0 26.668,11.5625 26.668,32.4609 v 38.6718 h 55.129 V 88.7266 c 0,-45.3516 -26.68,-82.24613 -81.797,-82.24613 -57.793,0 -84.453,36.89453 -84.453,82.24613 V 254.066 c 0,45.332 26.66,82.227 84.453,82.227 55.117,0 81.797,-40 81.797,-88.008 V 224.73 h -55.129" /><path
         id="path78"
         style="fill:#2d71c1;fill-opacity:1;fill-rule:nonzero;stroke:none"
         d="m 613.809,195.961 c 24.218,10.937 50.156,38.027 50.156,104.902 0,88.789 -40.899,122.813 -121.035,122.813 h -26.289 l 11.523,-72.285 42.324,65.898 0.684,-0.137 -26.504,-78.789 70.957,43.477 0.43,-0.488 -58.223,-59.493 98.789,12.11 0.059,-0.664 -94.141,-32.012 94.316,-32.715 -0.234,-0.586 -98.789,12.735 58.164,-59.473 -0.391,-0.43 -70.937,43.379 26.523,-78.719 -0.468,-0.293 -42.129,65.34 -11.934,-72.449 c 12.07,0.078 25.723,0.645 34.317,1.699 L 601.738,7.41797 h 72.617 z M 514.277,423.676 H 442.578 V 7.39844 h 71.504 l 0.195,416.27756" /><path
         id="path80"
         style="fill:#fbc907;fill-opacity:1;fill-rule:nonzero;stroke:none"
         d="M 2223.54,416.664 V 0" /><path
         id="path82"
         style="fill:none;stroke:#fab20b;stroke-width:30;stroke-linecap:butt;stroke-linejoin:miter;stroke-miterlimit:4;stroke-dasharray:none;stroke-opacity:1"
         d="M 2223.54,416.664 V 0" /><path
         id="path84"
         style="fill:#2d71c1;fill-opacity:1;fill-rule:nonzero;stroke:none"
         d="m 2423.55,234.27 v 24.617 c 0,26.812 -12.31,38.242 -26.37,38.242 -21.98,0 -29.01,-11.43 -29.01,-35.168 V 101.09 c 0,-23.7306 7.03,-35.1603 29.01,-35.1603 19.77,0 26.37,11.4297 26.37,32.0859 v 38.2424 h 54.51 V 99.7695 c 0,-44.832 -26.38,-81.3086 -80.88,-81.3086 -57.14,0 -83.52,36.4766 -83.52,81.3086 V 263.277 c 0,44.836 26.38,81.321 83.52,81.321 54.5,0 80.88,-39.559 80.88,-87.032 V 234.27 h -54.51" /><path
         id="path86"
         style="fill:#2d71c1;fill-opacity:1;fill-rule:nonzero;stroke:none"
         d="M 2533.43,22.8555 V 340.195 h 145.93 v -47.468 h -91.42 v -81.754 h 70.32 v -47.469 h -70.32 V 70.3203 h 97.58 V 22.8555 h -152.09" /><path
         id="path88"
         style="fill:#2d71c1;fill-opacity:1;fill-rule:nonzero;stroke:none"
         d="m 2721.56,120.871 v 40.434 h 107.67 v -40.434 h -107.67" /><path
         id="path90"
         style="fill:#2d71c1;fill-opacity:1;fill-rule:nonzero;stroke:none"
         d="m 2984.83,234.27 v 24.617 c 0,26.812 -12.31,38.242 -26.37,38.242 -21.98,0 -29,-11.43 -29,-35.168 V 101.09 c 0,-23.7306 7.02,-35.1603 29,-35.1603 19.78,0 26.37,11.4297 26.37,32.0859 v 38.2424 h 54.52 V 99.7695 c 0,-44.832 -26.39,-81.3086 -80.89,-81.3086 -57.13,0 -83.51,36.4766 -83.51,81.3086 V 263.277 c 0,44.836 26.38,81.321 83.51,81.321 54.5,0 80.89,-39.559 80.89,-87.032 V 234.27 h -54.52" /><path
         id="path92"
         style="fill:#2d71c1;fill-opacity:1;fill-rule:nonzero;stroke:none"
         d="M 3094.71,22.8555 V 340.195 h 145.93 v -47.468 h -91.41 v -81.754 h 70.32 v -47.469 h -70.32 V 70.3203 h 97.57 V 22.8555 h -152.09" /><path
         id="path94"
         style="fill:#2d71c1;fill-opacity:1;fill-rule:nonzero;stroke:none"
         d="m 3344.38,197.789 h 19.33 c 29.45,0 40.44,10.984 40.44,48.789 0,37.801 -10.99,48.785 -40.44,48.785 h -19.33 z m 0,-174.9335 h -54.51 V 340.195 h 76.48 c 61.1,0 92.3,-25.929 92.3,-93.617 0,-50.988 -19.78,-71.644 -38.24,-80 l 46.15,-143.7225 h -55.38 l -38.67,131.4215 c -7.04,-0.882 -18.47,-1.32 -28.13,-1.32 V 22.8555" /><path
         id="path96"
         style="fill:#2d71c1;fill-opacity:1;fill-rule:nonzero;stroke:none"
         d="m 3541.29,292.727 h -52.75 v 47.468 h 160 v -47.468 h -52.75 V 22.8555 h -54.5 V 292.727" /></g></g></svg>