<?xml version="1.0" encoding="UTF-8" standalone="no"?>
<svg
   xmlns:dc="http://purl.org/dc/elements/1.1/"
   xmlns:cc="http://creativecommons.org/ns#"
   xmlns:rdf="http://www.w3.org/1999/02/22-rdf-syntax-ns#"
   xmlns:svg="http://www.w3.org/2000/svg"
   xmlns="http://www.w3.org/2000/svg"
   viewBox="0 0 368.33334 94.533333"
   height="94.533333"
   width="368.33334"
   xml:space="preserve"
   id="svg2"
   version="1.1"><metadata
     id="metadata8"><rdf:RDF><cc:Work
         rdf:about=""><dc:format>image/svg+xml</dc:format><dc:type
           rdf:resource="http://purl.org/dc/dcmitype/StillImage" /></cc:Work></rdf:RDF></metadata><defs
     id="defs6" /><g
     transform="matrix(1.3333333,0,0,-1.3333333,0,94.533333)"
     id="g10"><g
       transform="scale(0.1)"
       id="g12"><g
         transform="scale(10)"
         id="g14"><text
           id="text18"
           style="font-variant:normal;font-weight:500;font-size:18px;font-family:DIN;-inkscape-font-specification:DIN-Medium;writing-mode:lr-tb;fill:#7b7678;fill-opacity:1;fill-rule:nonzero;stroke:none"
           transform="matrix(1,0,0,-1,135.543,3.79727)"><tspan
             id="tspan16"
             y="0"
             x="0 15.966297 25.847643 32.183983 41.544136 47.321972 51.821972 67.787766 77.507996 87.641777 97.523613 102.02361 111.90498 121.62518 130.78712">metal made easy</tspan></text>
</g><path
         id="path20"
         style="fill:#7b7678;fill-opacity:1;fill-rule:nonzero;stroke:none"
         d="M 1303.74,40.5469 H 2.06641 V 127.207 H 1303.74 V 40.5469" /><path
         id="path22"
         style="fill:#2a3783;fill-opacity:1;fill-rule:nonzero;stroke:none"
         d="M 0,708.965 H 471.809 V 237.109 H 0 v 471.856" /><path
         id="path24"
         style="fill:#2a3783;fill-opacity:1;fill-rule:nonzero;stroke:none"
         d="m 569.957,692.363 h 51.172 V 482.051 h -51.172 v 210.312" /><path
         id="path26"
         style="fill:#2a3783;fill-opacity:1;fill-rule:nonzero;stroke:none"
         d="m 764.863,482.031 -69.48,103.418 V 482.031 H 650.16 v 185.645 h 41.27 l 67.91,-103.164 v 103.164 h 45.223 V 482.031 h -39.7" /><path
         id="path28"
         style="fill:#2a3783;fill-opacity:1;fill-rule:nonzero;stroke:none"
         d="M 876.887,628.105 V 522.793 c 25.551,0 43.468,4.062 53.804,12.168 10.332,8.086 15.516,21.289 15.516,39.59 0,18.457 -3.91,31.426 -11.711,38.926 -10.094,9.765 -29.293,14.628 -57.609,14.628 m 23.968,-146.054 h -69.191 v 185.625 h 63.191 c 33.071,0 57.879,-8.887 74.399,-26.621 14.988,-16.035 22.461,-38.223 22.461,-66.582 0,-14.453 -1.996,-27.422 -6,-38.926 -5.41,-15.488 -14.192,-27.754 -26.391,-36.817 -15.14,-11.113 -34.617,-16.679 -58.469,-16.679" /><path
         id="path30"
         style="fill:#2a3783;fill-opacity:1;fill-rule:nonzero;stroke:none"
         d="m 1010.5,551.445 v 116.231 h 45.81 V 553.223 c 0,-12.207 1.72,-20.528 5.19,-24.961 3.46,-4.434 9.02,-6.66 16.64,-6.66 15.59,0 23.4,10.546 23.4,31.621 v 114.453 h 45.52 V 551.445 c 0,-21.757 -5.78,-39.023 -17.27,-51.699 -12.17,-13.594 -29.48,-20.391 -51.94,-20.391 -24.55,0 -42.29,6.797 -53.25,20.391 -9.41,11.641 -14.1,28.887 -14.1,51.699" /><path
         id="path32"
         style="fill:#2a3783;fill-opacity:1;fill-rule:nonzero;stroke:none"
         d="m 1165.98,539.492 v 3.653 h 43.43 c 0,-8.711 1.56,-15 4.73,-18.926 3.12,-3.926 7.23,-5.879 12.29,-5.879 4.7,0 8.65,1.035 11.77,3.125 4.02,2.773 6.01,6.875 6.01,12.265 0,4.688 -0.95,8.34 -2.85,10.958 -2.46,3.3 -8.03,7.031 -16.75,11.23 -13.94,6.074 -22.31,9.902 -25.09,11.465 -9.07,5.058 -16.37,11.484 -21.93,19.316 -2.98,4.356 -5.13,8.653 -6.55,12.91 -1.38,4.258 -2.08,9.356 -2.08,15.274 0,14.433 5.13,27.031 15.4,37.851 11.84,12.344 27.51,18.516 47,18.516 16.17,0 29.26,-4.102 39.17,-12.246 12.01,-9.902 18.02,-24.863 18.02,-44.824 h -41.66 c 0,4.824 -1.29,8.847 -3.94,12.129 -3.16,3.769 -7.43,5.664 -12.86,5.664 -3.68,0 -6.84,-1.035 -9.46,-3.125 -3.52,-2.774 -5.26,-6.524 -5.26,-11.211 0,-4.18 1.71,-7.774 5.08,-10.821 3.39,-3.027 10.23,-7.089 20.52,-12.109 5.04,-2.441 9.49,-4.687 13.33,-6.777 3.83,-2.09 6.95,-3.828 9.39,-5.196 9.05,-5.41 15.74,-11.933 20.1,-19.55 4.36,-7.676 6.55,-15.996 6.55,-25.02 0,-14.961 -5.14,-28.164 -15.42,-39.629 -12.03,-13.379 -28.13,-20.078 -48.33,-20.078 -18.81,0 -33.44,4.883 -43.88,14.629 -11.16,10.41 -16.73,25.898 -16.73,46.406" /><path
         id="path34"
         style="fill:#2a3783;fill-opacity:1;fill-rule:nonzero;stroke:none"
         d="m 1412.87,624.844 h -35.11 V 482.031 h -45.53 v 142.813 h -34.8 v 42.832 h 115.44 v -42.832" /><path
         id="path36"
         style="fill:#2a3783;fill-opacity:1;fill-rule:nonzero;stroke:none"
         d="m 1471.66,626.328 v -44.629 c 15.98,0 27.09,1.563 33.28,4.727 6.17,3.164 9.25,9.121 9.25,17.851 0,8.223 -2.26,13.731 -6.79,16.543 -5.92,3.653 -17.82,5.508 -35.74,5.508 m 35.76,-144.297 -35.76,59.512 v -59.512 h -45.23 v 185.645 h 61.59 c 27.31,0 46.88,-6.641 58.71,-19.903 9.05,-10.117 13.58,-24.082 13.58,-41.875 0,-30.195 -14.12,-50.507 -42.33,-60.976 l 45.57,-62.891 h -56.13" /><path
         id="path38"
         style="fill:#2a3783;fill-opacity:1;fill-rule:nonzero;stroke:none"
         d="m 1577.4,667.676 h 45.22 V 482.031 h -45.22 v 185.645" /><path
         id="path40"
         style="fill:#2a3783;fill-opacity:1;fill-rule:nonzero;stroke:none"
         d="m 1722,607.129 -18.57,-59.941 h 36.89 z m 39.63,-125.078 -9.14,27.07 h -61.11 l -9.92,-27.07 h -49.36 l 71.37,185.625 h 36.85 l 71.45,-185.625 h -50.14" /><path
         id="path42"
         style="fill:#2a3783;fill-opacity:1;fill-rule:nonzero;stroke:none"
         d="m 1861.39,522.793 h 53.05 v -40.762 h -98.56 v 185.645 h 45.51 V 522.793" /><path
         id="path44"
         style="fill:#2a3783;fill-opacity:1;fill-rule:nonzero;stroke:none"
         d="M 2082.73,482.031 2039.5,621.445 V 482.031 h -48.49 v 210.332 h 70.43 l 39.94,-128.925 40.25,128.925 h 70.71 V 482.031 h -49.07 v 139.414 l -44.1,-139.414 h -36.44" /><path
         id="path46"
         style="fill:#2a3783;fill-opacity:1;fill-rule:nonzero;stroke:none"
         d="m 2281.31,522.793 h 55.39 v -40.762 h -100.91 v 185.645 h 100.91 v -40.762 h -55.39 v -30.351 h 55.39 v -41.329 h -55.39 v -32.441" /><path
         id="path48"
         style="fill:#2a3783;fill-opacity:1;fill-rule:nonzero;stroke:none"
         d="m 2464.23,624.844 h -35.1 V 482.031 h -45.52 v 142.813 h -34.81 v 42.832 h 115.43 v -42.832" /><path
         id="path50"
         style="fill:#2a3783;fill-opacity:1;fill-rule:nonzero;stroke:none"
         d="m 2533.05,607.129 -18.6,-59.941 h 36.88 z m 39.63,-125.078 -9.15,27.07 h -61.12 l -9.91,-27.07 h -49.38 l 71.37,185.625 h 36.84 l 71.48,-185.625 h -50.13" /><path
         id="path52"
         style="fill:#2a3783;fill-opacity:1;fill-rule:nonzero;stroke:none"
         d="m 2677.22,522.793 h 53.03 v -40.762 h -98.54 v 185.645 h 45.51 V 522.793" /><path
         id="path54"
         style="fill:#2a3783;fill-opacity:1;fill-rule:nonzero;stroke:none"
         d="m 560.738,311.738 v 4.141 h 49.09 c 0,-9.902 1.781,-17.051 5.352,-21.524 3.582,-4.433 8.238,-6.679 13.992,-6.679 5.344,0 9.808,1.172 13.379,3.554 4.558,3.145 6.84,7.793 6.84,13.907 0,5.332 -1.09,9.472 -3.254,12.422 -2.785,3.769 -9.106,7.988 -18.969,12.734 -15.84,6.914 -25.316,11.25 -28.48,13.008 -10.258,5.742 -18.551,13.047 -24.879,21.914 -3.379,4.941 -5.84,9.824 -7.43,14.648 -1.559,4.844 -2.371,10.606 -2.371,17.325 0,16.367 5.832,30.683 17.48,42.929 13.43,13.985 31.184,21.016 53.313,21.016 18.367,0 33.168,-4.649 44.437,-13.906 13.61,-11.211 20.43,-28.184 20.43,-50.84 h -47.301 c 0,5.508 -1.488,10.156 -4.457,13.886 -3.57,4.356 -8.433,6.524 -14.59,6.524 -4.148,0 -7.73,-1.192 -10.703,-3.555 -3.961,-3.164 -5.945,-7.402 -5.945,-12.734 0,-4.746 1.918,-8.828 5.777,-12.285 3.852,-3.438 11.598,-8.047 23.278,-13.77 5.734,-2.734 10.753,-5.312 15.101,-7.695 4.352,-2.363 7.922,-4.336 10.68,-5.918 10.289,-6.113 17.883,-13.516 22.832,-22.207 4.937,-8.672 7.418,-18.125 7.418,-28.399 0,-16.992 -5.828,-31.972 -17.481,-45 -13.629,-15.175 -31.89,-22.773 -54.8,-22.773 -21.336,0 -37.93,5.527 -49.789,16.582 -12.637,11.836 -18.95,29.395 -18.95,52.695" /><path
         id="path56"
         style="fill:#2a3783;fill-opacity:1;fill-rule:nonzero;stroke:none"
         d="m 719.426,316.035 v 116.231 h 45.808 V 317.813 c 0,-12.208 1.731,-20.508 5.2,-24.981 3.457,-4.434 9,-6.641 16.632,-6.641 15.575,0 23.387,10.547 23.387,31.622 v 114.453 h 45.52 V 316.035 c 0,-21.777 -5.758,-39.004 -17.219,-51.719 -12.199,-13.574 -29.52,-20.371 -51.981,-20.371 -24.531,0 -42.293,6.797 -53.261,20.371 -9.391,11.68 -14.086,28.907 -14.086,51.719" /><path
         id="path58"
         style="fill:#2a3783;fill-opacity:1;fill-rule:nonzero;stroke:none"
         d="m 924.516,390.918 v -44.629 c 15.382,0 25.879,1.231 31.48,3.691 7.168,3.125 10.762,9.434 10.762,18.887 0,8.047 -2.543,13.535 -7.602,16.524 -6.129,3.672 -17.664,5.527 -34.64,5.527 m 0,-84.805 v -59.472 h -45.219 v 185.625 h 61.558 c 25.93,0 44.891,-6.192 56.879,-18.575 10.096,-10.468 15.146,-24.961 15.146,-43.457 0,-23.886 -7.65,-40.839 -22.923,-50.761 -13.75,-8.907 -35.562,-13.36 -65.441,-13.36" /><path
         id="path60"
         style="fill:#2a3783;fill-opacity:1;fill-rule:nonzero;stroke:none"
         d="m 1077.15,390.918 v -44.629 c 15.4,0 25.88,1.231 31.5,3.691 7.15,3.125 10.74,9.434 10.74,18.887 0,8.047 -2.53,13.535 -7.62,16.524 -6.12,3.672 -17.67,5.527 -34.62,5.527 m 0,-84.805 v -59.472 h -45.22 v 185.625 h 61.58 c 25.91,0 44.85,-6.192 56.86,-18.575 10.08,-10.468 15.14,-24.961 15.14,-43.457 0,-23.886 -7.66,-40.839 -22.96,-50.761 -13.71,-8.907 -35.53,-13.36 -65.4,-13.36" /><path
         id="path62"
         style="fill:#2a3783;fill-opacity:1;fill-rule:nonzero;stroke:none"
         d="m 1228.3,287.383 h 53.01 v -40.742 h -98.52 v 185.625 h 45.51 V 287.383" /><path
         id="path64"
         style="fill:#2a3783;fill-opacity:1;fill-rule:nonzero;stroke:none"
         d="m 1421.69,432.266 -54.14,-116.719 v -68.926 h -45.52 v 68.926 l -52.36,116.719 h 49.3 l 27.11,-68.379 28.01,68.379 h 47.6" /><path
         id="path66"
         style="fill:#2a3783;fill-opacity:1;fill-rule:nonzero;stroke:none"
         d="m 1648.75,324.863 h 55.94 c -6.89,-24.492 -19.68,-44.355 -38.32,-59.59 -18.63,-15.195 -40.39,-22.812 -65.25,-22.812 -29.01,0 -54.06,9.766 -75.15,29.297 -22.69,20.918 -34.04,47.715 -34.04,80.488 0,27.402 8.86,51.563 26.62,72.481 20.52,24.238 47.95,36.406 82.27,36.406 21.71,0 40.76,-5.137 57.11,-15.371 22.5,-13.985 38.28,-36.836 47.37,-68.535 h -55.35 c -6.33,11.386 -14.03,19.746 -23.09,25.039 -7.7,4.511 -16.39,6.797 -26.04,6.797 -14.4,0 -26.9,-4.805 -37.45,-14.356 -10.56,-9.57 -16.63,-21.367 -18.2,-35.371 -0.21,-1.191 -0.27,-3.066 -0.27,-5.625 0,-14.199 4.02,-26.836 12.12,-37.871 10.26,-14.024 24.75,-21.016 43.51,-21.016 8.46,0 16.06,1.66 22.79,5.039 9.66,4.766 18.15,13.106 25.43,25" /><path
         id="path68"
         style="fill:#2a3783;fill-opacity:1;fill-rule:nonzero;stroke:none"
         d="m 1764.18,340.977 c 0,-13.36 4.5,-25.196 13.54,-35.411 9.75,-10.918 21.54,-16.386 35.43,-16.386 12.17,0 22.89,4.316 32.07,13.008 10.41,9.707 15.64,22.285 15.64,37.734 0,14.219 -4.39,25.996 -13.16,35.273 -8.77,9.278 -20.45,13.926 -35.07,13.926 -11.8,0 -22.23,-3.476 -31.28,-10.41 -11.44,-8.848 -17.17,-21.445 -17.17,-37.734 m -47.01,0.468 c 0,23.985 8.07,45.098 24.28,63.36 18.26,20.683 42.19,31.035 71.74,31.035 26.99,0 49.61,-9.297 67.87,-27.91 18.26,-18.594 27.4,-41.289 27.4,-68.067 0,-25.742 -8.63,-47.89 -25.85,-66.484 -18.25,-19.805 -41.57,-29.727 -69.93,-29.727 -26.79,0 -49.41,9.395 -67.83,28.164 -18.46,18.77 -27.68,41.973 -27.68,69.629" /><path
         id="path70"
         style="fill:#2a3783;fill-opacity:1;fill-rule:nonzero;stroke:none"
         d="m 2009.09,246.621 -38.13,123.008 V 246.621 h -42.85 v 185.645 h 62.21 l 35.26,-113.828 35.53,113.828 h 62.46 V 246.621 h -43.43 v 123.008 l -38.92,-123.008 h -32.13" /><path
         id="path72"
         style="fill:#2a3783;fill-opacity:1;fill-rule:nonzero;stroke:none"
         d="m 2195.06,390.918 v -44.629 c 15.4,0 25.89,1.231 31.51,3.691 7.15,3.125 10.74,9.434 10.74,18.887 0,8.047 -2.54,13.535 -7.61,16.524 -6.1,3.672 -17.68,5.527 -34.64,5.527 m 0,-84.805 v -59.472 h -45.21 v 185.625 h 61.58 c 25.9,0 44.86,-6.192 56.86,-18.575 10.09,-10.468 15.13,-24.961 15.13,-43.457 0,-23.886 -7.65,-40.839 -22.95,-50.761 -13.71,-8.907 -35.5,-13.36 -65.41,-13.36" /><path
         id="path74"
         style="fill:#2a3783;fill-opacity:1;fill-rule:nonzero;stroke:none"
         d="m 2351.41,371.719 -18.56,-59.942 h 36.88 z m 39.65,-125.078 -9.15,27.07 h -61.09 l -9.94,-27.07 h -49.37 l 71.38,185.605 h 36.84 l 71.46,-185.605 h -50.13" /><path
         id="path76"
         style="fill:#2a3783;fill-opacity:1;fill-rule:nonzero;stroke:none"
         d="m 2565.39,246.621 -69.5,103.418 V 246.621 h -45.2 v 185.645 h 41.27 l 67.91,-103.164 v 103.164 h 45.21 V 246.621 h -39.69" /><path
         id="path78"
         style="fill:#2a3783;fill-opacity:1;fill-rule:nonzero;stroke:none"
         d="m 2762.53,432.266 -54.14,-116.719 v -68.926 h -45.51 v 68.926 l -52.37,116.719 h 49.3 l 27.13,-68.379 28,68.379 h 47.59" /><path
         id="path80"
         style="fill:#ffffff;fill-opacity:1;fill-rule:nonzero;stroke:none"
         d="M 184.188,557.051 H 42.8164 V 670.293 H 184.188 V 557.051" /><path
         id="path82"
         style="fill:#ffffff;fill-opacity:1;fill-rule:nonzero;stroke:none"
         d="M 184.336,274.98 H 42.918 V 532.871 H 184.336 V 274.98" /><path
         id="path84"
         style="fill:#ffffff;fill-opacity:1;fill-rule:nonzero;stroke:none"
         d="m 432.805,390.586 h -111.66 v 24.297 h 111.937 v 48.633 H 225.16 L 225.133,351.855 H 330.922 V 326.738 H 225.02 v -50.644 h 207.929 l -0.144,114.492" /><path
         id="path86"
         style="fill:#ffffff;fill-opacity:1;fill-rule:nonzero;stroke:none"
         d="M 291.508,670.02 H 225.219 V 486.66 h 66.289 v 49.824 l 26.359,-49.804 h 22.84 l 25.012,49.804 V 486.66 h 68.136 V 670.02 H 365.719 L 329.18,614.121 291.508,670.02" /></g></g></svg>