<?xml version="1.0" encoding="UTF-8" standalone="no"?>
<svg
   xmlns:svg="http://www.w3.org/2000/svg"
   xmlns="http://www.w3.org/2000/svg"
   version="1.1"
   width="624.89258"
   height="168.79385"
   id="svg3433">
  <defs
     id="defs3435" />
  <g
     transform="translate(-37.553725,-447.965)"
     id="layer1">
    <path
       d="m 308.50476,591.08734 c -0.12387,-4.04726 -2.64311,-7.84158 -6.9898,-7.84158 -4.39313,0 -6.81943,3.83562 -7.24791,7.84158 l 14.23771,0 z m -14.23771,2.25594 c 0.0465,3.92337 2.09591,8.65722 7.24791,8.65722 3.91822,0 6.05542,-2.30756 6.90204,-5.62694 l 2.68441,0 c -1.14603,4.98682 -4.04726,7.88804 -9.58645,7.88804 -6.98978,0 -9.92715,-5.37399 -9.92715,-11.63589 0,-5.7973 2.93737,-11.63588 9.92715,-11.63588 7.07757,0 9.88587,6.1793 9.67422,12.35345 l -16.92213,0 z m -16.40124,-10.09597 c -5.92118,0 -7.71252,4.39314 -7.71252,9.37479 0,4.5635 2.00299,9.3748 7.71252,9.3748 5.11588,0 7.20145,-4.8113 7.20145,-9.3748 0,-4.55834 -2.08557,-9.37479 -7.20145,-9.37479 m -10.39693,-1.62097 2.4676,0 0,4.18149 0.0877,0 c 1.23378,-2.98383 4.30537,-4.81645 7.84157,-4.81645 6.69038,0 9.88586,5.40496 9.88586,11.63072 0,6.22578 -3.19548,11.6359 -9.88586,11.6359 -3.28324,0 -6.47356,-1.66227 -7.62992,-4.81646 l -0.0826,0 0,12.31732 -2.68441,0 0,-30.13252 z m -14.82983,1.62097 c -5.92119,0 -7.71252,4.39314 -7.71252,9.37479 0,4.5635 2.00298,9.3748 7.71252,9.3748 5.11588,0 7.20661,-4.8113 7.20661,-9.3748 0,-4.55834 -2.09073,-9.37479 -7.20661,-9.37479 m -10.39694,-1.62097 2.47277,0 0,4.18149 0.0877,0 c 1.23378,-2.98383 4.30021,-4.81645 7.83641,-4.81645 6.69037,0 9.89102,5.40496 9.89102,11.63072 0,6.22578 -3.20065,11.6359 -9.89102,11.6359 -3.27808,0 -6.47356,-1.66227 -7.62476,-4.81646 l -0.0877,0 0,12.31732 -2.68442,0 0,-30.13252 z m -5.82877,21.9905 -2.47275,0 0,-3.95951 -0.0877,0 c -1.40416,2.93737 -4.30023,4.6048 -7.58346,4.6048 -5.53919,0 -7.70737,-3.24194 -7.70737,-8.35782 l 0,-14.279 2.67925,0 0,14.3203 c 0.12907,3.96468 1.62098,6.05542 5.87989,6.05542 4.6048,0 6.60263,-4.35184 6.60263,-8.82243 l 0,-11.55329 2.68957,0 0,21.99153 z m -32.00233,-21.9905 2.47792,0 0,5.15716 0.0774,0 c 1.36803,-3.53619 4.34669,-5.62694 8.31651,-5.45657 l 0,2.68441 c -4.86291,-0.25296 -8.18745,3.3297 -8.18745,7.88804 l 0,11.71848 -2.68441,0 0,-21.99152 z m -5.83291,21.9905 -2.09075,0 -0.382,-5.53918 -0.0878,0 c -2.04429,4.34668 -6.13285,6.18447 -10.526,6.18447 -9.58644,0 -14.35644,-7.54733 -14.35644,-15.85868 0,-8.31135 4.77,-15.85351 14.35644,-15.85351 6.39098,0 11.5946,3.4536 12.69934,10.10267 l -2.89606,0 c -0.38202,-3.50006 -4.00598,-7.62992 -9.80328,-7.62992 -8.05322,0 -11.46036,6.73169 -11.46036,13.38076 0,6.64909 3.40714,13.38593 11.46036,13.38593 6.73685,0 10.64989,-4.73387 10.526,-11.17129 l -10.35564,0 0,-2.46759 12.91615,0 0,15.46634 z m -46.1786,-12.5295 c -0.12906,-4.04726 -2.64311,-7.84158 -6.98464,-7.84158 -4.39314,0 -6.8246,3.83562 -7.25307,7.84158 l 14.23771,0 z m -14.23771,2.25594 c 0.0465,3.92337 2.09075,8.65722 7.25307,8.65722 3.91305,0 6.04509,-2.30756 6.90204,-5.62694 l 2.68441,0 c -1.15636,4.98682 -4.05242,7.88804 -9.58645,7.88804 -6.99495,0 -9.93747,-5.37399 -9.93747,-11.63589 0,-5.7973 2.94252,-11.63588 9.93747,-11.63588 7.0724,0 9.8807,6.1793 9.67422,12.35345 l -16.92729,0 z m -10.17237,-20.15477 2.68958,0 0,30.42678 -2.68958,0 0,-30.42678 z m -16.31606,28.80993 c 5.70438,0 7.71253,-4.81645 7.71253,-9.37479 0,-4.5635 -2.00815,-9.3748 -7.71253,-9.3748 -5.11587,0 -7.20661,4.8113 -7.20661,9.3748 0,4.55834 2.09074,9.37479 7.20661,9.37479 m 10.39694,1.61581 -2.47276,0 0,-4.17116 -0.0877,0 c -1.1512,2.85476 -4.64093,4.81645 -7.83642,4.81645 -6.69553,0 -9.89102,-5.41529 -9.89102,-11.63589 0,-6.22577 3.19549,-11.6359 9.89102,-11.6359 3.27808,0 6.47357,1.66228 7.62477,4.81646 l 0.0877,0 0,-12.61157 2.68441,0 0,30.42161 z M 95.654135,591.08734 c -0.123875,-4.04726 -2.643113,-7.84158 -6.984638,-7.84158 -4.393137,0 -6.819437,3.83562 -7.247912,7.84158 l 14.23255,0 z m -14.23255,2.25594 c 0.0465,3.92337 2.09075,8.65722 7.247912,8.65722 3.918213,0 6.05025,-2.30756 6.902038,-5.62694 l 2.684412,0 c -1.1512,4.98682 -4.047262,7.88804 -9.58645,7.88804 -6.99495,0 -9.932312,-5.37399 -9.932312,-11.63589 0,-5.7973 2.937362,-11.63588 9.932312,-11.63588 7.0724,0 9.885863,6.1793 9.674213,12.35345 l -16.922125,0 z m -10.1765,-20.15477 2.689575,0 0,4.30538 -2.689575,0 0,-4.30538 z m 0,8.4404 2.689575,0 0,21.99154 -2.689575,0 0,-21.99154 z m -25.775,11.97662 c -0.129063,6.26191 4.387975,8.18228 9.932325,8.18228 3.195475,0 8.048075,-1.75002 8.048075,-6.1793 0,-3.4536 -3.448438,-4.82162 -6.261913,-5.50305 l -6.772975,-1.66226 c -3.582662,-0.88792 -6.8659,-2.59666 -6.8659,-7.33051 0,-2.97866 1.920388,-8.56431 10.48985,-8.56431 6.008963,0 11.290025,3.24195 11.248725,9.46256 l -2.901237,0 c -0.165188,-4.6461 -4.005963,-6.9898 -8.306188,-6.9898 -3.964662,0 -7.629925,1.53321 -7.629925,6.05025 0,2.85992 2.13205,4.04726 4.599638,4.6461 l 7.418275,1.83779 c 4.305375,1.14603 7.888037,3.01996 7.888037,8.00677 0,2.09074 -0.85695,8.69853 -11.635887,8.69853 -7.206613,0 -12.487675,-3.24195 -12.152125,-10.65505 l 2.901225,0 z m 564.751195,-140.0819 -6.28772,0 0,93.6137 6.28772,0 0,-26.2711 13.41173,-12.15729 26.26594,38.42839 7.54733,0 -29.2033,-42.75443 26.13171,-24.73272 -8.2494,0 -35.90401,34.37596 0,-60.50251 z m -15.7895,9.77952 -6.56649,0 0,-9.77746 6.56649,0 0,9.77746 z m 0,83.83108 -6.56649,0 0,-67.3426 6.56649,0 0,67.3426 z m -60.36055,0.002 -6.4271,0 0,-67.62653 6.4271,0 0,11.04223 c 4.19181,-6.70588 11.59458,-12.85936 22.07412,-12.85936 10.47953,0 23.47311,3.91303 23.47311,21.93473 l 0,47.50893 -6.56648,0 0,-47.50893 c 0,-11.87336 -8.38362,-16.06517 -16.76208,-16.06517 -8.38362,0 -22.21867,5.1675 -22.21867,23.47311 l 0,40.10099 z m -60.91653,0 -6.43226,0 0,-94.17123 6.43226,0 0,37.303 c 4.18665,-6.70587 11.59975,-12.85421 22.06896,-12.85421 10.48469,0 23.48344,3.91305 23.48344,21.93475 l 0,47.78769 -6.57165,0 0,-47.78769 c 0,-11.87852 -8.37846,-16.06517 -16.76724,-16.06517 -8.38362,0 -22.21351,5.16748 -22.21351,23.47311 l 0,40.37975 z m -14.39051,-22.77413 -6.43226,0 c -1.76552,13.32398 -12.20375,19.56008 -20.9539,19.56008 -13.82989,0 -24.03582,-9.63808 -24.03582,-29.76084 0,-20.67514 10.61892,-30.45775 23.47313,-30.45775 12.8542,0 19.14191,8.38363 20.5409,15.92579 l 6.28256,0 c -0.83114,-10.7583 -10.19044,-21.65598 -26.95769,-21.65598 -16.77241,0 -29.90537,11.87337 -29.90537,36.18794 0,7.8106 1.56417,13.76794 3.61362,18.5276 6.03477,14.02605 18.28498,16.54011 25.72905,16.54011 14.53197,0 26.54988,-8.94116 28.64578,-24.86695 m -93.05565,-41.07719 c -14.2532,0 -22.07929,11.45522 -23.3389,25.42448 l 46.10994,0 c -0.55753,-14.94495 -8.523,-25.42448 -22.77104,-25.42448 m 29.2033,30.74168 -52.67641,0 c 0,5.9212 0.72788,10.69635 2.16817,14.54229 4.70289,12.58576 15.58508,15.21338 21.5837,15.21338 10.90285,0 18.71861,-5.73018 22.21351,-16.3491 l 6.28772,0 c -4.04727,14.25319 -13.96927,21.66114 -28.36184,21.66114 -11.3468,0 -22.56455,-5.20362 -27.91273,-18.8838 -1.86876,-4.8113 -2.68957,-10.6757 -2.68957,-17.72745 0,-14.69199 6.59746,-26.21947 16.18907,-31.4644 4.15568,-2.26626 8.86372,-3.32454 13.85569,-3.32454 14.26353,0 23.60734,7.07755 27.48425,19.47747 1.52289,4.84227 1.85844,10.49502 1.85844,16.85501 m -68.74726,-28.36958 12.0179,0 0,-5.5908 -12.0179,0 0,-19.97822 -6.43227,0 0,19.97822 -10.1956,0 0,5.5908 10.1956,0 0,53.93603 c 0,6.56649 6.71103,11.87336 18.02685,8.0997 l 0,-4.32604 c -8.66238,2.23529 -11.59458,-0.13937 -11.59458,-5.87472 l 0,-51.83497 z m -49.46339,7.40588 c -10.47953,0 -16.48333,9.08054 -16.48333,21.9399 0,12.8542 6.70588,21.23782 16.90148,21.23782 10.20076,0 17.05117,-7.26855 17.05117,-21.79535 0,-13.55628 -6.9898,-21.38237 -17.46932,-21.38237 m 35.76979,21.79536 c 0,18.58439 -12.15729,36.05371 -35.07288,36.05371 -28.12954,0 -35.76979,-24.59333 -35.76979,-37.0294 0,-19.14191 14.67135,-35.07287 34.79928,-35.07287 22.72457,0 36.04339,15.60056 36.04339,36.04856 m -113.45408,-34.36822 -18.86315,0 23.19435,66.64568 17.88231,0 23.19435,-66.64568 -18.72377,0 -13.55113,44.98971 -13.13296,-44.98971 z m -51.55775,12.57286 c -10.48469,0 -16.48849,9.08054 -16.48849,21.9399 0,12.8542 6.70588,21.23782 16.90664,21.23782 10.20076,0 17.04601,-7.26855 17.04601,-21.79535 0,-13.55628 -6.98463,-21.38237 -17.46416,-21.38237 m 35.76979,21.79536 c 0,18.58439 -12.15729,36.05371 -35.06771,36.05371 -28.13987,0 -35.77496,-24.59333 -35.77496,-37.0294 0,-19.14191 14.67135,-35.07287 34.79412,-35.07287 22.72974,0 36.04855,15.60056 36.04855,36.04856 m -139.30393,31.99819 0,-66.64569 17.324775,0 c 0,0 0.557537,4.18665 1.120225,7.40279 4.052437,-5.30688 8.523012,-9.35931 18.723775,-9.35931 13.267187,0 23.049815,8.80177 23.049815,22.91042 l 0,45.69179 -18.166253,0 0,-38.56261 c 0,-7.96548 -3.210962,-13.69567 -10.334975,-13.69567 -5.306875,0 -13.4169,2.24047 -13.4169,15.50765 l 0,36.75063 -18.300462,0 z"
       id="path176"
       style="fill:#000000;fill-opacity:1;fill-rule:nonzero;stroke:none" />
  </g>
</svg>
