<?xml version="1.0" encoding="UTF-8" standalone="no"?>
<svg
   xmlns:dc="http://purl.org/dc/elements/1.1/"
   xmlns:cc="http://creativecommons.org/ns#"
   xmlns:rdf="http://www.w3.org/1999/02/22-rdf-syntax-ns#"
   xmlns:svg="http://www.w3.org/2000/svg"
   xmlns="http://www.w3.org/2000/svg"
   viewBox="0 0 696.90668 192.73334"
   height="192.73334"
   width="696.90668"
   xml:space="preserve"
   id="svg2"
   version="1.1"><metadata
     id="metadata8"><rdf:RDF><cc:Work
         rdf:about=""><dc:format>image/svg+xml</dc:format><dc:type
           rdf:resource="http://purl.org/dc/dcmitype/StillImage" /></cc:Work></rdf:RDF></metadata><defs
     id="defs6" /><g
     transform="matrix(1.3333333,0,0,-1.3333333,0,192.73333)"
     id="g10"><g
       transform="scale(0.1)"
       id="g12"><path
         id="path14"
         style="fill:#100f0d;fill-opacity:1;fill-rule:nonzero;stroke:none"
         d="M 4669.79,0.0390625 C 4799.39,-2.14063 4909.38,81.9883 4941.24,207.648 l 277.6,950.842 c 32.93,121.21 -38.65,246.16 -159.87,279.08 -20.87,5.66 -39.18,8.06 -60.83,7.94 H 565.145 c -127.2,1.59 -234.438,-84.33 -260.606,-208.84 L 7.13672,255.488 C -22.1836,147.641 41.4688,36.4492 149.316,7.10938 167.91,2.07813 184.215,-0.0703125 203.48,0.0390625 h 4466.31" /><path
         id="path16"
         style="fill:#fff200;fill-opacity:1;fill-rule:evenodd;stroke:none"
         d="m 4670.22,50.2891 c 106.12,-0.8086 195.66,67.6599 222.41,170.0509 l 277.7,951.27 c 25.51,94.73 -30.84,192.15 -125.84,217.57 -15.88,4.26 -29.75,6.08 -46.2,6.08 H 564.809 C 461.34,1395.71 374.602,1325.79 353.402,1224.78 L 55.6367,242.301 C 33.7344,160.969 82.1094,77.3516 163.684,55.5 c 13.621,-3.6289 25.55,-5.2109 39.656,-5.2109 H 4670.22 Z M 203.34,147.609 h 4467.31 c 60.78,0 111.82,39.039 127.56,97.551 l 277.83,951.69 c 13.74,50.99 -24.79,101.09 -77.75,101.09 H 563.832 c -60.769,0 -100.156,-39.04 -115.906,-97.55 L 149.91,217.059 c -9.426,-35.039 17.043,-69.45 53.43,-69.45 v 0" /><path
         id="path18"
         style="fill:#fff200;fill-opacity:1;fill-rule:evenodd;stroke:none"
         d="m 828.992,872.914 c 2.903,17.149 -8.512,31.016 -25.625,31.016 h -56.512 c -17.082,0 -33.347,-13.867 -36.281,-31.016 l -9.715,-56.406 c -3.015,-17.141 8.567,-31.016 25.704,-31.016 h 56.417 c 17.118,0 33.321,13.875 36.395,31.016 z M 596.238,550.93 c -32.675,0 -63.765,-26.512 -69.441,-59.141 -5.559,-32.781 16.34,-59.301 49.094,-59.301 32.73,0 63.765,26.52 69.375,59.301 5.625,32.629 -16.328,59.141 -49.028,59.141 m 81.367,473.76 c -32.75,0 -63.765,-26.561 -69.429,-59.229 -5.586,-32.715 16.344,-59.266 49.019,-59.266 32.754,0 63.813,26.551 69.414,59.266 5.618,32.668 -16.367,59.229 -49.004,59.229 M 539.797,903.371 c -32.746,0 -63.813,-26.57 -69.426,-59.266 -5.586,-32.617 16.375,-59.23 49.016,-59.23 32.761,0 63.789,26.613 69.39,59.23 5.637,32.696 -16.343,59.266 -48.98,59.266" /><path
         id="path20"
         style="fill:#ffffff;fill-opacity:1;fill-rule:evenodd;stroke:none"
         d="m 790.227,637.199 c 2.925,17.004 -8.539,30.774 -25.508,30.774 h -56.86 c -16.968,0 -33.211,-13.77 -36.129,-30.774 l -9.765,-56.922 c -2.895,-17.004 8.496,-30.8 25.523,-30.8 h 56.875 c 17.032,0 33.117,13.796 36.059,30.8 z m 183.984,361.309 c 2.207,12.922 -6.477,23.312 -19.34,23.312 h -71.836 c -12.847,0 -25.113,-10.39 -27.32,-23.379 l -12.309,-71.808 c -2.222,-12.813 6.449,-23.262 19.328,-23.262 h 71.809 c 12.898,0 25.074,10.449 27.359,23.262 z M 892.988,526.02 c 2.285,12.871 -6.379,23.281 -19.277,23.281 h -71.77 c -12.996,0 -25.093,-10.41 -27.371,-23.281 l -12.382,-71.856 c -2.176,-12.855 6.523,-23.344 19.367,-23.344 h 71.875 c 12.832,0 25.078,10.489 27.261,23.344 z m 40.617,236.218 c 2.176,12.922 -6.425,23.321 -19.335,23.321 h -71.75 c -12.879,0 -25.165,-10.399 -27.415,-23.321 L 802.82,690.434 c -2.234,-12.844 6.45,-23.313 19.297,-23.313 h 71.867 c 12.825,0 25.11,10.469 27.293,23.313 z M 1038.49,656.301 c 1.15,6.465 -3.22,11.672 -9.63,11.672 h -95.176 c -6.329,0 -12.563,-5.207 -13.657,-11.672 l -16.336,-95.137 c -1.101,-6.406 3.235,-11.687 9.7,-11.687 h 95.099 c 6.44,0 12.59,5.281 13.67,11.687 z m 40.52,235.996 c 1.08,6.418 -3.2,11.633 -9.68,11.633 h -95.182 c -6.316,0 -12.5,-5.215 -13.574,-11.633 L 944.23,797.18 c -1.093,-6.465 3.192,-11.688 9.665,-11.688 h 95.095 c 6.48,0 12.56,5.223 13.71,11.688 z m 145.2,129.523 h -112.58 c -3.25,0 -6.27,-2.57 -6.79,-5.85 l -18.38,-106.779 c -0.57,-3.183 1.62,-5.82 4.86,-5.82 h 112.63 z M 1143.1,549.301 h -112.59 c -3.27,0 -6.31,-2.578 -6.85,-5.852 L 1005.32,436.66 c -0.56,-3.172 1.6,-5.84 4.82,-5.84 h 112.62 z m 40.6,236.258 h -112.66 c -3.16,0 -6.28,-2.586 -6.83,-5.84 L 1045.9,672.934 c -0.55,-3.196 1.59,-5.813 4.83,-5.813 h 112.64 l 20.33,118.438" /><path
         id="path22"
         style="fill:#fff200;fill-opacity:1;fill-rule:nonzero;stroke:none"
         d="m 2562.27,659.797 c -9.33,-30.652 -23.69,-54.961 -43.12,-73.055 -19.43,-18.058 -43.93,-27.082 -73.46,-27.082 -34.47,0 -58.82,8.899 -73.04,26.68 -14.27,17.805 -21.35,41.965 -21.35,72.668 0,17.508 1.89,38.015 5.74,61.551 9.83,56.339 26.93,99.179 51.29,128.457 24.38,29.269 53.77,43.945 88.26,43.945 28.47,0 50.33,-7.43 65.68,-22.176 15.3,-14.785 22.96,-35.586 22.96,-62.414 v -5.73 c 0,-2.188 0,-4.395 0,-6.563 h 149.89 l -24.04,-136.281 z m -688.73,-27.879 97.68,211.758 24.61,-211.758 z M 1548.47,828.91 c -0.55,-2.726 -0.84,-4.922 -0.84,-6.555 -3.28,-19.714 -13.26,-33.953 -29.94,-42.714 -16.71,-8.739 -40.65,-13.133 -71.83,-13.133 h -76.32 l 20.49,117.402 h 90.3 c 21.36,0 38.18,-4.094 50.48,-12.297 12.31,-8.23 18.46,-20.515 18.46,-36.953 0,-0.555 -0.28,-2.469 -0.8,-5.75 z m 1648.9,55 24.66,137.92 h -447.1 l -19.84,-112.529 c -10.78,28.222 -27.34,52.254 -49.96,71.875 -43.23,37.484 -107.02,56.234 -191.29,56.234 -41.08,0 -80.76,-7.09 -119.05,-21.32 -38.3,-14.25 -73.35,-35.051 -105.06,-62.387 -31.77,-27.39 -58.43,-60.215 -80.05,-98.523 -21.6,-38.313 -36.55,-80.996 -44.75,-128.047 -1.6,-9.199 -2.8,-18.195 -3.82,-27.102 l -58.54,321.799 H 1905.56 L 1686.35,611.859 c -0.07,29.813 -6.07,50.75 -18.02,62.723 -12.05,12.023 -32.32,23.547 -60.76,34.492 34.47,9.297 62.24,26.797 83.3,52.539 21.05,25.696 34.9,56.367 41.47,91.934 2.75,15.305 4.08,29.004 4.08,41.035 0,44.336 -18.15,76.621 -54.56,96.856 -36.39,20.232 -97.01,30.392 -181.85,30.392 H 1220.93 L 1116.68,430.75 h 193.72 l 36.12,206.07 h 59.11 c 34.46,0 58.26,-4.238 71.41,-12.715 13.15,-8.507 19.7,-23.136 19.7,-43.937 0,-11.484 -1.92,-26.805 -5.73,-45.957 -6.02,-36.121 -9.06,-65.125 -9.06,-87.012 0,-2.75 0.3,-6.32 0.85,-10.668 0,-2.742 0,-4.66 0,-5.781 h 106.71 89.46 100.16 l 36.11,78.012 h 192.91 l 9.03,-78.012 h 192.93 L 2194,519.281 c 9.44,-14.765 20.54,-28.359 33.74,-40.468 46.23,-42.415 111.49,-63.622 195.77,-63.622 78.26,0 146.56,21.739 204.86,65.282 23.68,17.664 44.21,38.172 61.88,61.218 L 2670.68,430.75 h 447.3 l 23.9,137.934 h -252.87 l 16.43,92.773 h 253.82 l 23.81,137.902 h -253.82 l 14.76,84.551 h 253.36" /><path
         id="path24"
         style="fill:#ffffff;fill-opacity:1;fill-rule:nonzero;stroke:none"
         d="m 3760.63,631.918 97.64,211.758 24.61,-211.758 z m -231.52,195.34 c -0.55,-2.188 -0.84,-4.07 -0.84,-5.723 -4.35,-24.09 -14.48,-41.601 -30.36,-52.547 -15.89,-10.929 -35.84,-16.437 -59.91,-16.437 h -80.44 l 22.98,131.359 h 54.98 c 12.05,0 23.15,-0.683 33.27,-2.062 10.1,-1.356 19.81,-3.817 29.12,-7.371 9.29,-3.575 16.84,-8.75 22.59,-15.567 5.73,-6.867 8.61,-15.519 8.61,-25.871 0,-1.113 0,-3.035 0,-5.781 z m 1209.16,194.572 h -227.38 l -203.6,-191.271 33.69,191.271 h -193.74 l -77.6,-439.834 -80.02,439.834 h -197.01 l -76.27,-142.646 c -3.56,42.742 -21.7,76.523 -54.67,101.199 -36.94,27.617 -92.07,41.447 -165.41,41.447 H 3211.44 L 3107.18,430.75 h 193.73 l 32.85,183.902 h 97.68 c 65.04,0 118.82,11.453 161.66,34.032 L 3476.57,430.75 h 189.63 l 36.14,78.012 h 192.88 l 9.03,-78.012 h 138.71 54.2 139.53 l 32.85,187.203 55,48.438 100.18,-235.641 h 232.3 L 4483,799.359 4738.27,1021.83" /><path
         id="path26"
         style="fill:#ffffff;fill-opacity:1;fill-rule:nonzero;stroke:none"
         d="m 4714.15,460.656 c 1.64,0 3.04,0.051 4.16,0.157 1.11,0.109 2.15,0.343 3.08,0.722 0.92,0.371 1.68,0.969 2.23,1.797 0.57,0.832 0.84,1.934 0.84,3.32 0,2.188 -0.74,3.723 -2.23,4.602 -1.5,0.879 -3.47,1.316 -5.93,1.316 h -7.76 v -11.914 z m -5.61,-18.886 h -4.23 v 34.406 h 13.2 c 3.84,0 6.66,-0.801 8.48,-2.403 1.81,-1.601 2.71,-3.976 2.71,-7.121 0,-2.879 -0.8,-5.097 -2.4,-6.64 -1.59,-1.543 -3.67,-2.528 -6.23,-2.957 l 10.23,-15.285 h -4.96 l -9.68,15.285 h -7.12 z m -3.32,40.761 c -3.06,-1.308 -5.74,-3.113 -8.03,-5.437 -2.3,-2.324 -4.07,-5.039 -5.32,-8.164 -1.25,-3.117 -1.88,-6.438 -1.88,-9.953 0,-3.524 0.63,-6.844 1.88,-9.961 1.25,-3.125 3,-5.836 5.27,-8.164 2.27,-2.321 4.95,-4.133 8.05,-5.442 3.08,-1.308 6.4,-1.961 9.92,-1.961 3.51,0 6.81,0.653 9.88,1.961 3.07,1.309 5.74,3.141 8.04,5.481 2.29,2.347 4.06,5.07 5.32,8.164 1.25,3.086 1.87,6.398 1.87,9.922 0,3.515 -0.62,6.836 -1.87,9.953 -1.26,3.125 -3.02,5.84 -5.28,8.164 -2.28,2.324 -4.95,4.129 -8.04,5.437 -3.1,1.309 -6.41,1.965 -9.92,1.965 -3.52,0 -6.82,-0.656 -9.89,-1.965 z m 21.53,3.965 c 3.65,-1.492 6.83,-3.613 9.55,-6.367 2.72,-2.742 4.83,-5.926 6.33,-9.559 1.48,-3.625 2.23,-7.492 2.23,-11.593 0,-4.11 -0.75,-7.977 -2.23,-11.602 -1.5,-3.637 -3.61,-6.805 -6.33,-9.523 -2.72,-2.723 -5.9,-4.84 -9.55,-6.352 -3.65,-1.531 -7.54,-2.289 -11.64,-2.289 -4.11,0 -7.99,0.75 -11.64,2.238 -3.66,1.492 -6.84,3.61 -9.56,6.371 -2.73,2.739 -4.84,5.918 -6.32,9.555 -1.5,3.625 -2.25,7.492 -2.25,11.602 0,4.101 0.75,7.968 2.25,11.593 1.48,3.633 3.59,6.817 6.32,9.559 2.72,2.754 5.9,4.875 9.56,6.367 3.65,1.484 7.53,2.238 11.64,2.238 4.1,0 7.99,-0.754 11.64,-2.238" /></g></g></svg>