<?xml version="1.0" encoding="UTF-8" standalone="no"?>
<svg
   xmlns:dc="http://purl.org/dc/elements/1.1/"
   xmlns:cc="http://creativecommons.org/ns#"
   xmlns:rdf="http://www.w3.org/1999/02/22-rdf-syntax-ns#"
   xmlns:svg="http://www.w3.org/2000/svg"
   xmlns="http://www.w3.org/2000/svg"
   viewBox="0 0 816 456.76001"
   height="456.76001"
   width="816"
   xml:space="preserve"
   id="svg2"
   version="1.1"><metadata
     id="metadata8"><rdf:RDF><cc:Work
         rdf:about=""><dc:format>image/svg+xml</dc:format><dc:type
           rdf:resource="http://purl.org/dc/dcmitype/StillImage" /></cc:Work></rdf:RDF></metadata><defs
     id="defs6" /><g
     transform="matrix(1.3333333,0,0,-1.3333333,0,456.76)"
     id="g10"><g
       transform="scale(0.1)"
       id="g12"><path
         id="path14"
         style="fill:#fff200;fill-opacity:1;fill-rule:evenodd;stroke:none"
         d="m 1273.96,1868.32 c 2.9,17.15 -8.52,31.01 -25.63,31.01 h -56.51 c -17.08,0 -33.35,-13.86 -36.28,-31.01 l -9.72,-56.41 c -3.02,-17.14 8.56,-31.01 25.7,-31.01 h 56.42 c 17.12,0 33.32,13.87 36.4,31.01 z M 1041.2,1546.33 c -32.67,0 -63.766,-26.51 -69.442,-59.14 -5.559,-32.78 16.34,-59.29 49.092,-59.29 32.73,0 63.77,26.51 69.37,59.29 5.63,32.63 -16.32,59.14 -49.02,59.14 m 81.37,473.76 c -32.76,0 -63.77,-26.56 -69.44,-59.22 -5.58,-32.72 16.35,-59.27 49.03,-59.27 32.75,0 63.81,26.55 69.41,59.27 5.62,32.66 -16.36,59.22 -49,59.22 M 984.758,1898.78 c -32.746,0 -63.813,-26.58 -69.426,-59.27 -5.586,-32.62 16.379,-59.23 49.016,-59.23 32.761,0 63.782,26.61 69.392,59.23 5.64,32.69 -16.35,59.27 -48.982,59.27" /><path
         id="path16"
         style="fill:#ffffff;fill-opacity:1;fill-rule:evenodd;stroke:none"
         d="m 1235.19,1632.6 c 2.93,17.01 -8.54,30.78 -25.51,30.78 h -56.86 c -16.97,0 -33.21,-13.77 -36.13,-30.78 l -9.77,-56.92 c -2.89,-17 8.5,-30.8 25.53,-30.8 h 56.88 c 17.03,0 33.11,13.8 36.05,30.8 z m 183.98,361.31 c 2.21,12.92 -6.47,23.31 -19.34,23.31 H 1328 c -12.85,0 -25.12,-10.39 -27.33,-23.38 l -12.3,-71.8 c -2.23,-12.81 6.44,-23.26 19.33,-23.26 h 71.8 c 12.9,0 25.08,10.45 27.37,23.26 z m -81.22,-472.49 c 2.28,12.87 -6.38,23.28 -19.28,23.28 h -71.77 c -12.99,0 -25.09,-10.41 -27.37,-23.28 l -12.38,-71.85 c -2.18,-12.85 6.52,-23.34 19.36,-23.34 h 71.88 c 12.83,0 25.08,10.49 27.26,23.34 z m 40.61,236.22 c 2.18,12.92 -6.42,23.32 -19.33,23.32 h -71.75 c -12.88,0 -25.17,-10.4 -27.41,-23.32 l -12.29,-71.8 c -2.23,-12.85 6.45,-23.31 19.3,-23.31 h 71.87 c 12.82,0 25.1,10.46 27.29,23.31 z m 104.89,-105.93 c 1.15,6.46 -3.22,11.67 -9.63,11.67 h -95.18 c -6.33,0 -12.56,-5.21 -13.65,-11.67 l -16.34,-95.14 c -1.1,-6.41 3.23,-11.69 9.7,-11.69 h 95.1 c 6.44,0 12.59,5.28 13.67,11.69 z m 40.52,235.99 c 1.08,6.42 -3.2,11.63 -9.68,11.63 h -95.18 c -6.32,0 -12.5,-5.21 -13.57,-11.63 l -16.35,-95.12 c -1.09,-6.46 3.19,-11.68 9.67,-11.68 h 95.1 c 6.47,0 12.55,5.22 13.7,11.68 z m 145.2,129.52 h -112.58 c -3.25,0 -6.27,-2.56 -6.79,-5.85 l -18.38,-106.77 c -0.57,-3.19 1.62,-5.82 4.86,-5.82 h 112.63 z m -81.11,-472.52 h -112.59 c -3.27,0 -6.31,-2.57 -6.85,-5.85 l -18.34,-106.78 c -0.56,-3.18 1.6,-5.84 4.82,-5.84 h 112.62 z m 40.6,236.26 H 1516 c -3.16,0 -6.28,-2.58 -6.83,-5.84 l -18.31,-106.78 c -0.55,-3.2 1.59,-5.81 4.83,-5.81 h 112.64 l 20.33,118.43" /><path
         id="path18"
         style="fill:#fff200;fill-opacity:1;fill-rule:nonzero;stroke:none"
         d="m 3007.22,1655.2 c -9.32,-30.65 -23.68,-54.96 -43.11,-73.05 -19.43,-18.06 -43.92,-27.08 -73.46,-27.08 -34.47,0 -58.82,8.89 -73.04,26.67 -14.27,17.81 -21.35,41.97 -21.35,72.67 0,17.51 1.89,38.02 5.74,61.55 9.83,56.34 26.94,99.18 51.29,128.46 24.38,29.27 53.77,43.95 88.26,43.95 28.47,0 50.33,-7.44 65.67,-22.18 15.29,-14.79 22.96,-35.59 22.96,-62.41 v -5.74 c 0,-2.18 0,-4.39 0,-6.56 h 149.86 l -24.03,-136.28 z m -688.71,-27.88 97.67,211.76 24.61,-211.76 z m -325.08,196.99 c -0.55,-2.72 -0.84,-4.92 -0.84,-6.55 -3.28,-19.72 -13.26,-33.95 -29.94,-42.71 -16.71,-8.74 -40.65,-13.14 -71.83,-13.14 h -76.32 l 20.49,117.4 h 90.3 c 21.36,0 38.18,-4.09 50.48,-12.29 12.31,-8.23 18.46,-20.52 18.46,-36.95 0,-0.56 -0.27,-2.48 -0.8,-5.76 z m 1648.86,55 24.66,137.92 h -447.1 l -19.84,-112.53 c -10.78,28.23 -27.33,52.26 -49.96,71.88 -43.22,37.49 -107.01,56.24 -191.25,56.24 -41.08,0 -80.76,-7.1 -119.04,-21.33 -38.3,-14.25 -73.36,-35.05 -105.07,-62.38 -31.77,-27.39 -58.43,-60.22 -80.05,-98.53 -21.6,-38.31 -36.54,-80.99 -44.75,-128.04 -1.59,-9.2 -2.8,-18.2 -3.82,-27.1 l -58.54,321.79 h -197.01 l -219.21,-409.97 c -0.07,29.82 -6.07,50.75 -18.02,62.73 -12.05,12.02 -32.32,23.54 -60.76,34.49 34.47,9.3 62.25,26.8 83.3,52.54 21.05,25.69 34.9,56.37 41.47,91.93 2.75,15.3 4.08,29.01 4.08,41.04 0,44.33 -18.15,76.62 -54.56,96.85 -36.39,20.24 -97.01,30.39 -181.85,30.39 h -279.08 l -104.25,-591.07 h 193.72 l 36.12,206.06 h 59.11 c 34.46,0 58.26,-4.23 71.41,-12.71 13.15,-8.51 19.7,-23.14 19.7,-43.94 0,-11.48 -1.91,-26.8 -5.73,-45.95 -6.02,-36.13 -9.06,-65.13 -9.06,-87.02 0,-2.75 0.3,-6.31 0.85,-10.67 0,-2.73 0,-4.66 0,-5.77 h 106.71 89.47 100.15 l 36.12,78.01 h 192.91 l 9.02,-78.01 h 192.93 l -16.11,88.52 c 9.44,-14.76 20.54,-28.36 33.75,-40.46 46.23,-42.42 111.48,-63.63 195.76,-63.63 78.26,0 146.55,21.74 204.82,65.29 23.68,17.66 44.21,38.17 61.89,61.22 l -19.57,-110.94 h 446.55 l 24.64,137.93 h -252.86 l 16.42,92.77 h 253.82 l 23.81,137.9 h -253.82 l 14.77,84.55 h 253.35" /><path
         id="path20"
         style="fill:#ffffff;fill-opacity:1;fill-rule:nonzero;stroke:none"
         d="m 4205.56,1627.32 97.63,211.76 24.61,-211.76 z m -231.53,195.34 c -0.54,-2.18 -0.84,-4.07 -0.84,-5.72 -4.35,-24.09 -14.48,-41.6 -30.36,-52.55 -15.89,-10.93 -35.84,-16.43 -59.91,-16.43 h -80.44 l 22.98,131.35 h 54.98 c 12.05,0 23.15,-0.68 33.27,-2.06 10.1,-1.35 19.82,-3.82 29.12,-7.37 9.29,-3.57 16.84,-8.75 22.59,-15.57 5.73,-6.86 8.61,-15.51 8.61,-25.87 0,-1.11 0,-3.03 0,-5.78 z m 1209.16,194.57 h -227.38 l -203.59,-191.27 33.68,191.27 h -193.74 l -77.6,-439.83 -80.02,439.83 h -197.01 l -76.27,-142.64 c -3.55,42.74 -21.7,76.52 -54.67,101.2 -36.94,27.62 -92.07,41.44 -165.41,41.44 H 3656.36 L 3552.1,1426.16 h 193.73 l 32.85,183.9 h 97.68 c 65.05,0 118.83,11.45 161.66,34.03 l -116.53,-217.93 h 189.63 l 36.15,78.01 h 192.88 l 9.02,-78.01 h 138.71 54.2 139.53 l 32.85,187.2 55,48.43 100.18,-235.63 h 232.3 l -174.02,368.6 255.27,222.47" /><path
         id="path22"
         style="fill:#ffffff;fill-opacity:1;fill-rule:nonzero;stroke:none"
         d="m 5159.07,1456.06 c 1.64,0 3.04,0.05 4.16,0.16 1.12,0.1 2.15,0.34 3.08,0.72 0.93,0.37 1.68,0.97 2.23,1.8 0.57,0.83 0.84,1.93 0.84,3.32 0,2.18 -0.74,3.72 -2.23,4.6 -1.5,0.88 -3.47,1.32 -5.93,1.32 h -7.75 v -11.92 z m -5.6,-18.89 h -4.24 v 34.41 h 13.2 c 3.84,0 6.66,-0.8 8.48,-2.4 1.81,-1.61 2.71,-3.98 2.71,-7.12 0,-2.88 -0.8,-5.1 -2.4,-6.64 -1.59,-1.55 -3.67,-2.53 -6.23,-2.96 l 10.23,-15.29 h -4.96 l -9.67,15.29 h -7.12 z m -3.32,40.77 c -3.07,-1.31 -5.75,-3.12 -8.04,-5.44 -2.3,-2.33 -4.07,-5.04 -5.32,-8.17 -1.25,-3.11 -1.88,-6.43 -1.88,-9.95 0,-3.52 0.63,-6.84 1.88,-9.96 1.25,-3.12 3,-5.84 5.27,-8.16 2.28,-2.33 4.95,-4.13 8.05,-5.44 3.08,-1.31 6.4,-1.97 9.92,-1.97 3.51,0 6.82,0.66 9.88,1.97 3.07,1.31 5.74,3.13 8.04,5.48 2.29,2.34 4.06,5.06 5.32,8.16 1.25,3.09 1.88,6.4 1.88,9.92 0,3.52 -0.63,6.84 -1.88,9.95 -1.26,3.13 -3.02,5.84 -5.28,8.17 -2.28,2.32 -4.95,4.13 -8.04,5.44 -3.09,1.3 -6.41,1.96 -9.92,1.96 -3.52,0 -6.82,-0.66 -9.88,-1.96 z m 21.52,3.96 c 3.65,-1.49 6.84,-3.61 9.55,-6.37 2.73,-2.74 4.83,-5.92 6.33,-9.56 1.48,-3.62 2.24,-7.49 2.24,-11.59 0,-4.11 -0.76,-7.98 -2.24,-11.6 -1.5,-3.63 -3.6,-6.81 -6.33,-9.52 -2.71,-2.73 -5.9,-4.85 -9.55,-6.36 -3.65,-1.52 -7.54,-2.28 -11.64,-2.28 -4.11,0 -7.99,0.75 -11.64,2.23 -3.65,1.5 -6.84,3.62 -9.56,6.37 -2.73,2.74 -4.84,5.93 -6.32,9.56 -1.49,3.62 -2.25,7.49 -2.25,11.6 0,4.1 0.76,7.97 2.25,11.59 1.48,3.64 3.59,6.82 6.32,9.56 2.72,2.76 5.91,4.88 9.56,6.37 3.65,1.49 7.53,2.24 11.64,2.24 4.1,0 7.99,-0.75 11.64,-2.24" /></g></g></svg>