<?xml version="1.0" encoding="UTF-8" standalone="no"?>
<svg
   xmlns:dc="http://purl.org/dc/elements/1.1/"
   xmlns:cc="http://creativecommons.org/ns#"
   xmlns:rdf="http://www.w3.org/1999/02/22-rdf-syntax-ns#"
   xmlns:svg="http://www.w3.org/2000/svg"
   xmlns="http://www.w3.org/2000/svg"
   viewBox="0 0 394.46667 132.33333"
   height="132.33333"
   width="394.46667"
   xml:space="preserve"
   id="svg2"
   version="1.1"><metadata
     id="metadata8"><rdf:RDF><cc:Work
         rdf:about=""><dc:format>image/svg+xml</dc:format><dc:type
           rdf:resource="http://purl.org/dc/dcmitype/StillImage" /></cc:Work></rdf:RDF></metadata><defs
     id="defs6"><clipPath
       id="clipPath22"
       clipPathUnits="userSpaceOnUse"><path
         id="path20"
         d="M 193.977,94.4531 H 2908 V 899.492 H 193.977 Z" /></clipPath><clipPath
       id="clipPath36"
       clipPathUnits="userSpaceOnUse"><path
         id="path34"
         d="M 193.977,94.4531 H 2908 V 899.492 H 193.977 Z" /></clipPath><clipPath
       id="clipPath50"
       clipPathUnits="userSpaceOnUse"><path
         id="path48"
         d="M 193.977,94.4531 H 2908 V 899.492 H 193.977 Z" /></clipPath></defs><g
     transform="matrix(1.3333333,0,0,-1.3333333,0,132.33333)"
     id="g10"><g
       transform="scale(0.1)"
       id="g12"><path
         id="path14"
         style="fill:#0d3863;fill-opacity:1;fill-rule:nonzero;stroke:none"
         d="M 2958.51,0 H 0 V 992.527 H 2958.51 V 0 0" /><g
         id="g16"><g
           clip-path="url(#clipPath22)"
           id="g18"><path
             id="path24"
             style="fill:#ffffff;fill-opacity:1;fill-rule:nonzero;stroke:none"
             d="m 193.977,421.672 c 28.921,-20.766 56.558,-31.371 81.543,-31.371 19.285,0 29.824,9.211 29.824,21.672 0,34.148 -111.367,38.757 -111.367,131.027 0,39.695 26.304,94.59 105.664,94.59 35.504,0 64.429,-10.16 94.246,-33.684 v -83.047 c -28.938,28.153 -52.176,41.075 -74.524,41.075 -17.539,0 -28.941,-8.321 -28.941,-21.692 0,-38.301 115.301,-42.461 115.301,-131.961 0,-45.207 -30.262,-93.652 -108.289,-93.652 -38.579,0 -73.204,6.922 -103.457,21.68 v 85.363" /><path
             id="path26"
             style="fill:#ffffff;fill-opacity:1;fill-rule:nonzero;stroke:none"
             d="m 700.145,342.313 c -31.129,-18.465 -70.157,-27.676 -111.344,-27.676 -124.961,0 -167.91,88.117 -167.91,160.09 0,91.804 63.562,162.871 173.164,162.871 39.453,0 74.519,-7.395 103.457,-21.231 v -91.816 c -30.246,20.301 -56.543,29.062 -86.797,29.062 -52.61,0 -85.063,-29.523 -85.063,-77.511 0,-47.059 33.325,-77.508 85.942,-77.508 30.242,0 54.785,7.851 88.551,27.707 v -83.988" /></g></g><path
         id="path28"
         style="fill:#ffffff;fill-opacity:1;fill-rule:nonzero;stroke:none"
         d="M 724.988,633.438 H 829.773 V 519.023 H 945.066 V 633.438 H 1049.84 V 318.789 H 945.066 V 437.813 H 829.773 V 318.789 H 724.988 v 314.649" /><g
         id="g30"><g
           clip-path="url(#clipPath36)"
           id="g32"><path
             id="path38"
             style="fill:#ffffff;fill-opacity:1;fill-rule:nonzero;stroke:none"
             d="m 1393.88,463.191 c 0,-92.285 -54.35,-148.554 -158.25,-148.554 -103.92,0 -162.22,51.211 -162.22,137.023 v 181.778 h 104.77 v -167.93 c 0,-44.317 22.38,-65.52 54.8,-65.52 32,0 56.12,21.203 56.12,71.047 v 162.403 h 104.78 V 463.191" /></g></g><path
         id="path40"
         style="fill:#ffffff;fill-opacity:1;fill-rule:nonzero;stroke:none"
         d="m 1420.21,633.438 h 89.44 l 151.24,-161.465 v 161.465 h 100.37 V 318.789 h -89.41 l -151.25,161.473 0.02,-161.473 h -100.41 v 314.649" /><path
         id="path42"
         style="fill:#ffffff;fill-opacity:1;fill-rule:nonzero;stroke:none"
         d="M 1788.23,633.438 H 1893 V 490.879 l 119.68,142.559 h 110.03 L 2000.83,487.176 2127.1,318.789 H 2002.17 L 1893.88,465.957 H 1893 V 318.789 h -104.77 v 314.649" /><g
         id="g44"><g
           clip-path="url(#clipPath50)"
           id="g46"><path
             id="path52"
             style="fill:#ffffff;fill-opacity:1;fill-rule:nonzero;stroke:none"
             d="m 2459.79,401.777 c 52.39,0 94.81,42.45 94.81,94.793 0,52.383 -42.42,94.825 -94.81,94.825 -52.36,0 -94.82,-42.442 -94.82,-94.825 0,-52.343 42.46,-94.793 94.82,-94.793" /><path
             id="path54"
             style="fill:#00adef;fill-opacity:1;fill-rule:nonzero;stroke:none"
             d="m 2165.6,320.117 -0.02,-217.344 206.43,109.247 c 28.04,-8.7 57.75,-13.543 88.65,-13.543 165.08,0 298.92,133.914 298.92,299.089 0,44.336 -9.66,86.446 -26.99,124.297 l -155.31,-83.152 c 4.53,-12.902 6.99,-26.797 6.99,-41.25 0,-68.535 -55.54,-124.094 -124.05,-124.094 -40.99,0 -77.36,19.875 -99.93,50.547 L 2165.6,320.117" /><path
             id="path56"
             style="fill:none;stroke:#00adef;stroke-width:10.02999973;stroke-linecap:butt;stroke-linejoin:miter;stroke-miterlimit:4;stroke-dasharray:none;stroke-opacity:1"
             d="m 2165.6,320.117 -0.02,-217.344 206.43,109.247 c 28.04,-8.7 57.75,-13.543 88.65,-13.543 165.08,0 298.92,133.914 298.92,299.089 0,44.336 -9.66,86.446 -26.99,124.297 l -155.31,-83.152 c 4.53,-12.902 6.99,-26.797 6.99,-41.25 0,-68.535 -55.54,-124.094 -124.05,-124.094 -40.99,0 -77.36,19.875 -99.93,50.547 z" /><path
             id="path58"
             style="fill:#00adef;fill-opacity:1;fill-rule:nonzero;stroke:none"
             d="m 2755.15,673.867 0.04,217.293 -206.45,-109.234 c -28.03,8.719 -57.75,13.57 -88.65,13.57 -165.09,0 -298.91,-133.926 -298.91,-299.09 0,-44.347 9.64,-86.457 26.95,-124.308 l 155.36,83.039 -0.14,0.312 c -4.62,13.016 -7.15,27.078 -7.15,41.688 0,68.547 55.55,124.121 124.02,124.121 41.22,0 77.72,-20.106 100.32,-51.055 l 194.61,103.664" /><path
             id="path60"
             style="fill:none;stroke:#00adef;stroke-width:10.02999973;stroke-linecap:butt;stroke-linejoin:miter;stroke-miterlimit:4;stroke-dasharray:none;stroke-opacity:1"
             d="m 2755.15,673.867 0.04,217.293 -206.45,-109.234 c -28.03,8.719 -57.75,13.57 -88.65,13.57 -165.09,0 -298.91,-133.926 -298.91,-299.09 0,-44.347 9.64,-86.457 26.95,-124.308 l 155.36,83.039 -0.14,0.312 c -4.62,13.016 -7.15,27.078 -7.15,41.688 0,68.547 55.55,124.121 124.02,124.121 41.22,0 77.72,-20.106 100.32,-51.055 z" /><path
             id="path62"
             style="fill:#ffffff;fill-opacity:1;fill-rule:nonzero;stroke:none"
             d="m 2884.31,620.867 c 10.07,-10.164 15.13,-22.429 15.13,-36.804 0,-14.473 -5.06,-26.829 -15.13,-37.043 -10.12,-10.196 -22.39,-15.301 -36.8,-15.301 -14.43,0 -26.72,5.105 -36.8,15.301 -10.04,10.214 -15.06,22.57 -15.06,37.043 0,14.375 5.06,26.64 15.15,36.804 10.13,10.196 22.37,15.293 36.71,15.293 14.36,0 26.63,-5.097 36.8,-15.293 m 5.97,5.844 c -11.77,11.734 -26.05,17.613 -42.77,17.613 -16.65,0 -30.82,-5.879 -42.56,-17.613 -11.82,-11.809 -17.69,-26.02 -17.69,-42.648 0,-16.79 5.84,-31.086 17.52,-42.883 11.75,-11.856 25.98,-17.774 42.73,-17.774 16.72,0 31,5.918 42.77,17.774 11.84,11.855 17.72,26.144 17.72,42.883 0,16.667 -5.88,30.898 -17.72,42.648 m -33.81,-39.848 c -2.46,-0.984 -6.17,-1.48 -11.1,-1.48 h -10.56 v 24.031 h 9.97 c 6.47,0 11.18,-0.82 14.14,-2.473 2.93,-1.64 4.4,-4.882 4.4,-9.695 0,-5.109 -2.29,-8.574 -6.85,-10.383 m -33.34,-35.808 h 11.68 v 26.179 h 9.24 c 6.21,0 10.54,-0.711 13,-2.136 4.15,-2.469 6.27,-7.539 6.27,-15.235 v -5.254 l 0.22,-2.14 c 0.06,-0.281 0.12,-0.535 0.17,-0.742 0.05,-0.223 0.1,-0.45 0.16,-0.672 h 10.94 l -0.39,0.828 c -0.28,0.547 -0.46,1.691 -0.59,3.457 -0.1,1.769 -0.14,3.41 -0.14,4.933 v 4.864 c 0,3.347 -1.21,6.777 -3.63,10.293 -2.41,3.504 -6.25,5.672 -11.44,6.496 4.12,0.664 7.33,1.726 9.61,3.211 4.35,2.801 6.53,7.168 6.53,13.086 0,8.34 -3.44,13.933 -10.32,16.797 -3.82,1.582 -9.85,2.382 -18.08,2.382 h -23.23 v -66.347" /></g></g></g></g></svg>