<?xml version="1.0" encoding="UTF-8" standalone="no"?>
<svg
   xmlns:dc="http://purl.org/dc/elements/1.1/"
   xmlns:cc="http://creativecommons.org/ns#"
   xmlns:rdf="http://www.w3.org/1999/02/22-rdf-syntax-ns#"
   xmlns:svg="http://www.w3.org/2000/svg"
   xmlns="http://www.w3.org/2000/svg"
   viewBox="0 0 731.52002 150.36"
   height="150.36"
   width="731.52002"
   xml:space="preserve"
   id="svg2"
   version="1.1"><metadata
     id="metadata8"><rdf:RDF><cc:Work
         rdf:about=""><dc:format>image/svg+xml</dc:format><dc:type
           rdf:resource="http://purl.org/dc/dcmitype/StillImage" /></cc:Work></rdf:RDF></metadata><defs
     id="defs6" /><g
     transform="matrix(1.3333333,0,0,-1.3333333,0,150.36)"
     id="g10"><g
       transform="scale(0.1)"
       id="g12"><path
         id="path14"
         style="fill:#ee2722;fill-opacity:1;fill-rule:nonzero;stroke:none"
         d="m 3902.44,564.254 c 0.13,4.684 -2,10.664 -6.05,13.887 -4.18,3.32 -8.7,3.984 -13.08,3.984 h -22.66 L 3685.78,185.902 3640.2,398.18 c -2.66,18.672 -17.61,31.367 -35.28,30.371 h -29.44 l -137.99,-240.391 1.32,374.93 c 0.14,5.015 -1.85,11.164 -6.24,14.617 -4.32,3.555 -9.1,4.418 -13.95,4.418 h -29.5 V 131.754 h 37.6 v 0.066 c 0.2,0 0.53,-0.066 0.8,-0.066 11.03,-0.137 21,2.586 29.16,8.574 7.45,5.313 13.82,12.754 19.48,21.66 l 120.85,215.528 50.37,-245.762 h 31.29 0.92 c 20.54,0 37.75,11.961 46.78,32.351 l 173.74,390.743 c 1.2,3.222 2.2,5.32 2.33,9.406 m 1583.89,17.871 h -185.84 c -86.83,-0.199 -96,-71.457 -96.4,-105.078 0,-35.41 25.71,-63.516 38.46,-75.012 l 126.58,-123.914 c 15.02,-14.746 22.32,-32.219 22.32,-48.371 0,-27.5 -21,-49.891 -54.88,-49.766 -0.06,-0.191 -163.77,-0.332 -165.31,-0.722 -5.38,-0.938 -11.02,-7.977 -10.89,-13.621 h -0.46 l 0.46,-0.207 c 0,-0.125 0,-27.371 0,-33.817 h 183.97 c 86.91,0.332 96.08,71.492 96.48,105.117 0,0.125 -0.07,0.125 -0.07,0.266 0.07,46.57 -42.72,82.516 -43.05,82.645 l -119.99,118.132 c -15.02,14.758 -24.26,29.973 -24.33,46.25 0.07,27.571 21.07,49.864 54.76,49.864 0.19,0.058 165.9,0.195 167.23,0.625 l 0.46,-1.231 -0.4,1.231 c 5.39,1.035 11.17,8.078 10.97,13.652 0,0 -0.07,0.07 0,0.168 0,0.273 -0.07,27.41 -0.07,33.789 M 4159.77,536.977 c -82.59,4.55 -177,-44.122 -209.49,-175.399 -31.95,-128.769 27.77,-191.223 108.77,-201.719 l 8.44,-0.398 c 83.51,-4.387 172.48,44.383 203.76,175.672 30.5,128.758 -29.36,193.476 -111.48,201.844 m 159.79,-205.77 C 4289.13,203.18 4196.91,102.18 4049.55,113.48 v 0.141 c -137.01,15.809 -176.27,136.336 -147.38,251.942 31.97,127.832 123.85,228.886 269.03,217.656 v -0.133 c 135.27,-15.777 175.67,-136.469 148.36,-251.879 m 820.15,246.629 c -3.79,2.859 -8.1,3.426 -12.36,3.492 h -21.99 l -231.82,-198.226 30.83,175.171 c 1.93,9.7 -2.78,16.313 -6.71,19.102 -4.12,3.125 -9.24,4.75 -14.15,4.75 h -22.32 l -83.72,-450.371 h 49.57 l 36.68,199.324 183.5,-199.461 h 21.99 c 4.39,0.137 8.58,0.731 12.3,3.594 3.85,2.656 5.91,7.969 5.71,12.285 0,8.106 -6.58,16.219 -6.58,16.219 l -173.67,188.691 231.87,196.926 c 0,0 6.52,5.586 6.52,16.285 0.06,4.281 -1.87,9.469 -5.65,12.219 m -465.42,-64.109 c -9.04,8.796 -22.86,13.015 -44.26,17.039 -5.57,1.027 -14.74,1.855 -25.17,2.394 -25.78,1.426 -102.39,0.262 -125.84,0.067 l -29.7,-163.817 c 17.67,-0.265 37.87,-0.527 52.09,-0.664 40.06,0 78.86,1.328 106.24,8.77 70.56,19.14 105.57,99.129 66.64,136.211 m 45.51,27.234 c 20.07,-22.781 21.52,-65.106 15.81,-91.152 -6.9,-31.825 -37.21,-112.157 -150.68,-122.325 l 95.6,-163.769 c 0,0 6.52,-9.832 6.52,-16.219 0.06,-4.316 -1.8,-9.629 -5.72,-12.285 -3.79,-2.863 -7.91,-3.594 -12.22,-3.594 h -25.26 l -112.08,193.211 -90.29,0.402 -35.08,-193.613 h -49.57 l 83.78,450.508 h 115.74 c 68.37,0 128.37,-0.996 163.45,-41.164 M 1388.91,485.953 c -5.65,-36.281 5.51,-78.867 45.91,-107.109 L 1578.8,278.383 c 15.08,-10.43 22.59,-17.664 20.73,-29.824 -2.73,-16.817 -11.5,-23.594 -41.33,-23.594 h -167.5 c -17.87,0 -27.57,-8.77 -30.83,-28.965 v -62.449 h 196.14 c 85.97,0 128.5,50.762 137.07,104.578 8.03,50.754 -8.97,86.906 -41.66,110.285 l -153.09,108.563 c -12.29,8.781 -15.34,13.429 -14.48,20.07 1.4,11.035 11.43,15.547 28.9,15.547 h 174.81 c 21.4,0 33.55,21.867 36.94,43.484 v 47.977 h -231.15 c -51.29,0 -96.14,-45.887 -104.44,-98.102 m 1742.81,98.164 h -242.51 l -1.19,-7.277 c -5.65,-30.567 -3.12,-66.043 45.25,-66.043 h 179.59 c 71.09,0 98.33,-51.426 80.65,-147.891 -16.07,-88.508 -63.78,-156.008 -136.2,-156.008 h -97.33 l 46.17,253.274 h -82.79 c -11.16,0 -18.86,-8.039 -20.12,-15.285 l -56.81,-311.211 h 189.88 c 140.2,0 238,65.976 268.29,232.414 23.39,127.969 -29.9,218.027 -172.88,218.027 M 2556.08,206.762 h -191.42 l 66.11,361.972 c 1.26,7.278 -4.12,15.321 -13.09,15.321 h -84.25 l -82.25,-450.379 h 317.13 l 8.16,44.922 c 3.66,20.195 -3.12,28.164 -20.39,28.164 m 238.52,377.355 h -84.24 L 2628.1,133.676 h 100.13 l 79.46,435.129 c 1.4,7.273 -4.05,15.312 -13.09,15.312 m -778.96,-77.238 c -91.35,0 -139.25,-53.086 -156.4,-157.664 -17.14,-104.707 13.23,-157.668 104.65,-157.668 91.35,0 139.19,52.961 156.33,157.668 17.21,104.578 -13.22,157.664 -104.58,157.664 M 2219.69,349.215 C 2198.63,221.383 2112.12,114.281 1951.2,114.281 c -161.05,0 -212.41,107.102 -191.35,234.934 20.93,127.832 107.57,234.84 268.48,234.84 160.93,0 212.35,-107.008 191.36,-234.84 M 1049.46,740.988 C 953.723,756.734 782.633,762.777 724.098,673.117 678.922,603.852 764.359,508.941 842.102,416.988 904.418,343.363 972.258,273.07 944.551,231.949 921.957,198.395 776.988,198.395 727.02,195.738 c -60.594,-3.195 -147.961,-3.32 -163.176,-11.699 -13.688,-7.305 -21.328,-30.156 29.965,-39.328 41.257,-7.441 139.457,-22.461 242.972,-22.461 108.102,0 221.649,17.805 246.299,101.523 19.8,67.168 -48.77,139.258 -109.228,212.278 -65.977,80.066 -132.883,137.035 -127.235,193.711 4.25,44.086 90.754,46.609 234.133,49.136 29.84,0.532 89.3,1.957 77.8,25.512 -10.22,20.797 -54.67,27.672 -109.09,36.578 M 608.293,541.461 c -61.395,42.125 -170.82,56.176 -260.852,51.492 -80.257,-4.219 -218.125,-29.73 -213.007,-55.117 4.918,-27.43 92.222,-18.934 132.214,-18.934 87.969,0 227.567,-5.312 249.559,-62.05 C 563.645,334.73 242.07,115.469 173.5,136.605 c -31.027,9.438 62.988,168.829 97.07,226.165 20.332,34.148 51.164,87.968 24.852,91.55 -29.438,4.121 -61.926,-46.504 -82.984,-75.672 C 155.23,299.379 96.6328,212.875 49.5898,123.91 35.1016,96.4688 -13.1289,13.8203 3.41406,3.05859 18.8906,-6.83984 92.4414,7.30859 185.992,44.3789 479.996,160.785 612.41,312.535 647.891,437.848 c 12.425,44.121 -9.039,82.656 -39.598,103.613 M 389.965,1076.85 c -6.113,19.76 92.023,45.51 199.59,50.26 108.367,4.75 236.531,-16.81 260.511,-88.3 C 889.203,921.637 690.813,750.785 517.867,666.836 475.41,646.305 449.762,640.66 439,642.086 c -10.168,1.363 -11.758,10.863 -8.437,17.41 6.113,12.324 34.082,37.402 71.355,64.715 194.676,142.18 257.926,246.492 221.184,288.719 -23.586,27.11 -122.25,45.94 -224.704,45.94 -27.835,0 -100.921,-6.08 -108.433,17.98" /></g></g></svg>